<ttFont>
          <CharString index="0">
            41 12 -15 -40 hvcurveto
            -75 vlineto
            -40 -12 -16 -41 vhcurveto
            -20 hlineto
            -42 -11 16 40 hvcurveto
            75 vlineto
            40 11 15 42 vhcurveto
            return
          </CharString>
          <CharString index="1">
            -72 -37 -37 -73 hvcurveto
            -82 vlineto
            -72 37 -38 72 vhcurveto
            46 hlineto
            73 36 38 72 hvcurveto
            82 vlineto
            73 -36 37 -73 vhcurveto
            return
          </CharString>
          <CharString index="2">
            40 12 -15 -40 hvcurveto
            -76 vlineto
            -40 -12 -15 -40 vhcurveto
            -21 hlineto
            -41 -12 15 40 hvcurveto
            76 vlineto
            40 12 15 41 vhcurveto
            return
          </CharString>
          <CharString index="3">
            11 -6 5 -10 vhcurveto
            -68 hlineto
            -12 -5 -5 -11 hvcurveto
            -228 vlineto
            -12 7 -4 7 vhcurveto
            6 0 6 3 3 6 rrcurveto
            53 97 rlineto
            12 23 7 16 0 21 rrcurveto
            return
          </CharString>
          <CharString index="4">
            12 -6 4 -10 vhcurveto
            -68 hlineto
            -12 -5 -5 -12 hvcurveto
            -119 vlineto
            -12 5 -7 12 vhcurveto
            68 hlineto
            11 5 5 12 hvcurveto
            return
          </CharString>
          <CharString index="5">
            11 -6 5 -10 vhcurveto
            -68 hlineto
            -12 -5 -5 -11 hvcurveto
            -121 vlineto
            -11 5 -7 12 vhcurveto
            68 hlineto
            11 5 6 11 hvcurveto
            return
          </CharString>
          <CharString index="6">
            11 0 4 4 3 13 rrcurveto
            38 130 220 0 38 -130 rlineto
            2 -13 4 -4 12 0 rrcurveto
            71 hlineto
            12 0 2 5 -3 12 rrcurveto
            -174 609 rlineto
            -3 13 -8 4 -13 0 rrcurveto
            -100 hlineto
            -13 0 -7 -4 -4 -13 rrcurveto
            -174 -609 rlineto
            -3 -12 2 -5 11 0 rrcurveto
            return
          </CharString>
          <CharString index="7">
            4 0 89 -320 -181 0 rlineto
            return
          </CharString>
          <CharString index="8">
            97 58 57 98 hvcurveto
            48 vlineto
            12 -6 6 -12 vhcurveto
            -63 hlineto
            -11 -6 -6 -12 hvcurveto
            -44 vlineto
            -49 -22 -25 -50 vhcurveto
            -87 hlineto
            -49 -23 25 49 hvcurveto
            325 vlineto
            49 23 25 49 vhcurveto
            87 hlineto
            50 22 -25 -49 hvcurveto
            -44 vlineto
            -12 6 -6 11 vhcurveto
            63 hlineto
            12 6 6 12 hvcurveto
            48 vlineto
            99 -58 56 -97 vhcurveto
            -116 hlineto
            -98 -57 -56 -99 hvcurveto
            -333 vlineto
            -98 57 -57 98 vhcurveto
            return
          </CharString>
          <CharString index="9">
            -7 -4 3 8 hvcurveto
            452 vlineto
            7 4 3 7 vhcurveto
            141 hlineto
            50 22 -25 -49 hvcurveto
            -325 vlineto
            -49 -22 -25 -50 vhcurveto
            return
          </CharString>
          <CharString index="10">
            -13 5 -4 12 vhcurveto
            246 hlineto
            97 59 57 98 hvcurveto
            333 vlineto
            99 -59 56 -97 vhcurveto
            -246 hlineto
            -12 -5 -4 -13 hvcurveto
            return
          </CharString>
          <CharString index="11">
            12 4 6 11 hvcurveto
            51 vlineto
            12 -4 5 -12 vhcurveto
            -228 hlineto
            -8 -4 3 8 hvcurveto
            178 vlineto
            7 4 3 8 vhcurveto
            193 hlineto
            13 5 6 11 hvcurveto
            51 vlineto
            12 -5 5 -13 vhcurveto
            -193 hlineto
            -8 -4 3 7 hvcurveto
            169 vlineto
            7 4 3 8 vhcurveto
            228 hlineto
            12 4 5 12 hvcurveto
            51 vlineto
            11 -4 6 -12 vhcurveto
            -320 hlineto
            -12 -5 -4 -13 hvcurveto
            -609 vlineto
            -13 5 -4 12 vhcurveto
            return
          </CharString>
          <CharString index="12">
            98 57 57 98 hvcurveto
            168 vlineto
            14 -8 7 -13 vhcurveto
            -168 hlineto
            -13 -4 -5 -12 hvcurveto
            -51 vlineto
            -11 4 -6 13 vhcurveto
            81 hlineto
            8 3 -3 -7 hvcurveto
            -90 vlineto
            -49 -22 -25 -50 vhcurveto
            -79 hlineto
            -49 -23 25 49 hvcurveto
            325 vlineto
            49 23 25 49 vhcurveto
            79 hlineto
            50 22 -25 -49 hvcurveto
            -32 vlineto
            -13 5 -5 12 vhcurveto
            63 hlineto
            12 5 5 13 hvcurveto
            36 vlineto
            99 -57 56 -98 vhcurveto
            -107 hlineto
            -98 -57 -56 -99 hvcurveto
            -333 vlineto
            -98 57 -57 98 vhcurveto
            return
          </CharString>
          <CharString index="13">
            13 -5 4 -12 vhcurveto
            -63 hlineto
            -12 -5 -4 -13 hvcurveto
            -609 vlineto
            -13 5 -4 12 vhcurveto
            63 hlineto
            12 5 4 13 hvcurveto
            return
          </CharString>
          <CharString index="14">
            -12 -6 -4 -13 hvcurveto
            -467 vlineto
            -49 -21 -25 -51 vhcurveto
            -71 hlineto
            -49 -23 25 49 hvcurveto
            86 vlineto
            12 -5 5 -12 vhcurveto
            -63 hlineto
            -12 -6 -5 -12 hvcurveto
            -90 vlineto
            -98 58 -57 98 vhcurveto
            100 hlineto
            97 58 57 98 hvcurveto
            472 vlineto
            12 -6 4 -11 vhcurveto
            return
          </CharString>
          <CharString index="15">
            12 5 4 13 hvcurveto
            0 178 79 93 173 -271 rlineto
            9 -14 12 -3 17 0 rrcurveto
            56 hlineto
            14 0 6 7 -8 13 rrcurveto
            -220 339 195 265 rlineto
            9 12 -4 7 -12 0 rrcurveto
            -74 hlineto
            -17 0 -6 -3 -9 -14 rrcurveto
            -191 -267 rlineto
            -7 -10 -12 -21 -7 -19 rrcurveto
            -3 317 hlineto
            13 -5 4 -12 vhcurveto
            -63 hlineto
            -12 -5 -4 -13 hvcurveto
            -609 vlineto
            -13 5 -4 12 vhcurveto
            return
          </CharString>
          <CharString index="16">
            13 4 6 11 hvcurveto
            52 vlineto
            11 -4 7 -13 vhcurveto
            -232 hlineto
            -8 -4 3 7 hvcurveto
            529 vlineto
            13 -5 4 -12 vhcurveto
            -63 hlineto
            -12 -5 -4 -13 hvcurveto
            -609 vlineto
            -13 5 -4 12 vhcurveto
            return
          </CharString>
          <CharString index="17">
            11 6 4 13 hvcurveto
            429 4 vlineto
            240 -430 rlineto
            2 -2 7 -14 17 0 rrcurveto
            54 hlineto
            12 5 4 13 hvcurveto
            609 vlineto
            13 -5 4 -12 vhcurveto
            -62 hlineto
            -11 -6 -4 -13 hvcurveto
            -429 -4 vlineto
            -242 435 rlineto
            -1 2 -5 9 -16 0 rrcurveto
            -56 hlineto
            -12 -5 -4 -13 hvcurveto
            -609 vlineto
            -13 5 -4 12 vhcurveto
            return
          </CharString>
          <CharString index="18">
            -50 -22 25 49 hvcurveto
            325 vlineto
            49 22 25 50 vhcurveto
            87 hlineto
            51 22 -25 -49 hvcurveto
            -325 vlineto
            -49 -22 -25 -51 vhcurveto
            return
          </CharString>
          <CharString index="19">
            98 58 57 98 hvcurveto
            333 vlineto
            99 -58 56 -98 vhcurveto
            -116 hlineto
            -98 -57 -56 -99 hvcurveto
            -333 vlineto
            -98 57 -57 98 vhcurveto
            return
          </CharString>
          <CharString index="20">
            12 5 4 13 hvcurveto
            220 vlineto
            7 4 3 8 vhcurveto
            101 0 107 -230 rlineto
            6 -14 7 -3 18 0 rrcurveto
            62 hlineto
            12 0 9 6 -8 14 rrcurveto
            -111 234 0 4 rlineto
            60 19 35 51 0 75 rrcurveto
            84 vlineto
            98 -59 58 -97 vhcurveto
            -234 hlineto
            -12 -5 -4 -13 hvcurveto
            -609 vlineto
            -13 5 -4 12 vhcurveto
            return
          </CharString>
          <CharString index="21">
            -7 -4 3 7 hvcurveto
            211 vlineto
            7 4 3 7 vhcurveto
            127 hlineto
            50 24 -25 -49 hvcurveto
            -84 vlineto
            -49 -24 -24 -50 vhcurveto
            return
          </CharString>
          <CharString index="22">
            -98 60 -58 97 vhcurveto
            112 hlineto
            97 59 58 98 hvcurveto
            39 vlineto
            0 238 -327 -114 0 122 rrcurveto
            31 vlineto
            62 22 24 58 vhcurveto
            63 hlineto
            return
          </CharString>
          <CharString index="23">
            57 23 -23 -57 hvcurveto
            -13 vlineto
            -13 6 -4 11 vhcurveto
            64 hlineto
            11 6 4 13 hvcurveto
            22 vlineto
            98 -59 58 -98 vhcurveto
            -106 hlineto
            -97 -59 -58 -98 hvcurveto
            -42 vlineto
            return
          </CharString>
          <CharString index="24">
            0 -239 328 125 0 -140 rrcurveto
            -23 vlineto
            -59 -24 -24 -57 vhcurveto
            -69 hlineto
            -57 -23 23 56 hvcurveto
            18 vlineto
            13 -6 4 -11 vhcurveto
            -64 hlineto
            -11 -6 -4 -13 hvcurveto
            return
          </CharString>
          <CharString index="25">
            11 6 4 13 hvcurveto
            531 vlineto
            7 4 3 7 vhcurveto
            126 hlineto
            13 5 5 12 hvcurveto
            51 vlineto
            11 -5 6 -13 vhcurveto
            -371 hlineto
            -13 -5 -6 -11 hvcurveto
            -51 vlineto
            -12 5 -5 13 vhcurveto
            126 hlineto
            8 2 -3 -7 hvcurveto
            -531 vlineto
            -13 6 -4 12 vhcurveto
            return
          </CharString>
          <CharString index="26">
            -12 -5 -4 -13 hvcurveto
            -467 vlineto
            -49 -23 -25 -50 vhcurveto
            -82 hlineto
            -49 -23 25 49 hvcurveto
            467 vlineto
            13 -5 4 -12 vhcurveto
            -63 hlineto
            -12 -5 -4 -13 hvcurveto
            -471 vlineto
            -98 57 -57 98 vhcurveto
            111 hlineto
            97 59 57 98 hvcurveto
            472 vlineto
            12 -6 4 -12 vhcurveto
            return
          </CharString>
          <CharString index="27">
            10 0 7 5 2 12 rrcurveto
            113 506 4 0 113 -506 rlineto
            2 -11 6 -6 12 0 rrcurveto
            106 hlineto
            12 0 6 5 2 12 rrcurveto
            119 608 rlineto
            2 12 -6 6 -13 0 rrcurveto
            -77 hlineto
            -11 0 -8 -5 -1 -13 rrcurveto
            -81 -523 -6 0 -119 526 rlineto
            -2 12 -8 3 -9 0 rrcurveto
            -84 hlineto
            -8 0 -8 -3 -2 -12 rrcurveto
            -118 -526 -6 0 -81 524 rlineto
            -1 14 -7 3 -12 0 rrcurveto
            -77 hlineto
            -12 0 -6 -6 1 -11 rrcurveto
            119 -609 rlineto
            2 -13 7 -4 12 0 rrcurveto
            return
          </CharString>
          <CharString index="28">
            11 6 4 13 hvcurveto
            0 221 187 387 rlineto
            6 11 -7 7 -10 0 rrcurveto
            -80 hlineto
            -10 0 -6 -5 -4 -12 rrcurveto
            -121 -275 -6 0 -123 275 rlineto
            -5 12 -5 5 -10 0 rrcurveto
            -80 hlineto
            -9 0 -7 -7 5 -11 rrcurveto
            187 -387 0 -221 rlineto
            -13 6 -4 11 vhcurveto
            return
          </CharString>
          <CharString index="29">
            -11 4 -6 13 vhcurveto
            380 hlineto
            13 4 7 12 hvcurveto
            56 vlineto
            12 -4 4 -13 vhcurveto
            -282 4 hlineto
            278 426 rlineto
            8 12 3 9 0 18 rrcurveto
            66 vlineto
            11 -4 6 -13 vhcurveto
            -354 hlineto
            -13 -5 -6 -11 hvcurveto
            -57 vlineto
            -11 5 -6 13 vhcurveto
            265 -4 hlineto
            -289 -447 rlineto
            -9 -11 0 -12 0 -14 rrcurveto
            return
          </CharString>
          <CharString index="30">
            45 0 40 18 16 35 rrcurveto
            4 -36 hlineto
            -13 5 -4 12 vhcurveto
            63 hlineto
            12 6 4 13 hvcurveto
            476 vlineto
            13 -6 4 -12 vhcurveto
            -224 hlineto
            -98 -57 -56 -99 hvcurveto
            -200 vlineto
            -98 57 -57 98 vhcurveto
            return
          </CharString>
          <CharString index="31">
            -51 -24 -34 -58 vhcurveto
            -48 hlineto
            -50 -22 25 49 hvcurveto
            192 vlineto
            49 22 25 50 vhcurveto
            119 hlineto
            7 4 -3 -7 hvcurveto
            return
          </CharString>
          <CharString index="32">
            12 -5 5 -13 vhcurveto
            -133 hlineto
            -49 -23 25 49 hvcurveto
            192 vlineto
            49 23 25 49 vhcurveto
            133 hlineto
            13 5 4 12 hvcurveto
            52 vlineto
            11 -5 6 -13 vhcurveto
            -147 hlineto
            -98 -57 -56 -99 hvcurveto
            -200 vlineto
            -98 57 -57 98 vhcurveto
            147 hlineto
            13 5 4 12 hvcurveto
            return
          </CharString>
          <CharString index="33">
            45 0 40 18 15 35 rrcurveto
            4 -36 hlineto
            -13 6 -4 11 vhcurveto
            64 hlineto
            11 6 4 13 hvcurveto
            669 vlineto
            13 -6 4 -11 vhcurveto
            -64 hlineto
            -11 -6 -4 -13 hvcurveto
            -229 -4 vlineto
            -15 35 -40 18 -45 0 rrcurveto
            -51 hlineto
            -97 -52 -56 -99 hvcurveto
            -200 vlineto
            -98 52 -57 97 vhcurveto
            return
          </CharString>
          <CharString index="34">
            -51 -24 -34 -58 vhcurveto
            -53 hlineto
            -50 -22 25 49 hvcurveto
            192 vlineto
            49 22 25 50 vhcurveto
            53 hlineto
            58 24 -34 -51 hvcurveto
            return
          </CharString>
          <CharString index="35">
            14 4 4 12 hvcurveto
            50 vlineto
            12 -4 6 -14 vhcurveto
            -202 hlineto
            -51 -22 24 49 hvcurveto
            43 vlineto
            7 3 3 8 vhcurveto
            268 hlineto
            12 6 5 13 hvcurveto
            127 vlineto
            99 -58 56 -98 vhcurveto
            -82 hlineto
            -98 -57 -56 -99 hvcurveto
            -200 vlineto
            -98 57 -57 98 vhcurveto
            return
          </CharString>
          <CharString index="36">
            -7 -3 3 7 hvcurveto
            64 vlineto
            50 21 23 51 vhcurveto
            55 hlineto
            51 21 -23 -50 hvcurveto
            -64 vlineto
            -7 -3 -3 -7 vhcurveto
            return
          </CharString>
          <CharString index="37">
            45 0 40 19 16 35 rrcurveto
            4 -76 hlineto
            -50 -22 -24 -51 vhcurveto
            -173 hlineto
            -13 -4 -6 -11 hvcurveto
            -52 vlineto
            -12 4 -4 13 vhcurveto
            188 hlineto
            97 59 56 98 hvcurveto
            495 vlineto
            13 -6 4 -12 vhcurveto
            -224 hlineto
            -97 -58 -56 -99 hvcurveto
            -175 vlineto
            -98 52 -57 97 vhcurveto
            return
          </CharString>
          <CharString index="38">
            -51 -24 -33 -58 vhcurveto
            -48 hlineto
            -50 -21 24 50 hvcurveto
            166 vlineto
            49 21 25 50 vhcurveto
            119 hlineto
            7 4 -3 -7 hvcurveto
            return
          </CharString>
          <CharString index="39">
            12 5 4 13 hvcurveto
            323 vlineto
            51 24 34 58 vhcurveto
            47 hlineto
            50 23 -25 -49 hvcurveto
            -334 vlineto
            -13 5 -4 12 vhcurveto
            63 hlineto
            12 6 4 13 hvcurveto
            338 vlineto
            99 -53 56 -98 vhcurveto
            -44 hlineto
            -48 0 -37 -18 -16 -35 rrcurveto
            -4 229 hlineto
            13 -5 4 -12 vhcurveto
            -63 hlineto
            -12 -5 -4 -13 hvcurveto
            -669 vlineto
            -13 5 -4 12 vhcurveto
            return
          </CharString>
          <CharString index="40">
            -11 5 -6 11 vhcurveto
            65 hlineto
            11 5 6 11 hvcurveto
            91 vlineto
            12 -5 4 -11 vhcurveto
            -65 hlineto
            -11 -5 -4 -12 hvcurveto
            return
          </CharString>
          <CharString index="41">
            -13 5 -4 12 vhcurveto
            64 hlineto
            12 4 3 14 hvcurveto
            476 vlineto
            13 -5 4 -12 vhcurveto
            -64 hlineto
            -11 -5 -4 -13 hvcurveto
            return
          </CharString>
          <CharString index="42">
            97 59 57 98 hvcurveto
            494 vlineto
            13 -5 4 -12 vhcurveto
            -63 hlineto
            -12 -5 -4 -13 hvcurveto
            -477 vlineto
            -63 -24 -24 -62 vhcurveto
            -26 hlineto
            -13 -4 -6 -11 hvcurveto
            -51 vlineto
            -11 4 -6 13 vhcurveto
            return
          </CharString>
          <CharString index="43">
            -4 -8 0 -12 4 -7 rrcurveto
            141 -231 rlineto
            9 -14 7 -3 18 0 rrcurveto
            65 hlineto
            14 0 6 9 -7 11 rrcurveto
            -152 242 0 4 141 224 rlineto
            8 12 -6 8 -12 0 rrcurveto
            -72 hlineto
            -13 0 -9 -4 -7 -12 rrcurveto
            return
          </CharString>
          <CharString index="44">
            12 5 4 13 hvcurveto
            669 vlineto
            13 -5 4 -12 vhcurveto
            -63 hlineto
            -12 -5 -4 -13 hvcurveto
            -669 vlineto
            -13 5 -4 12 vhcurveto
            return
          </CharString>
          <CharString index="45">
            12 5 4 13 hvcurveto
            323 vlineto
            51 24 34 58 vhcurveto
            47 hlineto
            50 23 -25 -49 hvcurveto
            -334 vlineto
            -13 5 -4 12 vhcurveto
            63 hlineto
            12 6 4 13 hvcurveto
            338 vlineto
            99 -53 56 -98 vhcurveto
            -44 hlineto
            -48 0 -37 -18 -16 -35 rrcurveto
            -4 36 hlineto
            13 -5 4 -12 vhcurveto
            -63 hlineto
            -12 -5 -4 -13 hvcurveto
            -476 vlineto
            -13 5 -4 12 vhcurveto
            return
          </CharString>
          <CharString index="46">
            97 59 57 98 hvcurveto
            200 vlineto
            99 -59 56 -97 vhcurveto
            -88 hlineto
            -98 -57 -56 -99 hvcurveto
            -200 vlineto
            -98 57 -57 98 vhcurveto
            return
          </CharString>
          <CharString index="47">
            -51 -21 23 50 hvcurveto
            194 vlineto
            50 21 23 51 vhcurveto
            61 hlineto
            50 22 -23 -50 hvcurveto
            -194 vlineto
            -50 -22 -23 -50 vhcurveto
            return
          </CharString>
          <CharString index="48">
            12 5 4 13 hvcurveto
            317 vlineto
            53 24 38 59 vhcurveto
            60 hlineto
            13 -2 4 6 0 12 rrcurveto
            52 vlineto
            11 -4 6 -13 vhcurveto
            -37 hlineto
            -46 0 -42 -22 -14 -33 rrcurveto
            -4 38 hlineto
            13 -5 4 -12 vhcurveto
            -63 hlineto
            -12 -5 -4 -13 hvcurveto
            -476 vlineto
            -13 5 -4 12 vhcurveto
            return
          </CharString>
          <CharString index="49">
            102 47 44 86 hvcurveto
            0 64 -19 40 -72 32 rrcurveto
            -110 56 rlineto
            -28 13 -23 15 0 28 rrcurveto
            11 vlineto
            21 20 17 42 vhcurveto
            146 hlineto
            13 3 5 12 hvcurveto
            49 vlineto
            11 -4 6 -12 vhcurveto
            -166 hlineto
            -99 -44 -43 -86 hvcurveto
            0 -65 31 -33 66 -31 rrcurveto
            109 -52 rlineto
            31 -14 16 -21 0 -26 rrcurveto
            -12 vlineto
            -31 -24 -14 -41 vhcurveto
            -168 hlineto
            -13 -4 -4 -12 hvcurveto
            -49 vlineto
            -11 4 -6 13 vhcurveto
            return
          </CharString>
          <CharString index="50">
            7 3 -3 -7 hvcurveto
            -262 vlineto
            -98 61 -55 97 vhcurveto
            54 hlineto
            14 4 4 12 hvcurveto
            52 vlineto
            12 -4 5 -14 vhcurveto
            -39 hlineto
            -50 -25 24 49 hvcurveto
            257 vlineto
            7 3 3 8 vhcurveto
            93 hlineto
            14 4 4 12 hvcurveto
            52 vlineto
            11 -4 6 -14 vhcurveto
            -93 hlineto
            -8 -3 3 7 hvcurveto
            90 vlineto
            13 -6 4 -11 vhcurveto
            -63 hlineto
            -11 -7 -4 -13 hvcurveto
            -90 vlineto
            -7 -3 -3 -7 vhcurveto
            -48 hlineto
            -13 -4 -6 -11 hvcurveto
            -52 vlineto
            -12 3 -4 14 vhcurveto
            return
          </CharString>
          <CharString index="51">
            45 0 40 18 16 35 rrcurveto
            4 -36 hlineto
            -13 5 -4 12 vhcurveto
            63 hlineto
            12 6 4 13 hvcurveto
            476 vlineto
            13 -6 4 -12 vhcurveto
            -63 hlineto
            -12 -5 -4 -13 hvcurveto
            -323 vlineto
            -51 -24 -34 -58 vhcurveto
            -48 hlineto
            -49 -23 25 49 hvcurveto
            334 vlineto
            13 -5 4 -12 vhcurveto
            -63 hlineto
            -12 -5 -4 -13 hvcurveto
            -338 vlineto
            -98 52 -57 97 vhcurveto
            return
          </CharString>
          <CharString index="52">
            13 0 5 5 2 12 rrcurveto
            79 371 7 0 80 -371 rlineto
            3 -13 5 -4 12 0 rrcurveto
            86 hlineto
            12 0 6 4 2 13 rrcurveto
            115 476 rlineto
            3 11 -4 6 -11 0 rrcurveto
            -72 hlineto
            -11 0 -7 -4 -2 -13 rrcurveto
            -73 -378 -7 0 -86 378 rlineto
            -3 13 -7 4 -11 0 rrcurveto
            -66 hlineto
            -11 0 -6 -4 -2 -13 rrcurveto
            -88 -378 -7 0 -73 378 rlineto
            -2 14 -7 3 -11 0 rrcurveto
            -72 hlineto
            -11 0 -4 -5 3 -12 rrcurveto
            115 -476 rlineto
            3 -11 6 -6 11 0 rrcurveto
            return
          </CharString>
          <CharString index="53">
            111 0 46 73 28 100 rrcurveto
            137 481 rlineto
            2 12 -6 6 -12 0 rrcurveto
            -64 hlineto
            -10 0 -8 -5 -2 -12 rrcurveto
            -109 -392 -4 0 -109 392 rlineto
            -3 13 -7 4 -10 0 rrcurveto
            -67 hlineto
            -12 0 -4 -5 3 -12 rrcurveto
            133 -449 rlineto
            4 -11 5 -6 12 0 rrcurveto
            40 hlineto
            -18 -64 -18 -39 -88 0 rrcurveto
            -23 hlineto
            -13 -4 -7 -11 hvcurveto
            -51 vlineto
            -11 4 -6 13 vhcurveto
            return
          </CharString>
          <CharString index="54">
            -11 4 -6 14 vhcurveto
            333 hlineto
            13 5 6 11 hvcurveto
            50 vlineto
            11 -5 7 -13 vhcurveto
            -223 4 hlineto
            219 320 rlineto
            7 8 5 7 0 23 rrcurveto
            46 vlineto
            11 -5 6 -12 vhcurveto
            -316 hlineto
            -13 -5 -6 -11 hvcurveto
            -50 vlineto
            -11 5 -7 13 vhcurveto
            219 -4 hlineto
            -231 -335 rlineto
            -8 -10 -6 -9 0 -24 rrcurveto
            return
          </CharString>
          <CharString index="55">
            -11 5 -6 12 vhcurveto
            59 hlineto
            11 5 6 11 hvcurveto
            96 vlineto
            12 -5 4 -11 vhcurveto
            -59 hlineto
            -12 -5 -5 -12 hvcurveto
            return
          </CharString>
          <CharString index="56">
            -11 5 -6 11 vhcurveto
            60 hlineto
            10 6 6 11 hvcurveto
            96 vlineto
            12 -6 4 -10 vhcurveto
            -60 hlineto
            -11 -5 -5 -12 hvcurveto
            return
          </CharString>
          <CharString index="57">
            12 5 6 11 hvcurveto
            34 vlineto
            11 -5 6 -12 vhcurveto
            -199 hlineto
            -14 -4 -6 -11 hvcurveto
            -34 vlineto
            -11 4 -6 14 vhcurveto
            return
          </CharString>
          <CharString index="58">
            -11 5 -6 11 vhcurveto
            60 hlineto
            10 5 6 11 hvcurveto
            96 vlineto
            12 -5 4 -10 vhcurveto
            -60 hlineto
            -11 -5 -5 -12 hvcurveto
            return
          </CharString>
          <CharString index="59">
            -11 5 -6 10 vhcurveto
            61 hlineto
            10 5 6 11 hvcurveto
            96 vlineto
            12 -6 4 -9 vhcurveto
            -61 hlineto
            -10 -5 -5 -12 hvcurveto
            return
          </CharString>
          <CharString index="60">
            11 0 6 4 5 13 rrcurveto
            66 130 198 0 0 -130 rlineto
            -13 5 -4 12 vhcurveto
            320 hlineto
            12 5 6 11 hvcurveto
            51 vlineto
            12 -5 5 -12 vhcurveto
            -228 hlineto
            -8 -3 3 8 hvcurveto
            178 vlineto
            7 3 3 8 vhcurveto
            193 hlineto
            13 5 6 11 hvcurveto
            51 vlineto
            12 -5 5 -13 vhcurveto
            -193 hlineto
            -8 -3 3 7 hvcurveto
            169 vlineto
            7 3 3 8 vhcurveto
            228 hlineto
            12 5 5 12 hvcurveto
            51 vlineto
            11 -5 6 -12 vhcurveto
            -376 hlineto
            -14 0 -7 -4 -6 -13 rrcurveto
            -301 -608 rlineto
            -5 -11 4 -7 12 0 rrcurveto
            return
          </CharString>
          <CharString index="61">
            -5 12 -9 4 -11 0 rrcurveto
            -78 hlineto
            -11 0 -4 -7 7 -10 rrcurveto
            84 -100 rlineto
            6 -8 8 -4 9 0 rrcurveto
            48 hlineto
            11 0 3 5 -6 12 rrcurveto
            return
          </CharString>
          <CharString index="62">
            -5 7 -6 3 -10 0 rrcurveto
            -48 hlineto
            -11 0 -5 -3 -5 -7 rrcurveto
            -64 -107 rlineto
            -4 -6 3 -6 8 0 rrcurveto
            46 hlineto
            8 0 4 2 4 8 rrcurveto
            40 78 40 -78 rlineto
            3 -8 5 -2 8 0 rrcurveto
            46 hlineto
            9 0 1 6 -4 6 rrcurveto
            return
          </CharString>
          <CharString index="63">
            -11 5 -6 10 vhcurveto
            61 hlineto
            10 6 6 11 hvcurveto
            96 vlineto
            12 -7 4 -9 vhcurveto
            -61 hlineto
            -10 -5 -5 -12 hvcurveto
            return
          </CharString>
          <CharString index="64">
            -11 6 -6 10 vhcurveto
            60 hlineto
            11 6 6 11 hvcurveto
            96 vlineto
            12 -7 4 -10 vhcurveto
            -60 hlineto
            -10 -6 -5 -12 hvcurveto
            return
          </CharString>
          <CharString index="65">
            12 4 6 11 hvcurveto
            51 vlineto
            12 -4 5 -12 vhcurveto
            -228 hlineto
            return
          </CharString>
          <CharString index="66">
            -8 -4 3 8 hvcurveto
            178 vlineto
            7 4 3 8 vhcurveto
            193 hlineto
            13 5 6 11 hvcurveto
            51 vlineto
            12 -5 5 -13 vhcurveto
            -193 hlineto
            -8 -4 3 7 hvcurveto
            169 vlineto
            7 4 3 8 vhcurveto
            228 hlineto
            12 4 5 12 hvcurveto
            51 vlineto
            11 -4 6 -12 vhcurveto
            -320 hlineto
            -12 -5 -4 -13 hvcurveto
            -609 vlineto
            -13 5 -4 12 vhcurveto
            return
          </CharString>
          <CharString index="67">
            -11 5 -6 11 vhcurveto
            60 hlineto
            11 6 6 11 hvcurveto
            96 vlineto
            12 -7 4 -10 vhcurveto
            -60 hlineto
            -11 -5 -5 -12 hvcurveto
            return
          </CharString>
          <CharString index="68">
            -11 5 -6 11 vhcurveto
            60 hlineto
            11 6 6 11 hvcurveto
            96 vlineto
            12 -6 4 -11 vhcurveto
            -60 hlineto
            -11 -5 -5 -12 hvcurveto
            return
          </CharString>
          <CharString index="69">
            -5 7 -7 3 -9 0 rrcurveto
            -49 hlineto
            -10 0 -6 -3 -5 -7 rrcurveto
            -63 -107 rlineto
            -4 -6 2 -6 9 0 rrcurveto
            45 hlineto
            8 0 5 2 3 8 rrcurveto
            40 78 41 -78 rlineto
            3 -8 5 -2 7 0 rrcurveto
            46 hlineto
            9 0 1 6 -4 6 rrcurveto
            return
          </CharString>
          <CharString index="70">
            -11 5 -6 11 vhcurveto
            60 hlineto
            11 5 6 11 hvcurveto
            96 vlineto
            12 -6 4 -10 vhcurveto
            -60 hlineto
            -11 -5 -5 -12 hvcurveto
            return
          </CharString>
          <CharString index="71">
            -10 7 -8 -1 -8 -11 rrcurveto
            -19 -27 rlineto
            -27 23 -36 12 -46 0 rrcurveto
            -122 hlineto
            -98 -57 -56 -99 hvcurveto
            -333 vlineto
            0 -26 4 -23 8 -20 rrcurveto
            -32 -45 rlineto
            -7 -11 2 -8 9 -7 rrcurveto
            17 -13 rlineto
            10 -6 8 1 8 10 rrcurveto
            20 28 rlineto
            26 -23 37 -12 45 0 rrcurveto
            122 hlineto
            98 57 57 98 hvcurveto
            333 vlineto
            0 26 -4 23 -8 20 rrcurveto
            33 46 rlineto
            6 10 -1 8 -10 7 rrcurveto
            return
          </CharString>
          <CharString index="72">
            49 22 25 50 vhcurveto
            94 hlineto
            33 0 21 -11 10 -21 rrcurveto
            -230 -321 rlineto
            return
          </CharString>
          <CharString index="73">
            -49 -22 -25 -50 vhcurveto
            -94 hlineto
            -33 0 -20 11 -11 21 rrcurveto
            230 321 rlineto
            return
          </CharString>
          <CharString index="74">
            -11 0 -8 -4 -6 -12 rrcurveto
            -52 -96 rlineto
            -6 -12 3 -5 11 0 rrcurveto
            48 hlineto
            9 0 8 4 6 8 rrcurveto
            85 100 rlineto
            7 10 -5 7 -10 0 rrcurveto
            return
          </CharString>
          <CharString index="75">
            -11 0 -9 -4 -5 -12 rrcurveto
            -52 -96 rlineto
            -6 -12 3 -5 11 0 rrcurveto
            47 hlineto
            10 0 8 4 6 8 rrcurveto
            84 100 rlineto
            7 10 -4 7 -11 0 rrcurveto
            return
          </CharString>
          <CharString index="76">
            45 0 40 18 16 35 rrcurveto
            return
          </CharString>
          <CharString index="77">
            4 -36 hlineto
            -13 5 -4 12 vhcurveto
            63 hlineto
            12 6 4 13 hvcurveto
            476 vlineto
            13 -6 4 -12 vhcurveto
            -224 hlineto
            -98 -57 -56 -99 hvcurveto
            -200 vlineto
            -98 57 -57 98 vhcurveto
            return
          </CharString>
          <CharString index="78">
            6 4 4 8 vhcurveto
            251 hlineto
            12 6 5 13 hvcurveto
            138 vlineto
            99 -58 56 -97 vhcurveto
            -53 hlineto
            -46 0 -50 -12 -25 -47 -24 46 -54 13 -46 0 rrcurveto
            -157 hlineto
            -13 -4 -6 -11 hvcurveto
            -51 vlineto
            -12 4 -5 13 vhcurveto
            160 hlineto
            47 25 -22 -51 hvcurveto
            -29 vlineto
            return
          </CharString>
          <CharString index="79">
            -5 -2 -3 -6 vhcurveto
            -130 hlineto
            -97 -58 -50 -99 hvcurveto
            -16 vlineto
            -96 60 -54 95 vhcurveto
            34 hlineto
            58 0 53 15 25 46 26 -43 38 -18 59 0 rrcurveto
            205 hlineto
            14 4 4 12 hvcurveto
            52 vlineto
            12 -5 5 -13 vhcurveto
            -190 hlineto
            -50 -23 25 49 hvcurveto
            return
          </CharString>
          <CharString index="80">
            -8 -4 -3 -7 vhcurveto
            -173 hlineto
            -7 -4 3 8 hvcurveto
            75 vlineto
            50 26 22 50 vhcurveto
            46 hlineto
            50 23 -25 -49 hvcurveto
            return
          </CharString>
          <CharString index="81">
            -57 -26 -27 -56 vhcurveto
            -41 hlineto
            -55 -23 24 52 hvcurveto
            14 vlineto
            return
          </CharString>
          <CharString index="82">
            50 22 24 56 vhcurveto
            112 hlineto
            8 3 -3 -7 hvcurveto
            return
          </CharString>
          <CharString index="83">
            -5 7 -6 3 -10 0 rrcurveto
            -49 hlineto
            -9 0 -7 -3 -5 -7 rrcurveto
            -62 -107 rlineto
            -4 -6 1 -6 9 0 rrcurveto
            46 hlineto
            7 0 5 2 3 8 rrcurveto
            41 78 40 -78 rlineto
            3 -8 5 -2 8 0 rrcurveto
            45 hlineto
            10 0 1 6 -4 6 rrcurveto
            return
          </CharString>
          <CharString index="84">
            -45 15 -32 52 vhcurveto
            25 0 18 6 19 37 16 27 3 6 13 0 rrcurveto
            15 5 -8 -35 hvcurveto
            -18 vlineto
            -10 2 -2 8 vhcurveto
            30 hlineto
            7 2 2 10 hvcurveto
            38 vlineto
            45 -15 32 -52 vhcurveto
            -26 0 -15 -8 -17 -30 -19 -32 -5 -7 -11 0 rrcurveto
            -16 -4 9 34 hvcurveto
            19 vlineto
            9 -3 2 -7 vhcurveto
            -30 hlineto
            -7 -3 -2 -9 hvcurveto
            return
          </CharString>
          <CharString index="85">
            -8 8 -9 0 -7 -9 rrcurveto
            -30 -30 rlineto
            -27 32 -42 18 -55 0 rrcurveto
            -87 hlineto
            -98 -58 -56 -99 hvcurveto
            -200 vlineto
            0 -20 2 -18 5 -17 rrcurveto
            -43 -43 rlineto
            -8 -8 -1 -9 9 -8 rrcurveto
            14 -13 rlineto
            7 -9 7 0 10 9 rrcurveto
            31 31 rlineto
            27 -32 42 -18 54 0 rrcurveto
            87 hlineto
            98 58 57 98 hvcurveto
            200 vlineto
            0 20 -2 18 -5 17 rrcurveto
            43 43 rlineto
            9 8 0 9 -9 8 rrcurveto
            return
          </CharString>
          <CharString index="86">
            49 21 25 51 vhcurveto
            59 hlineto
            35 0 22 -12 9 -25 rrcurveto
            -197 -197 rlineto
            return
          </CharString>
          <CharString index="87">
            -49 -22 -25 -50 vhcurveto
            -59 hlineto
            -36 0 -21 12 -9 24 rrcurveto
            197 198 rlineto
            return
          </CharString>
          <CharString index="88">
            4 -36 hlineto
            -13 5 -4 12 vhcurveto
            63 hlineto
            12 6 4 13 hvcurveto
            476 vlineto
            13 -6 4 -12 vhcurveto
            -63 hlineto
            -12 -5 -4 -13 hvcurveto
            -323 vlineto
            -51 -24 -34 -58 vhcurveto
            -48 hlineto
            -49 -23 25 49 hvcurveto
            334 vlineto
            13 -5 4 -12 vhcurveto
            -63 hlineto
            -12 -5 -4 -13 hvcurveto
            -338 vlineto
            -98 52 -57 97 vhcurveto
            return
          </CharString>
          <CharString index="89">
            13 4 5 12 hvcurveto
            35 vlineto
            11 -4 6 -13 vhcurveto
            -199 hlineto
            -13 -4 -6 -11 hvcurveto
            -35 vlineto
            -12 4 -5 13 vhcurveto
            return
          </CharString>
          <CharString index="90">
            12 5 6 11 hvcurveto
            34 vlineto
            11 -5 6 -12 vhcurveto
            -200 hlineto
            -13 -4 -6 -11 hvcurveto
            -34 vlineto
            -11 4 -6 13 vhcurveto
            return
          </CharString>
          <CharString index="91">
            -11 0 -9 -4 -6 -12 rrcurveto
            -52 -96 rlineto
            -5 -12 3 -5 11 0 rrcurveto
            48 hlineto
            8 0 9 4 6 8 rrcurveto
            84 100 rlineto
            8 10 -5 7 -11 0 rrcurveto
            return
          </CharString>
          <CharString index="92">
            -12 5 -5 11 vhcurveto
            65 hlineto
            12 5 5 12 hvcurveto
            96 vlineto
            12 -6 4 -11 vhcurveto
            -65 hlineto
            -11 -5 -5 -12 hvcurveto
            return
          </CharString>
          <CharString index="93">
            49 hlineto
            10 0 6 3 5 7 rrcurveto
            63 107 rlineto
            4 6 -1 6 -10 0 rrcurveto
            -45 hlineto
            -8 0 -5 -2 -3 -8 rrcurveto
            -40 -78 -41 78 rlineto
            -3 8 -5 2 -7 0 rrcurveto
            -46 hlineto
            -9 0 -1 -6 4 -6 rrcurveto
            62 -107 rlineto
            5 -7 7 -3 9 0 rrcurveto
            return
          </CharString>
          <CharString index="94">
            12 -6 4 -10 vhcurveto
            -57 hlineto
            -11 -5 -5 -12 hvcurveto
            return
          </CharString>
          <CharString index="95">
            10 24 8 18 0 29 rrcurveto
            return
          </CharString>
          <CharString index="96">
            -11 vlineto
            -71 35 -35 61 vhcurveto
            26 hlineto
            61 36 35 71 hvcurveto
            11 vlineto
            8 -5 4 -8 vhcurveto
            -36 hlineto
            -9 -4 -4 -8 hvcurveto
            -10 vlineto
            -40 -13 -16 -32 vhcurveto
            -6 hlineto
            -32 -12 15 41 hvcurveto
            10 vlineto
            9 -4 3 -8 vhcurveto
            -38 hlineto
            -8 -4 -3 -9 hvcurveto
            return
          </CharString>
          <CharString index="97">
            -5 7 -6 3 -11 0 rrcurveto
            -48 hlineto
            -10 0 -6 -3 -5 -7 rrcurveto
            -63 -107 rlineto
            -4 -6 2 -6 9 0 rrcurveto
            45 hlineto
            8 0 5 2 2 8 rrcurveto
            41 78 40 -78 rlineto
            4 -8 4 -2 8 0 rrcurveto
            46 hlineto
            9 0 2 6 -4 6 rrcurveto
            return
          </CharString>
          <CharString index="98">
            12 -6 4 -11 vhcurveto
            -56 hlineto
            -11 -6 -5 -12 hvcurveto
            -173 vlineto
            -12 7 -4 7 vhcurveto
            6 0 5 3 4 6 rrcurveto
            42 74 rlineto
            14 21 5 18 0 21 rrcurveto
            return
          </CharString>
          <CharString index="99">
            -11 0 -9 -4 -6 -12 rrcurveto
            -52 -96 rlineto
            -5 -12 3 -5 11 0 rrcurveto
            48 hlineto
            8 0 9 4 5 8 rrcurveto
            85 100 rlineto
            8 10 -5 7 -11 0 rrcurveto
            return
          </CharString>
          <CharString index="100">
            12 -6 4 -10 vhcurveto
            -57 hlineto
            -11 -5 -5 -12 hvcurveto
            -173 vlineto
            -12 6 -4 7 vhcurveto
            6 0 5 3 4 6 rrcurveto
            42 74 rlineto
            14 21 5 18 0 21 rrcurveto
            return
          </CharString>
          <CharString index="101">
            12 -6 4 -10 vhcurveto
            -57 hlineto
            -11 -5 -5 -12 hvcurveto
            -173 vlineto
            -12 6 -4 8 vhcurveto
            6 0 4 3 4 6 rrcurveto
            43 74 rlineto
            13 21 5 18 0 21 rrcurveto
            return
          </CharString>
          <CharString index="102">
            -5 7 -6 3 -11 0 rrcurveto
            -47 hlineto
            -11 0 -6 -3 -5 -7 rrcurveto
            -63 -107 rlineto
            -4 -6 3 -6 8 0 rrcurveto
            45 hlineto
            8 0 5 2 3 8 rrcurveto
            40 78 41 -78 rlineto
            3 -8 5 -2 7 0 rrcurveto
            47 hlineto
            8 0 2 6 -4 6 rrcurveto
            return
          </CharString>
          <CharString index="103">
            47 hlineto
            11 0 6 3 5 7 rrcurveto
            63 107 rlineto
            4 6 -2 6 -8 0 rrcurveto
            -47 hlineto
            -7 0 -5 -2 -3 -8 rrcurveto
            -41 -78 -40 78 rlineto
            -3 8 -5 2 -8 0 rrcurveto
            -45 hlineto
            -8 0 -3 -6 4 -6 rrcurveto
            63 -107 rlineto
            5 -7 6 -3 11 0 rrcurveto
            return
          </CharString>
          <CharString index="104">
            79 39 43 83 hvcurveto
            7 vlineto
            18 -7 9 -15 vhcurveto
            -37 hlineto
            -12 -10 -7 -18 hvcurveto
            -9 vlineto
            -36 -14 -15 -38 vhcurveto
            -83 hlineto
            -39 -14 15 36 hvcurveto
            9 vlineto
            18 -7 7 -13 vhcurveto
            -39 hlineto
            -15 -7 -9 -18 hvcurveto
            -7 vlineto
            -81 40 -45 78 vhcurveto
            return
          </CharString>
          <CharString index="105">
            13 -6 5 -12 vhcurveto
            -41 hlineto
            -12 -5 -5 -13 hvcurveto
            -43 vlineto
            -13 5 -6 12 vhcurveto
            41 hlineto
            12 6 6 13 hvcurveto
            return
          </CharString>
          <CharString index="106">
            13 -7 5 -11 vhcurveto
            -63 hlineto
            -12 -5 -5 -13 hvcurveto
            -59 vlineto
            -12 5 -7 12 vhcurveto
            63 hlineto
            12 6 7 12 hvcurveto
            return
          </CharString>
          <CharString index="107">
            -23 -13 -16 -22 hvcurveto
            -277 vlineto
            -8 -3 -4 -8 vhcurveto
            return
          </CharString>
          <CharString index="108">
            -113 hlineto
            -10 19 -16 13 -20 7 rrcurveto
            4 vlineto
            36 17 24 35 0 57 rrcurveto
            16 vlineto
            103 -51 56 -106 vhcurveto
            -88 hlineto
            -14 -5 -6 -12 hvcurveto
            -43 vlineto
            -13 5 -6 14 vhcurveto
            77 hlineto
            55 24 -24 -52 hvcurveto
            -14 vlineto
            -51 -25 -24 -54 vhcurveto
            -52 hlineto
            -12 -7 -7 -13 hvcurveto
            -42 vlineto
            -13 6 -7 13 vhcurveto
            52 hlineto
            55 24 -23 -51 hvcurveto
            -28 vlineto
            -51 -25 -25 -54 vhcurveto
            -108 hlineto
            -14 -6 -6 -13 hvcurveto
            -43 vlineto
            -14 6 -5 14 vhcurveto
            114 hlineto
            103 59 57 102 hvcurveto
            return
          </CharString>
          <CharString index="109">
            21 99 vlineto
            8 3 -4 -8 hvcurveto
            -186 vlineto
            -14 6 -5 13 vhcurveto
            53 hlineto
            12 7 5 14 hvcurveto
            512 vlineto
            7 3 5 8 vhcurveto
            65 hlineto
            15 5 6 13 hvcurveto
            43 vlineto
            12 -5 6 -15 vhcurveto
            return
          </CharString>
          <CharString index="110">
            34 15 -10 -32 hvcurveto
            -39 vlineto
            -32 -12 -14 -37 vhcurveto
            -79 hlineto
            -38 -21 15 41 hvcurveto
            10 vlineto
            14 -7 5 -13 vhcurveto
            -50 hlineto
            -13 -6 -5 -14 hvcurveto
            -188 vlineto
            -14 6 -5 13 vhcurveto
            50 hlineto
            13 7 5 14 hvcurveto
            return
          </CharString>
          <CharString index="111">
            11 -21 24 -10 35 0 rrcurveto
            76 hlineto
            80 48 46 78 hvcurveto
            47 vlineto
            77 -48 37 -80 vhcurveto
            -97 hlineto
            -34 -15 11 31 hvcurveto
            8 vlineto
            32 12 14 37 vhcurveto
            151 hlineto
            return
          </CharString>
          <CharString index="112">
            0 -27 6 -12 15 -7 rrcurveto
            -4 -247 vlineto
            -13 -6 -6 -12 hvcurveto
            -44 vlineto
            -13 6 -5 13 vhcurveto
            297 hlineto
            return
          </CharString>
          <CharString index="113">
            7 4 -3 -8 hvcurveto
            -54 vlineto
            -8 -4 -4 -7 vhcurveto
            -103 hlineto
            -80 -51 -38 -79 hvcurveto
            -15 vlineto
            -82 42 -40 89 vhcurveto
            92 hlineto
            return
          </CharString>
          <CharString index="114">
            26 20 12 31 hvcurveto
            103 vlineto
            8 3 3 8 vhcurveto
            72 hlineto
            13 6 5 13 hvcurveto
            44 vlineto
            12 -6 6 -13 vhcurveto
            -114 hlineto
            return
          </CharString>
          <CharString index="115">
            -13 -6 -6 -13 hvcurveto
            -43 vlineto
            -12 6 -6 13 vhcurveto
            65 hlineto
            8 4 -5 -7 hvcurveto
            -324 vlineto
            -102 66 -76 114 vhcurveto
            163 hlineto
            13 1 6 6 0 13 rrcurveto
            44 vlineto
            12 -5 7 -14 vhcurveto
            -145 hlineto
            -71 -37 35 63 hvcurveto
            321 vlineto
            7 3 5 8 vhcurveto
            192 hlineto
            7 5 -5 -7 hvcurveto
            -109 vlineto
            -59 -31 -15 -49 vhcurveto
            -25 hlineto
            -13 -6 -6 -13 hvcurveto
            -42 vlineto
            -13 6 -6 13 vhcurveto
            37 hlineto
            98 59 50 104 hvcurveto
            109 vlineto
            7 3 5 9 vhcurveto
            49 hlineto
            13 6 6 12 hvcurveto
            43 vlineto
            13 -6 6 -13 vhcurveto
            return
          </CharString>
          <CharString index="116">
            21 99 vlineto
            8 3 -4 -8 hvcurveto
            -186 vlineto
            -14 6 -5 13 vhcurveto
            53 hlineto
            12 7 5 14 hvcurveto
            512 vlineto
            7 3 5 8 vhcurveto
            122 hlineto
            7 4 -5 -7 hvcurveto
            -512 vlineto
            -14 6 -5 13 vhcurveto
            53 hlineto
            12 7 5 14 hvcurveto
            512 vlineto
            7 3 5 8 vhcurveto
            65 hlineto
            15 5 6 13 hvcurveto
            43 vlineto
            12 -5 6 -15 vhcurveto
            return
          </CharString>
          <CharString index="117">
            -137 vlineto
            -14 7 -5 12 vhcurveto
            51 hlineto
            13 7 5 14 hvcurveto
            512 vlineto
            7 3 5 8 vhcurveto
            65 hlineto
            15 5 6 13 hvcurveto
            43 vlineto
            12 -5 6 -15 vhcurveto
            -724 hlineto
            -13 -6 -6 -12 hvcurveto
            -43 vlineto
            -13 6 -6 13 vhcurveto
            179 hlineto
            7 -1 3 -4 0 -7 rrcurveto
            -141 vlineto
            -41 -21 -16 -32 vhcurveto
            -76 hlineto
            -14 -9 -9 -13 hvcurveto
            0 -57 25 -33 134 -209 rlineto
            4 -5 6 -7 10 0 rrcurveto
            57 hlineto
            11 6 8 10 hvcurveto
            0 4 -2 6 -3 4 rrcurveto
            -144 222 17 0 rlineto
            72 48 48 83 hvcurveto
            146 vlineto
            7 4 5 7 vhcurveto
            258 hlineto
            8 3 -5 -7 hvcurveto
            -256 vlineto
            -47 -16 -33 -57 vhcurveto
            -6 hlineto
            -52 -21 22 55 hvcurveto
            28 vlineto
            53 18 23 52 vhcurveto
            10 hlineto
            14 7 5 13 hvcurveto
            42 vlineto
            13 -7 7 -14 vhcurveto
            -18 hlineto
            -100 -50 -59 -86 hvcurveto
            -45 vlineto
            -89 45 -60 94 vhcurveto
            15 hlineto
            37 1 30 14 15 24 rrcurveto
            return
          </CharString>
          <CharString index="118">
            -13 -6 -6 -12 hvcurveto
            -43 vlineto
            -13 6 -6 13 vhcurveto
            123 hlineto
            7 -1 3 -4 0 -7 rrcurveto
            -171 vlineto
            -57 -28 -22 -50 vhcurveto
            -8 hlineto
            -13 -6 -6 -13 hvcurveto
            -45 vlineto
            -13 6 -6 13 vhcurveto
            22 hlineto
            98 57 53 106 hvcurveto
            174 vlineto
            7 3 5 8 vhcurveto
            109 hlineto
            7 -1 3 -4 0 -7 rrcurveto
            -512 vlineto
            -14 7 -5 12 vhcurveto
            53 hlineto
            12 7 5 14 hvcurveto
            512 vlineto
            7 3 5 8 vhcurveto
            65 hlineto
            15 5 6 13 hvcurveto
            43 vlineto
            12 -5 6 -15 vhcurveto
            return
          </CharString>
          <CharString index="119">
            13 -6 5 -11 vhcurveto
            -55 hlineto
            -12 -6 -5 -13 hvcurveto
            -53 vlineto
            -12 6 -7 12 vhcurveto
            55 hlineto
            12 5 7 12 hvcurveto
            return
          </CharString>
          <CharString index="120">
            -13 -6 -6 -12 hvcurveto
            -44 vlineto
            -13 6 -5 13 vhcurveto
            291 hlineto
            return
          </CharString>
          <CharString index="121">
            7 3 -5 -7 hvcurveto
            -56 vlineto
            -8 -4 -4 -7 vhcurveto
            -97 hlineto
            -80 -52 -38 -79 hvcurveto
            -23 vlineto
            -82 43 -32 89 vhcurveto
            85 hlineto
            return
          </CharString>
          <CharString index="122">
            34 16 -12 -38 hvcurveto
            -30 vlineto
            -37 -16 -13 -34 vhcurveto
            -67 hlineto
            -48 -21 7 49 hvcurveto
            6 vlineto
            15 -7 8 -11 vhcurveto
            -48 hlineto
            -13 -7 -8 -15 hvcurveto
            -6 vlineto
            -103 57 -32 90 vhcurveto
            88 hlineto
            80 48 44 78 hvcurveto
            47 vlineto
            77 -48 37 -80 vhcurveto
            -91 hlineto
            return
          </CharString>
          <CharString index="123">
            -34 -16 8 38 hvcurveto
            8 vlineto
            37 16 9 34 vhcurveto
            145 hlineto
            26 20 12 31 hvcurveto
            105 vlineto
            7 4 5 7 vhcurveto
            137 hlineto
            13 6 5 13 hvcurveto
            44 vlineto
            12 -6 6 -13 vhcurveto
            return
          </CharString>
          <CharString index="124">
            15 13 13 21 0 30 rrcurveto
            73 vlineto
            8 4 3 9 vhcurveto
            61 hlineto
            13 7 6 14 hvcurveto
            42 vlineto
            12 -7 6 -13 vhcurveto
            return
          </CharString>
          <CharString index="125">
            -13 6 -7 13 vhcurveto
            34 hlineto
            32 15 -17 -30 hvcurveto
            -90 vlineto
            -55 -24 -23 -55 vhcurveto
            -116 hlineto
            -52 -22 17 51 hvcurveto
            26 vlineto
            return
          </CharString>
          <CharString index="126">
            40 18 22 43 vhcurveto
            28 hlineto
            14 6 6 11 hvcurveto
            43 vlineto
            13 -6 6 -14 vhcurveto
            -35 hlineto
            -35 -19 19 35 hvcurveto
            68 vlineto
            41 18 23 42 vhcurveto
            177 hlineto
            9 -1 3 -3 0 -8 rrcurveto
            -87 vlineto
            0 -10 -1 -9 -3 -8 rrcurveto
            return
          </CharString>
          <CharString index="127">
            -5 1 -5 0 -6 0 rrcurveto
            return
          </CharString>
          <CharString index="128">
            127 hlineto
            7 4 -5 -7 hvcurveto
            -317 vlineto
            -14 6 -5 13 vhcurveto
            52 hlineto
            13 7 5 14 hvcurveto
            512 vlineto
            7 3 5 8 vhcurveto
            65 hlineto
            15 5 6 13 hvcurveto
            43 vlineto
            12 -5 6 -15 vhcurveto
            -565 hlineto
            -13 -6 -6 -12 hvcurveto
            -43 vlineto
            -13 6 -6 13 vhcurveto
            388 hlineto
            7 -1 3 -4 0 -7 rrcurveto
            -87 vlineto
            -8 -4 -4 -7 vhcurveto
            -297 hlineto
            -13 -6 -6 -11 hvcurveto
            -49 vlineto
            -12 6 -6 14 vhcurveto
            38 hlineto
            45 32 -20 -57 hvcurveto
            -57 vlineto
            -49 -15 -29 -61 vhcurveto
            -79 hlineto
            -14 -6 -6 -13 hvcurveto
            -43 vlineto
            -12 6 -7 14 vhcurveto
            106 hlineto
            88 51 56 96 hvcurveto
            70 vlineto
            0 33 -13 23 -23 11 rrcurveto
            return
          </CharString>
          <CharString index="129">
            12 -21 24 -9 35 0 rrcurveto
            39 hlineto
            81 48 45 78 hvcurveto
            42 vlineto
            0 15 -4 11 -6 9 rrcurveto
            103 hlineto
            8 3 -5 -7 hvcurveto
            -184 vlineto
            return
          </CharString>
          <CharString index="130">
            -105 -55 -62 -97 hvcurveto
            -85 vlineto
            -97 55 -64 105 vhcurveto
            71 hlineto
            101 58 54 103 hvcurveto
            18 vlineto
            15 -6 8 -14 vhcurveto
            -47 hlineto
            -11 -7 -8 -15 hvcurveto
            -18 vlineto
            -56 -29 -20 -53 vhcurveto
            -53 hlineto
            -55 -27 24 54 hvcurveto
            87 vlineto
            54 27 24 55 vhcurveto
            124 hlineto
            return
          </CharString>
          <CharString index="131">
            26 20 13 31 hvcurveto
            129 vlineto
            7 3 5 8 vhcurveto
            77 hlineto
            13 7 6 13 hvcurveto
            43 vlineto
            12 -7 6 -13 vhcurveto
            -482 hlineto
            -14 -5 -6 -12 hvcurveto
            -43 vlineto
            -13 5 -6 14 vhcurveto
            293 hlineto
            7 4 -5 -7 hvcurveto
            -80 vlineto
            -8 -4 -4 -7 vhcurveto
            return
          </CharString>
          <CharString index="132">
            53 25 -30 -50 hvcurveto
            -80 vlineto
            -54 -28 -29 -54 vhcurveto
            -55 hlineto
            -55 -28 29 54 hvcurveto
            80 vlineto
            54 25 26 55 vhcurveto
            return
          </CharString>
          <CharString index="133">
            13 6 6 13 hvcurveto
            42 vlineto
            13 -6 6 -13 vhcurveto
            -514 hlineto
            -14 -5 -6 -13 hvcurveto
            -42 vlineto
            -13 5 -6 14 vhcurveto
            304 hlineto
            return
          </CharString>
          <CharString index="134">
            7 -1 3 -4 0 -7 rrcurveto
            -36 vlineto
            -42 -22 -14 -36 vhcurveto
            -42 hlineto
            -101 -59 -59 -100 hvcurveto
            -86 vlineto
            -102 58 -59 101 vhcurveto
            80 hlineto
            return
          </CharString>
          <CharString index="135">
            98 61 57 98 hvcurveto
            110 vlineto
            0 63 -35 40 -49 9 rrcurveto
            4 vlineto
            return
          </CharString>
          <CharString index="136">
            27 10 10 23 0 30 rrcurveto
            54 vlineto
            7 3 5 8 vhcurveto
            return
          </CharString>
          <CharString index="137">
            -13 -6 -6 -12 hvcurveto
            -44 vlineto
            -13 6 -5 13 vhcurveto
            291 hlineto
            7 3 -5 -7 hvcurveto
            -56 vlineto
            -8 -4 -4 -7 vhcurveto
            -97 hlineto
            -80 -52 -38 -79 hvcurveto
            -25 vlineto
            -81 43 -33 89 vhcurveto
            84 hlineto
            return
          </CharString>
          <CharString index="138">
            34 17 -11 -38 hvcurveto
            -29 vlineto
            -37 -18 -13 -33 vhcurveto
            -65 hlineto
            -47 -23 7 49 hvcurveto
            6 vlineto
            15 -7 8 -11 vhcurveto
            -48 hlineto
            -13 -7 -8 -15 hvcurveto
            -6 vlineto
            -103 60 -32 87 vhcurveto
            87 hlineto
            79 50 44 78 hvcurveto
            46 vlineto
            76 -49 37 -80 vhcurveto
            -90 hlineto
            return
          </CharString>
          <CharString index="139">
            -34 -16 9 38 hvcurveto
            9 vlineto
            37 16 9 34 vhcurveto
            145 hlineto
            26 20 12 31 hvcurveto
            105 vlineto
            7 4 5 7 vhcurveto
            72 hlineto
            13 7 5 13 hvcurveto
            44 vlineto
            12 -7 6 -13 vhcurveto
            return
          </CharString>
          <CharString index="140">
            99 47 50 89 hvcurveto
            20 vlineto
            71 -34 40 -85 -80 -26 -43 -63 vhcurveto
            -16 vlineto
            -16 6 -6 21 vhcurveto
            30 hlineto
            12 7 6 14 hvcurveto
            15 vlineto
            25 6 15 27 30 5 -15 -25 vhcurveto
            -18 vlineto
            -45 -18 -20 -48 vhcurveto
            -80 hlineto
            -55 -24 23 54 hvcurveto
            108 vlineto
            53 24 27 51 vhcurveto
            153 hlineto
            return
          </CharString>
          <CharString index="141">
            23 16 14 26 hvcurveto
            114 vlineto
            7 4 5 7 vhcurveto
            71 hlineto
            13 6 6 13 hvcurveto
            43 vlineto
            12 -6 6 -13 vhcurveto
            -496 hlineto
            -14 -5 -6 -12 hvcurveto
            -43 vlineto
            -13 5 -6 14 vhcurveto
            314 hlineto
            7 3 -5 -7 hvcurveto
            -64 vlineto
            -7 -3 -5 -7 vhcurveto
            -101 hlineto
            -100 -54 -55 -102 hvcurveto
            -105 vlineto
            -97 52 -62 105 vhcurveto
            return
          </CharString>
          <CharString index="142">
            7 4 -5 -7 hvcurveto
            -224 vlineto
            -50 -26 -19 -40 vhcurveto
            -10 hlineto
            -42 -24 20 49 hvcurveto
            224 vlineto
            7 3 5 8 vhcurveto
            return
          </CharString>
          <CharString index="143">
            -77 -55 -44 -71 hvcurveto
            -51 vlineto
            -15 6 -5 12 vhcurveto
            49 hlineto
            11 6 5 15 hvcurveto
            42 vlineto
            29 18 17 33 31 20 -16 -31 vhcurveto
            -55 vlineto
            -40 -19 -25 -58 vhcurveto
            -118 hlineto
            return
          </CharString>
          <CharString index="144">
            -101 -53 -55 -102 hvcurveto
            -75 vlineto
            -97 51 -62 106 vhcurveto
            53 hlineto
            return
          </CharString>
          <CharString index="145">
            35 0 25 11 11 21 rrcurveto
            4 -84 hlineto
            -14 7 -5 12 vhcurveto
            51 hlineto
            13 6 5 14 hvcurveto
            235 vlineto
            14 -6 5 -13 vhcurveto
            -51 hlineto
            -12 -7 -5 -14 hvcurveto
            -42 vlineto
            return
          </CharString>
          <CharString index="146">
            -41 -22 -19 -37 vhcurveto
            -56 hlineto
            -54 -25 22 54 hvcurveto
            73 vlineto
            53 24 27 51 vhcurveto
            159 hlineto
            23 17 14 27 hvcurveto
            109 vlineto
            7 4 5 7 vhcurveto
            63 hlineto
            13 6 6 13 hvcurveto
            43 vlineto
            12 -6 6 -13 vhcurveto
            -495 hlineto
            -14 -5 -6 -12 hvcurveto
            -43 vlineto
            -13 5 -6 14 vhcurveto
            321 hlineto
            7 3 -5 -7 hvcurveto
            -57 vlineto
            -7 -3 -5 -7 vhcurveto
            return
          </CharString>
          <CharString index="147">
            -53 -23 26 52 hvcurveto
            209 vlineto
            7 3 5 8 vhcurveto
            164 hlineto
            8 3 -5 -7 hvcurveto
            -207 vlineto
            -46 -24 -34 -59 vhcurveto
            return
          </CharString>
          <CharString index="148">
            -93 60 -58 92 vhcurveto
            21 hlineto
            48 0 30 17 15 25 rrcurveto
            4 -187 hlineto
            -14 6 -5 13 vhcurveto
            52 hlineto
            13 6 6 14 hvcurveto
            return
          </CharString>
          <CharString index="149">
            -53 -23 26 52 hvcurveto
            206 vlineto
            7 3 5 8 vhcurveto
            157 hlineto
            7 4 -5 -7 hvcurveto
            -206 vlineto
            -45 -25 -33 -58 vhcurveto
            return
          </CharString>
          <CharString index="150">
            -57 -24 29 54 hvcurveto
            73 vlineto
            0 12 1 11 3 10 rrcurveto
            181 -172 rlineto
            -14 -11 -19 -6 -25 0 rrcurveto
            return
          </CharString>
          <CharString index="151">
            -8 -3 -4 -8 vhcurveto
            -159 hlineto
            -7 -4 4 8 hvcurveto
            186 vlineto
            7 3 5 8 vhcurveto
            161 hlineto
            7 -1 2 -4 0 -7 rrcurveto
            return
          </CharString>
          <CharString index="152">
            8 3 -5 -7 hvcurveto
            -253 vlineto
            -68 -34 -45 -82 vhcurveto
            -44 hlineto
            -77 -35 39 67 hvcurveto
            45 11 vlineto
            90 48 40 87 hvcurveto
            21 vlineto
            return
          </CharString>
          <CharString index="153">
            0 39 -16 25 -19 10 rrcurveto
            5 vlineto
            return
          </CharString>
          <CharString index="154">
            -50 -19 -16 -50 vhcurveto
            -63 hlineto
            -14 -5 -7 -12 hvcurveto
            -105 vlineto
            -97 63 -90 128 vhcurveto
            52 hlineto
            56 0 40 20 18 33 rrcurveto
            4 -118 hlineto
            -14 7 -5 12 vhcurveto
            53 hlineto
            13 6 5 14 hvcurveto
            512 vlineto
            7 4 5 7 vhcurveto
            66 hlineto
            14 5 6 13 hvcurveto
            43 vlineto
            12 -5 6 -14 vhcurveto
            -585 hlineto
            -13 -6 -5 -13 hvcurveto
            -43 vlineto
            -13 6 -6 13 vhcurveto
            138 hlineto
            49 20 -22 -46 hvcurveto
            return
          </CharString>
          <CharString index="155">
            -41 -21 -16 -32 vhcurveto
            -76 hlineto
            -14 -9 -9 -13 hvcurveto
            0 -57 25 -33 134 -209 rlineto
            3 -5 6 -7 10 0 rrcurveto
            59 hlineto
            10 7 8 10 hvcurveto
            0 4 -2 5 -3 4 rrcurveto
            -144 223 19 0 rlineto
            72 47 49 82 hvcurveto
            146 vlineto
            7 3 5 8 vhcurveto
            57 hlineto
            15 4 6 13 hvcurveto
            43 vlineto
            12 -4 6 -15 vhcurveto
            -348 hlineto
            -13 -6 -6 -12 hvcurveto
            -43 vlineto
            -13 6 -6 13 vhcurveto
            179 hlineto
            7 -1 3 -4 0 -7 rrcurveto
            return
          </CharString>
          <CharString index="156">
            -11 20 -24 11 -37 0 -57 0 -29 -25 -12 -35 rrcurveto
            return
          </CharString>
          <CharString index="157">
            -13 -6 -6 -12 hvcurveto
            -43 vlineto
            -13 6 -6 13 vhcurveto
            410 hlineto
            7 4 -5 -7 hvcurveto
            -80 vlineto
            0 -7 -3 -3 -7 -2 -32 -7 -24 -14 -18 -21 -24 30 -39 16 -54 0 rrcurveto
            -8 hlineto
            -102 -56 -57 -105 hvcurveto
            -80 vlineto
            -105 56 -57 102 vhcurveto
            8 hlineto
            53 0 39 15 24 30 24 -30 38 -15 53 0 rrcurveto
            11 hlineto
            102 56 57 105 hvcurveto
            80 vlineto
            0 86 -35 50 -71 19 -8 3 -3 3 0 7 rrcurveto
            82 vlineto
            8 4 4 7 vhcurveto
            164 hlineto
            13 6 6 13 hvcurveto
            43 vlineto
            12 -6 6 -13 vhcurveto
            return
          </CharString>
          <CharString index="158">
            -53 -21 -29 -52 vhcurveto
            -6 hlineto
            -52 -20 29 53 hvcurveto
            80 vlineto
            53 20 29 52 vhcurveto
            6 hlineto
            52 21 -29 -53 hvcurveto
            return
          </CharString>
          <CharString index="159">
            -53 -21 -29 -51 vhcurveto
            -7 hlineto
            -51 -21 29 53 hvcurveto
            80 vlineto
            53 21 29 51 vhcurveto
            7 hlineto
            51 21 -29 -53 hvcurveto
            return
          </CharString>
          <CharString index="160">
            -12 -6 -6 -12 hvcurveto
            -53 vlineto
            -13 6 -6 12 vhcurveto
            55 hlineto
            12 5 6 13 hvcurveto
            53 vlineto
            12 -6 6 -11 vhcurveto
            return
          </CharString>
          <CharString index="161">
            -14 6 -5 13 vhcurveto
            52 hlineto
            13 6 5 14 hvcurveto
            512 vlineto
            7 4 5 8 vhcurveto
            65 hlineto
            15 4 6 13 hvcurveto
            43 vlineto
            12 -4 6 -15 vhcurveto
            -131 hlineto
            -23 -13 -16 -22 hvcurveto
            return
          </CharString>
          <CharString index="162">
            41 hlineto
            111 54 57 98 hvcurveto
            85 vlineto
            94 -55 45 -90 -95 -51 -45 -94 vhcurveto
            -48 vlineto
            -13 7 -6 13 vhcurveto
            51 hlineto
            12 7 6 13 hvcurveto
            52 vlineto
            40 14 18 42 42 14 -19 -40 vhcurveto
            -90 vlineto
            -52 -32 -21 -50 vhcurveto
            -116 hlineto
            -15 -9 -10 -13 hvcurveto
            0 -57 27 -33 143 -200 rlineto
            3 -5 6 -7 9 0 rrcurveto
            62 hlineto
            10 7 8 9 hvcurveto
            0 4 -2 6 -3 4 rrcurveto
            return
          </CharString>
          <CharString index="163">
            -195 213 184 0 rlineto
            8 3 -5 -7 hvcurveto
            return
          </CharString>
          <CharString index="164">
            -53 -23 26 52 hvcurveto
            0 155 181 -199 rlineto
            -13 -22 -23 -12 -35 0 rrcurveto
            return
          </CharString>
          <CharString index="165">
            37 14 -15 -37 hvcurveto
            -18 vlineto
            -14 6 -5 13 vhcurveto
            48 hlineto
            13 7 5 14 hvcurveto
            33 vlineto
            70 -44 39 -77 vhcurveto
            -88 hlineto
            -40 -18 15 42 39 18 15 42 hvcurveto
            145 hlineto
            return
          </CharString>
          <CharString index="166">
            12 -6 6 -11 vhcurveto
            -55 hlineto
            -12 -6 -6 -12 hvcurveto
            -53 vlineto
            -13 6 -6 12 vhcurveto
            55 hlineto
            12 5 6 13 hvcurveto
            return
          </CharString>
          <CharString index="167">
            12 7 5 14 hvcurveto
            512 vlineto
            7 3 5 8 vhcurveto
            65 hlineto
            15 5 6 13 hvcurveto
            43 vlineto
            12 -5 6 -15 vhcurveto
            -243 hlineto
            -14 -6 -6 -12 hvcurveto
            -43 vlineto
            -13 6 -6 14 vhcurveto
            65 hlineto
            8 3 -5 -7 hvcurveto
            -512 vlineto
            -14 7 -5 12 vhcurveto
            return
          </CharString>
          <CharString index="168">
            -14 0 -4 5 -8 12 rrcurveto
            -143 230 rlineto
            -6 11 -8 4 -12 0 rrcurveto
            -61 hlineto
            -10 -5 -7 -8 hvcurveto
            0 -5 1 -5 3 -5 rrcurveto
            56 -83 rlineto
            54 -80 45 -52 59 -55 rrcurveto
            58 38 hlineto
            return
          </CharString>
          <CharString index="169">
            -8 -3 4 8 hvcurveto
            0 63 -40 22 -60 28 rrcurveto
            -57 28 rlineto
            -34 16 -22 14 0 40 rrcurveto
            20 vlineto
            14 -5 5 -14 vhcurveto
            -50 hlineto
            -14 -6 -5 -14 hvcurveto
            -27 vlineto
            0 -58 27 -37 61 -30 rrcurveto
            53 -27 rlineto
            62 -31 8 -4 0 -19 rrcurveto
            -7 -3 -3 -8 vhcurveto
            -65 hlineto
            -14 -6 -6 -12 hvcurveto
            -43 vlineto
            -13 6 -6 14 vhcurveto
            65 hlineto
            8 3 -5 -7 hvcurveto
            -512 vlineto
            -14 7 -5 12 vhcurveto
            53 hlineto
            12 7 5 14 hvcurveto
            512 vlineto
            7 3 5 8 vhcurveto
            65 hlineto
            15 5 6 13 hvcurveto
            43 vlineto
            12 -5 6 -15 vhcurveto
            return
          </CharString>
          <CharString index="170">
            -15 0 -4 5 -7 12 rrcurveto
            -143 230 rlineto
            -7 11 -8 4 -12 0 rrcurveto
            -61 hlineto
            -9 -6 -7 -8 hvcurveto
            0 -5 1 -5 4 -5 rrcurveto
            55 -83 rlineto
            49 -72 36 -38 32 -35 rrcurveto
            -4 -77 vlineto
            -14 -6 -6 -12 hvcurveto
            -43 vlineto
            -13 6 -6 14 vhcurveto
            65 hlineto
            8 3 -5 -7 hvcurveto
            -512 vlineto
            -14 7 -5 12 vhcurveto
            53 hlineto
            12 7 5 14 hvcurveto
            512 vlineto
            7 3 5 8 vhcurveto
            65 hlineto
            15 5 6 13 hvcurveto
            43 vlineto
            12 -5 6 -15 vhcurveto
            return
          </CharString>
          <CharString index="171">
            -7 -3 4 8 hvcurveto
            231 vlineto
            14 -7 5 -12 vhcurveto
            -49 hlineto
            -13 -6 -5 -14 hvcurveto
            -21 vlineto
            0 -75 14 -73 25 -56 rrcurveto
            -4 -1 -134 229 rlineto
            -6 10 -9 6 -20 0 rrcurveto
            -49 hlineto
            -11 -5 -7 -8 hvcurveto
            0 -5 1 -5 3 -5 rrcurveto
            58 -83 rlineto
            30 -43 53 -65 44 -37 rrcurveto
            -4 -70 vlineto
            -14 -6 -6 -12 hvcurveto
            -43 vlineto
            -13 6 -6 14 vhcurveto
            65 hlineto
            8 3 -5 -7 hvcurveto
            -512 vlineto
            -14 7 -5 12 vhcurveto
            53 hlineto
            12 7 5 14 hvcurveto
            512 vlineto
            7 3 5 8 vhcurveto
            65 hlineto
            15 5 6 13 hvcurveto
            43 vlineto
            12 -5 6 -15 vhcurveto
            return
          </CharString>
          <CharString index="172">
            -10 -5 -7 -8 hvcurveto
            0 -3 1 -3 2 -3 rrcurveto
            88 -143 rlineto
            5 -7 7 -7 10 0 rrcurveto
            58 hlineto
            10 7 8 10 hvcurveto
            0 4 -2 5 -3 4 rrcurveto
            -91 133 rlineto
            -8 11 -8 6 -12 0 rrcurveto
            return
          </CharString>
          <CharString index="173">
            -14 7 -5 12 vhcurveto
            53 hlineto
            13 6 5 14 hvcurveto
            585 vlineto
            14 -6 5 -13 vhcurveto
            -53 hlineto
            -12 -7 -5 -14 hvcurveto
            return
          </CharString>
          <CharString index="174">
            -12 6 -4 10 vhcurveto
            57 hlineto
            11 5 5 12 hvcurveto
            return
          </CharString>
          <CharString index="175">
            206 vlineto
            12 -6 4 -8 vhcurveto
            -5 0 -6 -3 -3 -6 rrcurveto
            -43 -97 rlineto
            return
          </CharString>
          <CharString index="176">
            12 -5 4 -11 vhcurveto
            -57 hlineto
            -11 -5 -5 -12 hvcurveto
            return
          </CharString>
          <CharString index="177">
            -206 vlineto
            -12 6 -4 7 vhcurveto
            7 0 5 4 3 5 rrcurveto
            43 98 rlineto
            return
          </CharString>
          <CharString index="178">
            -15 -4 -6 -13 hvcurveto
            -39 vlineto
            -12 4 -7 15 vhcurveto
            371 hlineto
            15 4 7 12 hvcurveto
            39 vlineto
            13 -4 6 -15 vhcurveto
            return
          </CharString>
          <CharString index="179">
            207 196 -207 hlineto
            return
          </CharString>
          <CharString index="180">
            43 0 19 -17 12 -18 5 -7 4 -6 7 0 5 0 3 1 8 6 rrcurveto
            27 21 rlineto
            9 6 4 6 0 8 0 4 -2 5 -1 3 -23 46 -42 23 -62 0 rrcurveto
            -25 hlineto
            -45 0 -32 -17 -13 -25 rrcurveto
            -4 104 hlineto
            7 3 5 8 vhcurveto
            221 hlineto
            13 6 6 13 hvcurveto
            43 vlineto
            12 -6 6 -13 vhcurveto
            -646 hlineto
            -13 -6 -6 -12 hvcurveto
            -43 vlineto
            -13 6 -6 13 vhcurveto
            314 hlineto
            7 4 -5 -7 hvcurveto
            -290 vlineto
            -48 -27 -27 -49 vhcurveto
            -28 hlineto
            -54 -31 29 54 hvcurveto
            57 vlineto
            54 28 28 54 vhcurveto
            29 hlineto
            14 6 7 12 hvcurveto
            43 vlineto
            13 -6 6 -14 vhcurveto
            -41 hlineto
            -102 0 -57 -60 -1 -99 rrcurveto
            -66 vlineto
            -100 60 -59 100 vhcurveto
            25 hlineto
            44 0 31 16 15 26 rrcurveto
            4 -107 hlineto
            -14 6 -6 12 vhcurveto
            51 hlineto
            13 7 6 14 hvcurveto
            294 vlineto
            47 26 27 50 vhcurveto
            return
          </CharString>
          <CharString index="181">
            59 0 42 30 25 39 1 3 3 5 0 5 0 8 -4 5 -8 6 rrcurveto
            -17 14 rlineto
            -8 6 -3 1 -5 0 -6 0 -4 -4 -5 -5 -15 -17 -15 -18 -46 0 rrcurveto
            -6 hlineto
            -52 -21 22 55 hvcurveto
            28 vlineto
            53 18 23 52 vhcurveto
            10 hlineto
            14 7 5 13 hvcurveto
            42 vlineto
            13 -7 7 -14 vhcurveto
            -18 hlineto
            -100 -50 -59 -86 hvcurveto
            -45 vlineto
            -89 45 -60 94 vhcurveto
            return
          </CharString>
          <CharString index="182">
            -13 -6 -6 -12 hvcurveto
            -43 vlineto
            -13 6 -6 13 vhcurveto
            179 hlineto
            7 -1 3 -4 0 -7 rrcurveto
            -141 vlineto
            -41 -21 -16 -32 vhcurveto
            -76 hlineto
            -14 -9 -9 -13 hvcurveto
            0 -57 25 -33 134 -209 rlineto
            4 -5 6 -7 10 0 rrcurveto
            57 hlineto
            11 6 8 10 hvcurveto
            0 4 -2 6 -3 4 rrcurveto
            -144 222 20 0 rlineto
            72 2 45 47 0 82 rrcurveto
            146 vlineto
            7 4 5 7 vhcurveto
            296 hlineto
            15 5 6 13 hvcurveto
            43 vlineto
            12 -5 6 -15 vhcurveto
            return
          </CharString>
          <CharString index="183">
            15 5 6 13 hvcurveto
            43 vlineto
            12 -5 6 -15 vhcurveto
            -286 hlineto
            -13 -6 -6 -12 hvcurveto
            -43 vlineto
            -13 6 -6 13 vhcurveto
            123 hlineto
            7 -1 3 -4 0 -7 rrcurveto
            -171 vlineto
            -57 -28 -22 -50 vhcurveto
            -8 hlineto
            -13 -6 -6 -13 hvcurveto
            -45 vlineto
            -13 6 -6 13 vhcurveto
            22 hlineto
            98 57 53 106 hvcurveto
            174 vlineto
            7 3 5 8 vhcurveto
            return
          </CharString>
          <CharString index="184">
            13 1 7 5 0 14 rrcurveto
            45 vlineto
            13 -7 6 -13 vhcurveto
            -298 hlineto
            -13 -6 -6 -11 hvcurveto
            -49 vlineto
            -12 6 -6 14 vhcurveto
            38 hlineto
            45 32 -20 -57 hvcurveto
            -57 vlineto
            -49 -15 -29 -61 vhcurveto
            -79 hlineto
            -14 -6 -6 -13 hvcurveto
            -43 vlineto
            -12 6 -7 14 vhcurveto
            106 hlineto
            88 51 56 96 hvcurveto
            70 vlineto
            0 33 -13 23 -23 11 rrcurveto
            4 vlineto
            return
          </CharString>
          <CharString index="185">
            13 7 6 14 hvcurveto
            42 vlineto
            12 -7 6 -13 vhcurveto
            -388 hlineto
            -13 -6 -6 -12 hvcurveto
            -43 vlineto
            -13 6 -6 13 vhcurveto
            return
          </CharString>
          <CharString index="186">
            35 14 -15 -33 hvcurveto
            -24 vlineto
            -36 -16 -14 -36 vhcurveto
            -43 hlineto
            -38 -22 15 41 hvcurveto
            12 vlineto
            14 -6 5 -13 vhcurveto
            -50 hlineto
            -13 -7 -5 -14 hvcurveto
            -201 vlineto
            -14 7 -5 13 vhcurveto
            50 hlineto
            13 6 5 14 hvcurveto
            return
          </CharString>
          <CharString index="187">
            15 5 6 13 hvcurveto
            43 vlineto
            12 -5 6 -15 vhcurveto
            -449 hlineto
            -13 -6 -6 -12 hvcurveto
            -43 vlineto
            -13 6 -6 13 vhcurveto
            56 hlineto
            8 3 -5 -7 hvcurveto
            -221 vlineto
            -101 57 -51 93 vhcurveto
            20 hlineto
            95 56 50 102 hvcurveto
            221 vlineto
            0 7 3 4 7 1 rrcurveto
            return
          </CharString>
          <CharString index="188">
            -76 -26 39 61 hvcurveto
            32 52 vlineto
            103 55 46 95 hvcurveto
            62 vlineto
            87 -63 36 -78 vhcurveto
            return
          </CharString>
          <CharString index="189">
            -13 -6 -6 -12 hvcurveto
            -43 vlineto
            -13 6 -6 13 vhcurveto
            321 hlineto
            15 4 6 13 hvcurveto
            43 vlineto
            12 -4 6 -15 vhcurveto
            return
          </CharString>
          <CharString index="190">
            15 4 5 14 hvcurveto
            44 vlineto
            12 -4 6 -15 vhcurveto
            -173 hlineto
            -70 -44 -43 -65 hvcurveto
            0 -25 3 -25 7 -19 7 -16 10 -11 18 0 rrcurveto
            38 hlineto
            12 6 8 10 hvcurveto
            0 5 -1 4 -2 6 -4 14 -4 14 0 17 rrcurveto
            34 20 11 36 vhcurveto
            return
          </CharString>
          <CharString index="191">
            40 0 20 -14 12 -18 7 -8 3 -8 8 0 5 0 3 1 8 6 rrcurveto
            27 21 rlineto
            9 6 4 6 0 8 0 4 -2 5 -1 3 -23 46 -42 23 -62 0 rrcurveto
            -25 hlineto
            -44 0 -32 -17 -14 -25 rrcurveto
            -4 111 hlineto
            7 4 5 7 vhcurveto
            226 hlineto
            13 6 6 13 hvcurveto
            43 vlineto
            12 -6 6 -13 vhcurveto
            -664 hlineto
            -13 -6 -6 -12 hvcurveto
            -42 vlineto
            -14 6 -6 13 vhcurveto
            58 hlineto
            6 -1 3 -5 0 -6 rrcurveto
            -216 vlineto
            -93 60 -58 92 vhcurveto
            21 hlineto
            48 0 30 17 15 25 rrcurveto
            4 -187 hlineto
            -14 6 -5 13 vhcurveto
            52 hlineto
            13 6 6 14 hvcurveto
            287 vlineto
            47 26 27 50 vhcurveto
            return
          </CharString>
          <CharString index="192">
            -57 -24 29 54 hvcurveto
            73 vlineto
            0 10 1 9 2 9 rrcurveto
            180 -170 rlineto
            -13 -9 -18 -5 -23 0 rrcurveto
            return
          </CharString>
          <CharString index="193">
            -77 -35 39 67 hvcurveto
            45 11 vlineto
            90 2 48 38 0 87 rrcurveto
            21 vlineto
            return
          </CharString>
          <CharString index="194">
            0 39 -16 25 -19 10 rrcurveto
            5 163 vlineto
            15 4 6 13 hvcurveto
            43 vlineto
            12 -4 6 -15 vhcurveto
            -422 hlineto
            -13 -6 -5 -13 hvcurveto
            -43 vlineto
            -13 6 -6 13 vhcurveto
            138 hlineto
            return
          </CharString>
          <CharString index="195">
            49 20 -22 -46 hvcurveto
            -14 vlineto
            -50 -19 -16 -50 vhcurveto
            -63 hlineto
            -14 -5 -7 -12 hvcurveto
            -105 vlineto
            -97 63 -90 128 vhcurveto
            52 hlineto
            86 0 64 58 24 40 2 2 3 5 0 5 0 8 -4 5 -9 7 rrcurveto
            -20 16 rlineto
            -8 6 -3 1 -5 0 -6 0 -6 -4 -6 -6 -24 -23 -28 -39 -58 0 rrcurveto
            return
          </CharString>
          <CharString index="196">
            -53 -23 26 52 hvcurveto
            0 155 183 -201 rlineto
            -18 -17 -22 -15 -33 0 rrcurveto
            return
          </CharString>
          <CharString index="197">
            13 -7 5 -11 vhcurveto
            -41 hlineto
            -12 -6 -5 -13 hvcurveto
            -43 vlineto
            -13 6 -6 12 vhcurveto
            41 hlineto
            12 6 6 13 hvcurveto
            return
          </CharString>
          <CharString index="198">
            26 20 13 31 hvcurveto
            99 vlineto
            7 3 5 8 vhcurveto
            61 hlineto
            14 6 5 13 hvcurveto
            44 vlineto
            12 -6 6 -14 vhcurveto
            return
          </CharString>
          <CharString index="199">
            -12 -6 -5 -13 hvcurveto
            -43 vlineto
            -13 6 -6 12 vhcurveto
            41 hlineto
            12 5 6 13 hvcurveto
            43 vlineto
            13 -6 5 -11 vhcurveto
            return
          </CharString>
          <CharString index="200">
            63 vlineto
            51 27 22 48 vhcurveto
            16 hlineto
            13 6 7 12 hvcurveto
            42 vlineto
            13 -6 6 -13 vhcurveto
            -30 hlineto
            -97 -55 -53 -98 hvcurveto
            -65 vlineto
            return
          </CharString>
          <CharString index="201">
            13 -7 5 -11 vhcurveto
            -63 hlineto
            -12 -6 -5 -13 hvcurveto
            -59 vlineto
            -12 6 -7 12 vhcurveto
            63 hlineto
            12 6 7 12 hvcurveto
            return
          </CharString>
          <CharString index="202">
            54 24 28 49 vhcurveto
            30 hlineto
            13 7 6 13 hvcurveto
            42 vlineto
            12 -7 7 -13 vhcurveto
            -35 hlineto
            -54 0 -31 -25 -18 -36 -16 35 -32 27 -84 0 rrcurveto
            -112 -54 -58 -103 hvcurveto
            -20 vlineto
            -14 7 -6 13 vhcurveto
            53 hlineto
            11 6 6 14 hvcurveto
            18 vlineto
            59 23 21 56 52 21 -19 -58 vhcurveto
            -92 vlineto
            -7 -2 -5 -8 vhcurveto
            -66 hlineto
            -14 -6 -6 -12 hvcurveto
            -43 vlineto
            -13 6 -6 14 vhcurveto
            65 hlineto
            8 3 -5 -7 hvcurveto
            -512 vlineto
            -14 7 -5 12 vhcurveto
            53 hlineto
            12 7 5 14 hvcurveto
            512 vlineto
            7 3 5 8 vhcurveto
            65 hlineto
            15 5 6 13 hvcurveto
            43 vlineto
            12 -5 6 -15 vhcurveto
            -66 hlineto
            -7 -3 5 7 hvcurveto
            return
          </CharString>
          <CharString index="203">
            -12 -5 -5 -13 hvcurveto
            -59 vlineto
            -12 5 -7 12 vhcurveto
            63 hlineto
            12 6 7 12 hvcurveto
            59 vlineto
            13 -7 5 -11 vhcurveto
            return
          </CharString>
          <CharString index="204">
            -85 141 rlineto
            -7 11 -8 4 -11 0 rrcurveto
            -62 hlineto
            -10 -6 -7 -8 hvcurveto
            0 -5 2 -5 3 -5 rrcurveto
            56 -83 rlineto
            41 -62 40 -49 74 -76 rrcurveto
            58 38 hlineto
            -7 -3 4 6 hvcurveto
            96 vlineto
            54 25 23 46 vhcurveto
            20 hlineto
            13 6 6 13 hvcurveto
            42 vlineto
            12 -6 7 -13 vhcurveto
            -32 hlineto
            -78 -52 -40 -83 hvcurveto
            -34 vlineto
            return
          </CharString>
          <CharString index="205">
            -7 -2 4 6 hvcurveto
            43 vlineto
            86 29 44 65 vhcurveto
            13 hlineto
            13 6 7 12 hvcurveto
            42 vlineto
            12 -6 7 -13 vhcurveto
            -16 hlineto
            -67 0 -54 -46 -6 -107 rrcurveto
            -4 133 hlineto
            14 -7 5 -12 vhcurveto
            -48 hlineto
            -12 -7 -5 -14 hvcurveto
            0 -3 0 -16 1 -4 4 -75 41 -76 25 -54 rrcurveto
            -4 -1 -139 232 rlineto
            -6 10 -9 6 -19 0 rrcurveto
            -40 hlineto
            -11 -6 -7 -8 hvcurveto
            0 -5 2 -5 3 -5 rrcurveto
            57 -83 rlineto
            38 -55 48 -61 62 -57 rrcurveto
            88 hlineto
            return
          </CharString>
          <CharString index="206">
            79 39 43 83 hvcurveto
            7 vlineto
            18 -8 9 -15 vhcurveto
            -36 hlineto
            -13 -10 -7 -18 hvcurveto
            -9 vlineto
            -36 -13 -15 -39 vhcurveto
            -83 hlineto
            -38 -14 15 36 hvcurveto
            9 vlineto
            18 -8 7 -13 vhcurveto
            -38 hlineto
            -16 -7 -9 -18 hvcurveto
            -7 vlineto
            -81 40 -45 79 vhcurveto
            return
          </CharString>
          <CharString index="207">
            8 3 -5 -7 hvcurveto
            -512 vlineto
            -14 7 -5 12 vhcurveto
            53 hlineto
            12 7 5 14 hvcurveto
            512 vlineto
            7 3 5 8 vhcurveto
            65 hlineto
            15 5 6 13 hvcurveto
            43 vlineto
            12 -5 6 -15 vhcurveto
            return
          </CharString>
          <CharString index="208">
            -62 -15 -26 -43 0 -78 rrcurveto
            -46 vlineto
            -94 48 -56 106 vhcurveto
            27 hlineto
            return
          </CharString>
          <CharString index="209">
            35 0 25 12 11 21 rrcurveto
            4 -85 hlineto
            -14 7 -4 12 vhcurveto
            52 hlineto
            12 7 4 14 hvcurveto
            222 vlineto
            14 -7 4 -12 vhcurveto
            -52 hlineto
            -12 -7 -4 -14 hvcurveto
            -28 vlineto
            return
          </CharString>
          <CharString index="210">
            -50 -14 28 48 48 14 27 50 51 14 -27 -48 hvcurveto
            return
          </CharString>
          <CharString index="211">
            -13 -7 -6 -12 hvcurveto
            -43 vlineto
            -13 7 -6 13 vhcurveto
            21 hlineto
            7 -1 3 -4 0 -7 rrcurveto
            -126 -137 4 vlineto
            19 13 7 31 0 31 rrcurveto
            return
          </CharString>
          <CharString index="212">
            93 -49 50 -100 -100 -51 -52 -91 vhcurveto
            0 -37 13 -30 23 -16 rrcurveto
            -4 vlineto
            return
          </CharString>
          <CharString index="213">
            -41 -22 -20 -37 vhcurveto
            -30 hlineto
            -54 -22 17 51 hvcurveto
            44 vlineto
            50 19 17 53 vhcurveto
            300 -156 hlineto
            -14 6 -5 13 vhcurveto
            52 hlineto
            13 7 5 14 hvcurveto
            72 vlineto
            return
          </CharString>
          <CharString index="214">
            48 14 27 50 51 14 -27 -48 -48 -14 -28 -51 vhcurveto
            return
          </CharString>
          <CharString index="215">
            -14 -5 -7 -12 hvcurveto
            return
          </CharString>
          <CharString index="216">
            -50 -19 -16 -50 vhcurveto
            return
          </CharString>
          <CharString index="217">
            -68 -34 -45 -82 vhcurveto
            -44 hlineto
            -77 -35 39 67 hvcurveto
            45 11 vlineto
            90 48 40 87 hvcurveto
            21 vlineto
            return
          </CharString>
          <CharString index="218">
            0 39 -16 25 -19 10 rrcurveto
            5 147 vlineto
            8 3 -5 -7 hvcurveto
            return
          </CharString>
          <CharString index="219">
            -97 63 -90 128 vhcurveto
            52 hlineto
            57 0 39 20 18 33 rrcurveto
            4 -118 hlineto
            -14 7 -5 13 vhcurveto
            52 hlineto
            13 6 5 14 hvcurveto
            512 vlineto
            7 4 5 7 vhcurveto
            66 hlineto
            15 4 6 13 hvcurveto
            43 vlineto
            12 -4 6 -15 vhcurveto
            return
          </CharString>
          <CharString index="220">
            0 39 -15 25 -20 10 rrcurveto
            5 147 vlineto
            8 3 -5 -7 hvcurveto
            return
          </CharString>
          <CharString index="221">
            -101 61 -58 99 vhcurveto
            33 hlineto
            44 0 36 16 14 26 rrcurveto
            4 -101 hlineto
            -14 7 -6 12 vhcurveto
            53 hlineto
            12 7 6 14 hvcurveto
            511 vlineto
            7 3 5 8 vhcurveto
            65 hlineto
            14 6 6 13 hvcurveto
            43 vlineto
            12 -6 6 -14 vhcurveto
            return
          </CharString>
          <CharString index="222">
            -81 -51 -38 -79 hvcurveto
            -15 vlineto
            -81 42 -40 90 vhcurveto
            63 hlineto
            38 14 -14 -34 hvcurveto
            -22 vlineto
            -36 -15 -14 -37 vhcurveto
            -49 hlineto
            return
          </CharString>
          <CharString index="223">
            -38 -22 15 41 hvcurveto
            12 vlineto
            14 -7 4 -12 vhcurveto
            -51 hlineto
            -13 -7 -4 -14 hvcurveto
            -201 vlineto
            -14 7 -5 13 vhcurveto
            51 hlineto
            12 7 5 14 hvcurveto
            84 4 vlineto
            return
          </CharString>
          <CharString index="224">
            0 39 -16 25 -20 10 rrcurveto
            5 148 vlineto
            7 4 -5 -7 hvcurveto
            return
          </CharString>
          <CharString index="225">
            34 20 11 36 vhcurveto
            132 hlineto
            8 3 -5 -8 hvcurveto
            -278 vlineto
            -14 7 -5 12 vhcurveto
            53 hlineto
            13 6 5 14 hvcurveto
            512 vlineto
            7 4 5 7 vhcurveto
            66 hlineto
            14 5 6 13 hvcurveto
            43 vlineto
            12 -5 6 -14 vhcurveto
            return
          </CharString>
          <CharString index="226">
            -13 -6 -6 -12 hvcurveto
            -42 vlineto
            -14 6 -6 13 vhcurveto
            86 -4 hlineto
            return
          </CharString>
          <CharString index="227">
            -7 -3 -5 -8 vhcurveto
            -164 hlineto
            -70 -44 -43 -65 hvcurveto
            0 -29 4 -32 14 -22 6 -8 9 -5 12 0 rrcurveto
            38 hlineto
            12 6 8 10 hvcurveto
            0 6 -2 6 -2 9 -3 12 -4 13 0 14 rrcurveto
            34 20 11 36 vhcurveto
            132 hlineto
            8 3 -5 -8 hvcurveto
            -278 vlineto
            -14 7 -5 12 vhcurveto
            53 hlineto
            13 6 5 14 hvcurveto
            512 vlineto
            7 4 5 7 vhcurveto
            66 hlineto
            14 5 6 13 hvcurveto
            43 vlineto
            12 -5 6 -14 vhcurveto
            return
          </CharString>
          <CharString index="228">
            -14 -5 -6 -12 hvcurveto
            -43 vlineto
            -13 5 -6 14 vhcurveto
            261 hlineto
            7 4 -5 -7 hvcurveto
            -47 vlineto
            -8 -4 -4 -8 vhcurveto
            -65 hlineto
            -80 -52 -38 -79 hvcurveto
            -15 vlineto
            -81 43 -40 89 vhcurveto
            58 hlineto
            return
          </CharString>
          <CharString index="229">
            -45 -25 -33 -58 vhcurveto
            -20 hlineto
            -53 -23 26 52 hvcurveto
            206 vlineto
            7 3 5 8 vhcurveto
            157 hlineto
            7 4 -5 -7 hvcurveto
            return
          </CharString>
          <CharString index="230">
            0 0 -29 -13 -39 -42 rrcurveto
            -52 -55 rlineto
            -3 -4 -2 -4 0 -3 rrcurveto
            -7 5 -6 10 vhcurveto
            61 hlineto
            12 0 7 4 5 5 19 18 27 27 28 32 34 36 18 23 18 20 rrcurveto
            4 -104 hlineto
            -14 6 -6 12 vhcurveto
            51 hlineto
            13 7 6 14 hvcurveto
            294 vlineto
            47 26 27 50 vhcurveto
            27 hlineto
            55 30 -28 -54 hvcurveto
            -57 vlineto
            -54 -27 -29 -55 vhcurveto
            -29 hlineto
            -13 -7 -6 -12 hvcurveto
            -44 vlineto
            -12 7 -7 13 vhcurveto
            42 hlineto
            101 0 57 60 1 99 rrcurveto
            66 vlineto
            101 -59 58 -100 vhcurveto
            -25 hlineto
            -45 0 -32 -17 -13 -25 rrcurveto
            -4 104 hlineto
            7 3 5 8 vhcurveto
            313 hlineto
            14 6 6 13 hvcurveto
            43 vlineto
            12 -6 6 -14 vhcurveto
            -738 hlineto
            -13 -6 -6 -12 hvcurveto
            -43 vlineto
            -13 6 -6 13 vhcurveto
            314 hlineto
            7 4 -5 -7 hvcurveto
            -290 vlineto
            return
          </CharString>
          <CharString index="231">
            -48 -27 -27 -49 vhcurveto
            -28 hlineto
            -54 -31 29 54 hvcurveto
            57 vlineto
            54 28 28 54 vhcurveto
            29 hlineto
            14 6 7 12 hvcurveto
            43 vlineto
            13 -6 6 -14 vhcurveto
            -41 hlineto
            -102 0 -57 -60 -1 -99 rrcurveto
            -66 vlineto
            -96 58 -51 72 vhcurveto
            26 hlineto
            return
          </CharString>
          <CharString index="232">
            0 0 -36 -23 -34 -43 rrcurveto
            -62 -78 rlineto
            -3 -4 -2 -4 0 -4 rrcurveto
            -8 4 -6 10 vhcurveto
            60 hlineto
            19 0 8 9 9 14 rrcurveto
            131 171 4 0 0 -134 rlineto
            -14 7 -5 12 vhcurveto
            51 hlineto
            13 7 5 14 hvcurveto
            512 vlineto
            7 3 5 8 vhcurveto
            65 hlineto
            15 5 6 13 hvcurveto
            43 vlineto
            12 -5 6 -15 vhcurveto
            -731 hlineto
            -13 -6 -6 -12 hvcurveto
            -43 vlineto
            -13 6 -6 13 vhcurveto
            179 hlineto
            7 -1 3 -4 0 -7 rrcurveto
            -141 vlineto
            -41 -21 -16 -32 vhcurveto
            -76 hlineto
            -14 -9 -9 -13 hvcurveto
            0 -57 25 -33 134 -209 rlineto
            4 -5 6 -7 10 0 rrcurveto
            57 hlineto
            11 6 8 10 hvcurveto
            0 4 -2 6 -3 4 rrcurveto
            -144 222 19 0 rlineto
            72 46 49 82 hvcurveto
            146 vlineto
            7 4 5 7 vhcurveto
            265 hlineto
            8 3 -5 -7 hvcurveto
            -256 vlineto
            -47 -16 -33 -57 vhcurveto
            -6 hlineto
            -52 -21 22 55 hvcurveto
            28 vlineto
            53 18 23 52 vhcurveto
            10 hlineto
            14 7 5 13 hvcurveto
            42 vlineto
            13 -7 7 -14 vhcurveto
            -18 hlineto
            -100 -50 -59 -86 hvcurveto
            -45 vlineto
            0 -76 36 -56 75 -2 rrcurveto
            8 hlineto
            5 8 1 0 hvcurveto
            return
          </CharString>
          <CharString index="233">
            -13 -6 -6 -12 hvcurveto
            -43 vlineto
            -13 6 -6 13 vhcurveto
            123 hlineto
            7 -1 3 -4 0 -7 rrcurveto
            -171 vlineto
            -57 -28 -22 -50 vhcurveto
            -8 hlineto
            -13 -6 -6 -13 hvcurveto
            -45 vlineto
            -13 6 -6 13 vhcurveto
            22 hlineto
            98 57 53 106 hvcurveto
            174 vlineto
            7 3 5 8 vhcurveto
            109 hlineto
            7 -1 3 -4 0 -7 rrcurveto
            0 -232 -263 -285 rlineto
            -3 -3 -2 -4 0 -3 rrcurveto
            -7 5 -7 10 vhcurveto
            64 hlineto
            13 0 9 5 9 9 rrcurveto
            158 178 0 -163 rlineto
            -14 7 -5 12 vhcurveto
            53 hlineto
            12 7 5 14 hvcurveto
            512 vlineto
            7 3 5 8 vhcurveto
            65 hlineto
            15 5 6 13 hvcurveto
            43 vlineto
            12 -5 6 -15 vhcurveto
            return
          </CharString>
          <CharString index="234">
            -13 -6 -6 -12 hvcurveto
            -44 vlineto
            -13 6 -5 13 vhcurveto
            291 hlineto
            7 3 -5 -7 hvcurveto
            -56 vlineto
            -8 -4 -4 -7 vhcurveto
            -97 hlineto
            -80 -52 -38 -79 hvcurveto
            -23 vlineto
            -82 43 -32 89 vhcurveto
            85 hlineto
            return
          </CharString>
          <CharString index="235">
            26 20 13 31 hvcurveto
            129 vlineto
            7 3 5 8 vhcurveto
            77 hlineto
            13 7 6 13 hvcurveto
            43 vlineto
            12 -7 6 -13 vhcurveto
            return
          </CharString>
          <CharString index="236">
            27 10 10 23 0 30 rrcurveto
            54 vlineto
            7 3 5 8 vhcurveto
            98 hlineto
            13 6 6 13 hvcurveto
            42 vlineto
            13 -6 6 -13 vhcurveto
            return
          </CharString>
          <CharString index="237">
            -54 -28 -29 -54 vhcurveto
            -55 hlineto
            -55 -28 29 54 hvcurveto
            80 vlineto
            54 25 26 55 vhcurveto
            62 hlineto
            53 25 -30 -50 hvcurveto
            return
          </CharString>
          <CharString index="238">
            34 16 -12 -38 hvcurveto
            -30 vlineto
            -37 -16 -13 -34 vhcurveto
            -67 hlineto
            -48 -21 7 49 hvcurveto
            6 vlineto
            15 -7 8 -11 vhcurveto
            -48 hlineto
            -13 -7 -8 -15 hvcurveto
            -6 vlineto
            0 -79 34 -37 56 -13 rrcurveto
            -82 -110 rlineto
            -4 -5 -2 -3 0 -6 rrcurveto
            -9 7 -5 10 vhcurveto
            66 hlineto
            10 0 6 5 5 8 rrcurveto
            77 109 5 0 76 -109 rlineto
            5 -8 6 -5 10 0 rrcurveto
            66 hlineto
            10 7 5 9 hvcurveto
            0 6 -2 3 -3 5 rrcurveto
            -82 110 rlineto
            52 14 30 40 0 62 rrcurveto
            47 vlineto
            77 -48 37 -80 vhcurveto
            -91 hlineto
            return
          </CharString>
          <CharString index="239">
            -34 -16 8 38 hvcurveto
            8 vlineto
            37 16 9 34 vhcurveto
            145 hlineto
            26 20 12 31 hvcurveto
            105 vlineto
            7 4 5 7 vhcurveto
            72 hlineto
            13 7 5 13 hvcurveto
            44 vlineto
            12 -7 6 -13 vhcurveto
            return
          </CharString>
          <CharString index="240">
            23 16 14 26 hvcurveto
            114 vlineto
            7 4 5 7 vhcurveto
            71 hlineto
            13 6 6 13 hvcurveto
            43 vlineto
            12 -6 6 -13 vhcurveto
            return
          </CharString>
          <CharString index="241">
            -50 -26 -19 -40 vhcurveto
            -10 hlineto
            -42 -24 20 49 hvcurveto
            224 vlineto
            7 3 5 8 vhcurveto
            120 hlineto
            7 4 -5 -7 hvcurveto
            return
          </CharString>
          <CharString index="242">
            -14 -5 -6 -12 hvcurveto
            -43 vlineto
            -13 5 -6 14 vhcurveto
            321 hlineto
            7 3 -5 -7 hvcurveto
            -57 vlineto
            -7 -3 -5 -7 vhcurveto
            -111 hlineto
            -101 -53 -55 -102 hvcurveto
            -75 vlineto
            0 -94 48 -61 98 -4 rrcurveto
            -74 -78 rlineto
            -3 -3 -2 -4 0 -4 rrcurveto
            -6 5 -7 10 vhcurveto
            63 hlineto
            11 0 7 4 6 6 10 10 53 59 43 49 rrcurveto
            6 6 rlineto
            return
          </CharString>
          <CharString index="243">
            4 -84 hlineto
            -14 7 -5 12 vhcurveto
            51 hlineto
            13 6 5 14 hvcurveto
            235 vlineto
            14 -6 5 -13 vhcurveto
            -51 hlineto
            -12 -7 -5 -14 hvcurveto
            -42 vlineto
            -41 -22 -19 -37 vhcurveto
            -56 hlineto
            -54 -25 22 54 hvcurveto
            73 vlineto
            53 24 27 51 vhcurveto
            159 hlineto
            return
          </CharString>
          <CharString index="244">
            23 17 14 27 hvcurveto
            109 vlineto
            7 4 5 7 vhcurveto
            63 hlineto
            13 6 6 13 hvcurveto
            43 vlineto
            12 -6 6 -13 vhcurveto
            return
          </CharString>
          <CharString index="245">
            -13 -6 -6 -12 hvcurveto
            -43 vlineto
            -13 6 -6 13 vhcurveto
            317 hlineto
            7 -1 2 -4 0 -7 rrcurveto
            -128 vlineto
            -7 -3 -5 -8 vhcurveto
            -164 hlineto
            -70 -44 -43 -65 hvcurveto
            0 -29 4 -32 14 -22 6 -8 9 -5 12 0 rrcurveto
            38 hlineto
            12 6 8 10 hvcurveto
            0 6 -2 6 -2 9 -3 12 -4 13 0 14 rrcurveto
            34 20 11 36 vhcurveto
            132 hlineto
            8 3 -5 -8 hvcurveto
            0 -9 -257 -264 rlineto
            -3 -4 -2 -3 0 -4 rrcurveto
            -6 5 -7 10 vhcurveto
            64 hlineto
            13 0 9 4 8 10 rrcurveto
            153 162 0 -157 rlineto
            -14 7 -5 12 vhcurveto
            53 hlineto
            13 6 5 14 hvcurveto
            512 vlineto
            7 4 5 7 vhcurveto
            66 hlineto
            14 5 6 13 hvcurveto
            43 vlineto
            12 -5 6 -14 vhcurveto
            return
          </CharString>
          <CharString index="246">
            -14 7 -5 12 vhcurveto
            53 hlineto
            13 6 5 14 hvcurveto
            295 vlineto
            47 26 27 50 vhcurveto
            28 hlineto
            54 31 -28 -54 hvcurveto
            -57 vlineto
            -54 -28 -29 -54 vhcurveto
            -30 hlineto
            -13 -6 -6 -12 hvcurveto
            -44 vlineto
            -12 6 -7 13 vhcurveto
            42 hlineto
            102 57 60 99 hvcurveto
            66 vlineto
            101 -59 58 -100 vhcurveto
            -25 hlineto
            -45 0 -32 -17 -13 -25 rrcurveto
            -4 104 hlineto
            7 3 5 8 vhcurveto
            314 hlineto
            15 4 6 13 hvcurveto
            43 vlineto
            12 -4 6 -15 vhcurveto
            -756 hlineto
            -13 -6 -6 -12 hvcurveto
            -42 vlineto
            -14 6 -6 13 vhcurveto
            58 hlineto
            6 -1 3 -5 0 -6 rrcurveto
            -221 vlineto
            -69 41 -64 82 vhcurveto
            15 hlineto
            3 0 7 0 2 1 rrcurveto
            -4 vlineto
            0 0 -39 -25 -52 -54 rrcurveto
            -72 -76 rlineto
            -3 -4 -2 -4 0 -3 rrcurveto
            -7 5 -6 10 vhcurveto
            65 hlineto
            13 0 9 4 8 10 rrcurveto
            100 110 77 85 4 0 rlineto
            return
          </CharString>
          <CharString index="247">
            -53 -23 26 52 hvcurveto
            206 vlineto
            7 3 5 8 vhcurveto
            160 hlineto
            8 3 -5 -7 hvcurveto
            -204 vlineto
            -47 -24 -33 -59 vhcurveto
            return
          </CharString>
          <CharString index="248">
            8 3 -5 -7 hvcurveto
            -253 vlineto
            -68 -34 -45 -82 vhcurveto
            -44 hlineto
            -77 -35 39 67 hvcurveto
            45 14 vlineto
            88 47 40 87 hvcurveto
            21 vlineto
            return
          </CharString>
          <CharString index="249">
            -13 -6 -6 -12 hvcurveto
            -44 vlineto
            -13 6 -5 13 vhcurveto
            356 hlineto
            7 -1 2 -4 0 -7 rrcurveto
            -50 vlineto
            -8 -4 -4 -8 vhcurveto
            -156 hlineto
            -85 -51 -30 -89 hvcurveto
            0 -52 21 -31 34 -14 rrcurveto
            -4 vlineto
            return
          </CharString>
          <CharString index="250">
            -12 -6 -6 -12 hvcurveto
            -53 vlineto
            -13 6 -6 12 vhcurveto
            55 hlineto
            12 6 6 13 hvcurveto
            53 vlineto
            12 -7 6 -11 vhcurveto
            return
          </CharString>
          <CharString index="251">
            -13 -6 -6 -12 hvcurveto
            -43 vlineto
            -13 6 -6 13 vhcurveto
            314 hlineto
            7 4 -5 -7 hvcurveto
            -290 vlineto
            -48 -27 -27 -49 vhcurveto
            -28 hlineto
            -54 -31 29 54 hvcurveto
            57 vlineto
            54 28 28 54 vhcurveto
            29 hlineto
            14 6 7 12 hvcurveto
            43 vlineto
            13 -6 6 -14 vhcurveto
            -41 hlineto
            -102 0 -57 -60 -1 -99 rrcurveto
            -66 vlineto
            -98 60 -49 74 vhcurveto
            22 -4 hlineto
            0 0 -29 -13 -39 -42 rrcurveto
            -52 -55 rlineto
            -3 -4 -2 -4 0 -3 rrcurveto
            -7 5 -6 10 vhcurveto
            61 hlineto
            12 0 7 4 5 5 19 17 26 27 27 32 36 37 18 23 18 20 rrcurveto
            4 -104 hlineto
            -14 6 -6 12 vhcurveto
            51 hlineto
            13 7 6 14 hvcurveto
            294 vlineto
            47 26 27 50 vhcurveto
            27 hlineto
            43 0 19 -17 12 -18 5 -7 4 -6 7 0 5 0 3 1 8 6 rrcurveto
            27 21 rlineto
            9 6 4 6 0 8 0 4 -2 5 -1 3 -23 46 -42 23 -62 0 rrcurveto
            -25 hlineto
            -45 0 -32 -17 -13 -25 rrcurveto
            -4 104 hlineto
            7 3 5 8 vhcurveto
            221 hlineto
            13 6 6 13 hvcurveto
            43 vlineto
            12 -6 6 -13 vhcurveto
            return
          </CharString>
          <CharString index="252">
            8 9 2 5 0 8 0 7 -3 3 -9 7 rrcurveto
            -21 16 rlineto
            -5 4 -4 1 -3 0 -8 0 -5 -7 -5 -8 -22 -32 -20 -26 -35 0 rrcurveto
            -4 hlineto
            -52 -21 22 55 hvcurveto
            28 vlineto
            53 18 23 52 vhcurveto
            10 hlineto
            14 7 5 13 hvcurveto
            42 vlineto
            13 -7 7 -14 vhcurveto
            -18 hlineto
            -100 -50 -59 -86 hvcurveto
            -45 vlineto
            -77 36 -57 74 vhcurveto
            6 hlineto
            7 7 2 0 hvcurveto
            -4 vlineto
            -1 0 -33 -24 -34 -43 rrcurveto
            -62 -78 rlineto
            -3 -4 -2 -4 0 -4 rrcurveto
            -8 4 -6 10 vhcurveto
            60 hlineto
            19 0 8 10 11 13 rrcurveto
            return
          </CharString>
          <CharString index="253">
            7 9 3 6 0 7 0 6 -3 4 -7 7 rrcurveto
            -21 20 rlineto
            -7 5 -3 2 -7 0 -5 0 -6 -4 -5 -7 rrcurveto
            -266 -287 rlineto
            -3 -3 -2 -4 0 -3 rrcurveto
            -7 5 -7 10 vhcurveto
            64 hlineto
            13 0 9 5 9 9 rrcurveto
            return
          </CharString>
          <CharString index="254">
            -4 -5 -3 -5 0 -6 rrcurveto
            -7 5 -6 10 vhcurveto
            62 hlineto
            12 0 7 4 5 6 12 11 117 133 40 51 7 8 4 4 0 8 0 6 -4 4 -5 5 rrcurveto
            -19 17 rlineto
            -6 7 -4 1 -4 0 -7 0 -4 -4 -7 -7 rrcurveto
            return
          </CharString>
          <CharString index="255">
            14 5 6 14 hvcurveto
            46 vlineto
            13 -5 5 -14 vhcurveto
            -306 hlineto
            -13 -6 -5 -12 hvcurveto
            -48 vlineto
            -12 6 -7 14 vhcurveto
            38 hlineto
            45 32 -20 -56 hvcurveto
            -29 vlineto
            -49 -15 -29 -61 vhcurveto
            -79 hlineto
            -14 -6 -7 -12 hvcurveto
            -44 vlineto
            -12 6 -6 14 vhcurveto
            106 hlineto
            88 51 55 96 hvcurveto
            42 vlineto
            0 34 -13 23 -23 10 rrcurveto
            4 vlineto
            return
          </CharString>
          <CharString index="256">
            15 5 6 13 hvcurveto
            43 vlineto
            12 -5 6 -15 vhcurveto
            -395 hlineto
            -13 -6 -6 -12 hvcurveto
            -43 vlineto
            -13 6 -6 13 vhcurveto
            return
          </CharString>
          <CharString index="257">
            -8 11 -8 6 -12 0 rrcurveto
            -49 hlineto
            -10 -5 -7 -8 hvcurveto
            0 -3 1 -3 2 -3 rrcurveto
            88 -143 rlineto
            5 -7 7 -7 10 0 rrcurveto
            58 hlineto
            10 7 8 10 hvcurveto
            0 4 -2 5 -3 4 rrcurveto
            return
          </CharString>
          <CharString index="258">
            -13 -6 -6 -12 hvcurveto
            -42 vlineto
            -14 6 -6 13 vhcurveto
            392 hlineto
            15 4 6 13 hvcurveto
            43 vlineto
            12 -4 6 -15 vhcurveto
            return
          </CharString>
          <CharString index="259">
            -70 -44 -43 -65 hvcurveto
            0 -29 4 -32 14 -22 6 -8 9 -5 12 0 rrcurveto
            38 hlineto
            12 6 8 10 hvcurveto
            0 6 -2 6 -2 9 -3 12 -4 13 0 14 rrcurveto
            34 20 11 36 vhcurveto
            159 -11 hlineto
            -273 -275 rlineto
            -3 -4 -2 -3 0 -4 rrcurveto
            -6 5 -7 10 vhcurveto
            64 hlineto
            13 0 9 4 8 10 rrcurveto
            215 222 rlineto
            19 20 4 17 0 45 rrcurveto
            55 vlineto
            12 -5 6 -14 vhcurveto
            return
          </CharString>
          <CharString index="260">
            4 -185 hlineto
            -14 6 -5 13 vhcurveto
            52 hlineto
            13 7 5 14 hvcurveto
            288 vlineto
            47 26 27 50 vhcurveto
            27 hlineto
            39 0 21 -14 11 -18 7 -8 4 -8 8 0 4 0 4 1 7 6 rrcurveto
            28 21 rlineto
            9 6 3 6 0 8 0 4 -2 5 -1 3 -23 46 -42 23 -62 0 rrcurveto
            -24 hlineto
            -45 0 -32 -17 -13 -25 rrcurveto
            -4 111 hlineto
            7 3 5 8 vhcurveto
            202 hlineto
            15 5 6 13 hvcurveto
            43 vlineto
            12 -5 6 -15 vhcurveto
            -644 hlineto
            -13 -7 -6 -12 hvcurveto
            -42 vlineto
            -14 7 -6 13 vhcurveto
            57 hlineto
            7 -1 3 -5 0 -6 rrcurveto
            -221 vlineto
            0 -69 41 -62 83 -2 rrcurveto
            13 hlineto
            4 0 7 0 2 1 rrcurveto
            -4 vlineto
            0 0 -40 -25 -52 -54 rrcurveto
            -72 -76 rlineto
            -3 -4 -2 -4 0 -3 rrcurveto
            -7 6 -6 9 vhcurveto
            65 hlineto
            13 0 9 4 9 10 rrcurveto
            89 98 rlineto
            return
          </CharString>
          <CharString index="261">
            -53 -23 26 52 hvcurveto
            206 vlineto
            7 4 5 8 vhcurveto
            160 hlineto
            7 4 -5 -7 hvcurveto
            -204 vlineto
            -47 -25 -33 -58 vhcurveto
            return
          </CharString>
          <CharString index="262">
            0 39 -16 25 -19 10 rrcurveto
            5 110 vlineto
            15 5 6 13 hvcurveto
            43 vlineto
            12 -5 6 -15 vhcurveto
            -369 hlineto
            -13 -6 -5 -13 hvcurveto
            -43 vlineto
            -13 6 -6 13 vhcurveto
            138 hlineto
            return
          </CharString>
          <CharString index="263">
            -97 55 -64 105 vhcurveto
            71 hlineto
            101 58 54 103 hvcurveto
            18 vlineto
            15 -6 8 -14 vhcurveto
            -47 hlineto
            -11 -7 -8 -15 hvcurveto
            -18 vlineto
            -56 -29 -20 -53 vhcurveto
            -53 hlineto
            -55 -27 24 54 hvcurveto
            87 vlineto
            54 27 24 55 vhcurveto
            124 hlineto
            return
          </CharString>
          <CharString index="264">
            -13 -6 -6 -12 hvcurveto
            -43 vlineto
            -13 6 -6 13 vhcurveto
            314 hlineto
            7 4 -5 -7 hvcurveto
            -290 vlineto
            -48 -27 -27 -49 vhcurveto
            -28 hlineto
            -54 -31 29 54 hvcurveto
            57 vlineto
            54 28 28 54 vhcurveto
            29 hlineto
            14 6 7 12 hvcurveto
            43 vlineto
            13 -6 6 -14 vhcurveto
            -41 hlineto
            -102 0 -57 -60 -1 -99 rrcurveto
            -66 vlineto
            -100 60 -59 100 vhcurveto
            25 hlineto
            44 0 31 16 15 26 rrcurveto
            4 -107 hlineto
            -14 6 -6 12 vhcurveto
            51 hlineto
            13 7 6 14 hvcurveto
            270 vlineto
            return
          </CharString>
          <CharString index="265">
            -97 51 -62 106 vhcurveto
            53 hlineto
            return
          </CharString>
          <CharString index="266">
            -41 -22 -19 -37 vhcurveto
            -56 hlineto
            -54 -25 22 54 hvcurveto
            73 vlineto
            53 24 27 51 vhcurveto
            159 hlineto
            23 17 14 27 hvcurveto
            109 vlineto
            7 4 5 7 vhcurveto
            63 hlineto
            13 6 6 13 hvcurveto
            43 vlineto
            12 -6 6 -13 vhcurveto
            return
          </CharString>
          <CharString index="267">
            -13 -6 -6 -12 hvcurveto
            -43 vlineto
            -13 6 -6 13 vhcurveto
            314 hlineto
            7 4 -5 -7 hvcurveto
            -290 vlineto
            -48 -27 -27 -49 vhcurveto
            -28 hlineto
            -54 -31 29 54 hvcurveto
            57 vlineto
            54 28 28 54 vhcurveto
            29 hlineto
            14 6 7 12 hvcurveto
            43 vlineto
            13 -6 6 -14 vhcurveto
            -41 hlineto
            -102 0 -57 -60 -1 -99 rrcurveto
            return
          </CharString>
          <CharString index="268">
            -46 -24 -34 -59 vhcurveto
            -27 hlineto
            -53 -23 26 52 hvcurveto
            209 vlineto
            7 4 5 7 vhcurveto
            164 hlineto
            8 3 -5 -7 hvcurveto
            return
          </CharString>
          <CharString index="269">
            47 26 27 50 vhcurveto
            28 hlineto
            54 31 -28 -54 hvcurveto
            -57 vlineto
            -54 -28 -29 -54 vhcurveto
            -29 hlineto
            -14 -6 -6 -12 hvcurveto
            -44 vlineto
            -12 6 -7 14 vhcurveto
            41 hlineto
            102 0 57 60 1 99 rrcurveto
            66 vlineto
            101 -60 58 -100 vhcurveto
            -25 hlineto
            -44 0 -32 -17 -14 -25 rrcurveto
            -4 104 hlineto
            7 4 5 7 vhcurveto
            314 hlineto
            13 7 6 13 hvcurveto
            43 vlineto
            12 -7 6 -13 vhcurveto
            return
          </CharString>
          <CharString index="270">
            -45 0 -32 -17 -13 -25 rrcurveto
            -4 127 hlineto
            7 3 5 8 vhcurveto
            139 hlineto
            6 -1 3 -5 0 -6 rrcurveto
            -85 vlineto
            return
          </CharString>
          <CharString index="271">
            47 26 27 50 vhcurveto
            73 -56 hlineto
            -97 64 -90 128 vhcurveto
            52 hlineto
            56 0 40 20 18 33 rrcurveto
            4 -121 hlineto
            -14 6 -5 13 vhcurveto
            53 hlineto
            12 7 5 14 hvcurveto
            512 vlineto
            7 3 5 8 vhcurveto
            65 hlineto
            15 5 6 13 hvcurveto
            43 vlineto
            12 -5 6 -15 vhcurveto
            return
          </CharString>
          <CharString index="272">
            -45 0 -32 -17 -13 -25 rrcurveto
            -4 162 hlineto
            7 3 5 8 vhcurveto
            221 hlineto
            return
          </CharString>
          <CharString index="273">
            49 20 -18 -45 hvcurveto
            -4 vlineto
            -49 -19 -16 -50 vhcurveto
            return
          </CharString>
          <CharString index="274">
            -68 -34 -45 -82 vhcurveto
            -44 hlineto
            -77 -35 39 67 hvcurveto
            58 11 vlineto
            90 48 39 87 hvcurveto
            8 vlineto
            return
          </CharString>
          <CharString index="275">
            0 38 -16 24 -20 10 rrcurveto
            5 148 vlineto
            8 3 -5 -7 hvcurveto
            return
          </CharString>
          <CharString index="276">
            -23 -13 -16 -22 hvcurveto
            -566 vlineto
            -14 6 -5 13 vhcurveto
            52 hlineto
            13 6 5 14 hvcurveto
            512 vlineto
            7 4 5 8 vhcurveto
            65 hlineto
            15 4 6 13 hvcurveto
            43 vlineto
            12 -4 6 -15 vhcurveto
            return
          </CharString>
          <CharString index="277">
            -7 -4 -5 -7 vhcurveto
            return
          </CharString>
          <CharString index="278">
            18 15 6 23 0 37 rrcurveto
            120 vlineto
            7 3 5 8 vhcurveto
            141 hlineto
            7 4 -5 -7 hvcurveto
            return
          </CharString>
          <CharString index="279">
            -13 -6 -6 -12 hvcurveto
            -43 vlineto
            -13 6 -6 13 vhcurveto
            179 hlineto
            7 -1 3 -4 0 -7 rrcurveto
            -141 vlineto
            -41 -21 -16 -32 vhcurveto
            -76 hlineto
            -14 -9 -9 -13 hvcurveto
            0 -57 25 -33 134 -209 rlineto
            4 -5 6 -7 10 0 rrcurveto
            57 hlineto
            11 6 8 10 hvcurveto
            0 4 -2 6 -3 4 rrcurveto
            -144 222 20 0 rlineto
            72 2 45 47 0 82 rrcurveto
            146 vlineto
            7 4 5 7 vhcurveto
            556 hlineto
            7 -1 3 -4 0 -7 rrcurveto
            -90 vlineto
            -8 -4 -4 -7 vhcurveto
            -121 hlineto
            -98 -61 -54 -104 hvcurveto
            -76 -85 vlineto
            -52 -21 22 55 hvcurveto
            28 vlineto
            return
          </CharString>
          <CharString index="280">
            53 18 23 52 vhcurveto
            10 hlineto
            14 7 5 13 hvcurveto
            42 vlineto
            13 -7 7 -14 vhcurveto
            -18 hlineto
            -100 -50 -59 -86 hvcurveto
            -45 vlineto
            -89 45 -60 94 vhcurveto
            110 hlineto
            13 -79 49 -38 84 0 rrcurveto
            32 hlineto
            13 6 7 12 hvcurveto
            40 vlineto
            13 -6 6 -13 vhcurveto
            -11 hlineto
            -55 1 -24 19 0 59 rrcurveto
            109 vlineto
            return
          </CharString>
          <CharString index="281">
            57 30 22 49 vhcurveto
            110 hlineto
            7 4 -4 -8 hvcurveto
            -314 vlineto
            -14 6 -5 13 vhcurveto
            52 hlineto
            13 7 5 14 hvcurveto
            512 vlineto
            7 3 5 8 vhcurveto
            65 hlineto
            15 5 6 13 hvcurveto
            43 vlineto
            12 -5 6 -15 vhcurveto
            return
          </CharString>
          <CharString index="282">
            -13 -6 -6 -12 hvcurveto
            -43 vlineto
            -13 6 -6 13 vhcurveto
            179 hlineto
            7 -1 3 -4 0 -7 rrcurveto
            -141 vlineto
            -41 -21 -16 -32 vhcurveto
            -76 hlineto
            -14 -9 -9 -13 hvcurveto
            0 -57 25 -33 134 -209 rlineto
            4 -5 6 -7 10 0 rrcurveto
            57 hlineto
            11 6 8 10 hvcurveto
            0 4 -2 6 -3 4 rrcurveto
            -144 222 20 0 rlineto
            72 2 45 47 0 82 rrcurveto
            146 vlineto
            7 4 5 7 vhcurveto
            273 hlineto
            7 -1 3 -4 0 -7 rrcurveto
            0 -289 0 -4 rlineto
            -41 -22 -18 -45 vhcurveto
            -20 hlineto
            -56 -23 29 53 hvcurveto
            39 vlineto
            53 18 23 52 vhcurveto
            10 hlineto
            14 7 5 13 hvcurveto
            42 vlineto
            13 -7 7 -14 vhcurveto
            -18 hlineto
            -100 -50 -59 -86 hvcurveto
            -50 vlineto
            -100 60 -59 99 vhcurveto
            37 hlineto
            108 0 40 63 1 76 rrcurveto
            0 1 0 20 rlineto
            return
          </CharString>
          <CharString index="283">
            -8 -3 -4 -8 vhcurveto
            -159 hlineto
            -7 -4 4 8 hvcurveto
            165 vlineto
            7 3 5 8 vhcurveto
            161 hlineto
            7 -1 2 -4 0 -7 rrcurveto
            return
          </CharString>
          <CharString index="284">
            -68 -34 -45 -82 vhcurveto
            -44 hlineto
            -77 -35 39 67 hvcurveto
            return
          </CharString>
          <CharString index="285">
            45 11 vlineto
            90 48 40 87 hvcurveto
            21 vlineto
            return
          </CharString>
          <CharString index="286">
            -23 -13 -16 -22 hvcurveto
            -566 vlineto
            -14 6 -5 13 vhcurveto
            52 hlineto
            13 7 5 14 hvcurveto
            512 vlineto
            7 3 5 8 vhcurveto
            65 hlineto
            15 5 6 13 hvcurveto
            43 vlineto
            12 -5 6 -15 vhcurveto
            return
          </CharString>
          <CharString index="287">
            -13 7 -6 13 vhcurveto
            51 hlineto
            12 7 6 13 hvcurveto
            52 vlineto
            40 14 18 42 42 14 -19 -40 vhcurveto
            -90 vlineto
            return
          </CharString>
          <CharString index="288">
            -52 -32 -21 -50 vhcurveto
            -130 hlineto
            -14 -9 -10 -13 hvcurveto
            0 -57 13 -15 rlineto
            -15 -17 -15 -18 -46 0 rrcurveto
            -6 hlineto
            -52 -21 22 55 hvcurveto
            28 vlineto
            53 18 23 52 vhcurveto
            10 hlineto
            14 7 5 13 hvcurveto
            42 vlineto
            13 -7 7 -14 vhcurveto
            -18 hlineto
            -100 -50 -59 -86 hvcurveto
            -45 vlineto
            -89 45 -60 94 vhcurveto
            34 hlineto
            50 0 38 22 26 31 rrcurveto
            112 -158 rlineto
            4 -5 5 -7 10 0 rrcurveto
            61 hlineto
            11 7 8 9 hvcurveto
            0 4 -2 6 -4 4 rrcurveto
            -156 214 54 0 rlineto
            111 55 57 98 hvcurveto
            85 vlineto
            94 -56 45 -90 -94 -52 -45 -94 vhcurveto
            return
          </CharString>
          <CharString index="289">
            20 hlineto
            72 2 45 47 0 82 rrcurveto
            146 vlineto
            7 4 5 7 vhcurveto
            207 hlineto
            14 5 6 13 hvcurveto
            43 vlineto
            12 -5 6 -14 vhcurveto
            -496 hlineto
            -13 -6 -6 -12 hvcurveto
            -43 vlineto
            -13 6 -6 13 vhcurveto
            179 hlineto
            7 -1 3 -4 0 -7 rrcurveto
            -141 vlineto
            -41 -21 -16 -32 vhcurveto
            -76 hlineto
            -14 -9 -9 -13 hvcurveto
            0 -57 25 -33 134 -209 rlineto
            4 -5 6 -7 10 0 rrcurveto
            57 hlineto
            11 6 8 10 hvcurveto
            0 4 -2 6 -3 4 rrcurveto
            return
          </CharString>
          <CharString index="290">
            8 4 4 8 vhcurveto
            159 hlineto
            8 3 -4 -8 hvcurveto
            -222 vlineto
            -14 6 -5 13 vhcurveto
            53 hlineto
            12 7 5 14 hvcurveto
            512 vlineto
            7 3 5 8 vhcurveto
            65 hlineto
            15 5 6 13 hvcurveto
            43 vlineto
            12 -5 6 -15 vhcurveto
            return
          </CharString>
          <CharString index="291">
            8 3 4 8 vhcurveto
            159 hlineto
            8 3 -4 -8 hvcurveto
            -222 vlineto
            -14 7 -5 13 vhcurveto
            52 hlineto
            13 6 5 14 hvcurveto
            512 vlineto
            7 4 5 7 vhcurveto
            66 hlineto
            15 4 6 13 hvcurveto
            43 vlineto
            12 -4 6 -15 vhcurveto
            return
          </CharString>
          <CharString index="292">
            -11 20 -24 11 -37 0 -57 0 -29 -25 -12 -35 rrcurveto
            -4 hlineto
            -15 41 -34 20 -62 0 rrcurveto
            -91 -59 -55 -105 hvcurveto
            -94 vlineto
            -104 58 -55 101 vhcurveto
            34 hlineto
            14 6 6 13 hvcurveto
            44 vlineto
            12 -6 6 -14 vhcurveto
            -22 hlineto
            -54 -28 25 57 hvcurveto
            85 vlineto
            57 21 25 46 42 23 -19 -54 vhcurveto
            -72 vlineto
            -13 6 -6 13 vhcurveto
            49 hlineto
            13 6 6 13 hvcurveto
            66 vlineto
            59 22 18 44 44 21 -18 -56 vhcurveto
            -265 vlineto
            -14 7 -5 12 vhcurveto
            53 hlineto
            13 6 5 14 hvcurveto
            512 vlineto
            7 4 5 7 vhcurveto
            66 hlineto
            14 5 6 13 hvcurveto
            43 vlineto
            12 -5 6 -14 vhcurveto
            return
          </CharString>
          <CharString index="293">
            32 -28 44 -18 57 0 rrcurveto
            52 hlineto
            56 0 40 20 18 33 rrcurveto
            4 -118 hlineto
            -14 7 -5 12 vhcurveto
            53 hlineto
            13 6 5 14 hvcurveto
            512 vlineto
            7 4 5 7 vhcurveto
            66 hlineto
            14 5 6 13 hvcurveto
            43 vlineto
            12 -5 6 -14 vhcurveto
            return
          </CharString>
          <CharString index="294">
            -20 -19 -12 -28 0 -44 rrcurveto
            -87 56 -50 93 vhcurveto
            90 hlineto
            94 57 63 98 hvcurveto
            123 vlineto
            return
          </CharString>
          <CharString index="295">
            16 25 9 30 0 33 rrcurveto
            68 vlineto
            0 52 -16 37 -33 20 rrcurveto
            return
          </CharString>
          <CharString index="296">
            14 13 10 20 0 28 rrcurveto
            57 vlineto
            8 4 3 8 vhcurveto
            72 hlineto
            13 7 6 14 hvcurveto
            42 vlineto
            12 -7 6 -13 vhcurveto
            return
          </CharString>
          <CharString index="297">
            -58 -21 21 45 37 16 27 41 hvcurveto
            99 hlineto
            20 0 19 3 18 6 rrcurveto
            -63 vlineto
            -44 -20 -32 -62 vhcurveto
            return
          </CharString>
          <CharString index="298">
            -41 hlineto
            -13 -6 -6 -12 hvcurveto
            -43 vlineto
            -13 6 -6 13 vhcurveto
            34 hlineto
            32 15 -17 -30 hvcurveto
            -75 vlineto
            -54 -24 -24 -55 vhcurveto
            -116 hlineto
            -52 -22 18 50 hvcurveto
            10 vlineto
            return
          </CharString>
          <CharString index="299">
            41 18 21 43 vhcurveto
            28 hlineto
            14 6 7 11 hvcurveto
            43 vlineto
            12 -6 7 -14 vhcurveto
            -35 hlineto
            -35 -19 19 35 hvcurveto
            52 vlineto
            41 18 23 42 vhcurveto
            167 hlineto
            8 -1 4 -3 0 -8 rrcurveto
            -71 vlineto
            return
          </CharString>
          <CharString index="300">
            -100 60 -59 100 vhcurveto
            25 hlineto
            44 0 31 16 15 26 rrcurveto
            4 -107 hlineto
            -14 6 -6 12 vhcurveto
            51 hlineto
            13 7 6 14 hvcurveto
            294 vlineto
            47 26 27 50 vhcurveto
            27 hlineto
            55 30 -28 -54 hvcurveto
            -57 vlineto
            -54 -27 -29 -55 vhcurveto
            -29 hlineto
            -13 -7 -6 -12 hvcurveto
            -44 vlineto
            -12 7 -7 13 vhcurveto
            42 hlineto
            101 0 57 60 1 99 rrcurveto
            66 vlineto
            101 -59 58 -100 vhcurveto
            -25 hlineto
            -45 0 -32 -17 -13 -25 rrcurveto
            -4 104 hlineto
            7 3 5 8 vhcurveto
            313 hlineto
            14 6 6 13 hvcurveto
            43 vlineto
            12 -6 6 -14 vhcurveto
            return
          </CharString>
          <CharString index="301">
            13 1 7 5 0 14 rrcurveto
            45 vlineto
            13 -7 6 -13 vhcurveto
            -271 hlineto
            -12 -7 -6 -11 hvcurveto
            -49 vlineto
            -12 6 -6 14 vhcurveto
            38 hlineto
            45 32 -20 -57 hvcurveto
            -57 vlineto
            -49 -15 -29 -61 vhcurveto
            -79 hlineto
            -13 -7 -6 -13 hvcurveto
            -43 vlineto
            -12 7 -7 13 vhcurveto
            106 hlineto
            88 51 56 96 hvcurveto
            70 vlineto
            0 33 -12 23 -24 11 rrcurveto
            4 vlineto
            return
          </CharString>
          <CharString index="302">
            -34 -16 8 38 hvcurveto
            8 vlineto
            37 16 9 34 vhcurveto
            145 hlineto
            26 20 12 31 hvcurveto
            105 vlineto
            7 4 5 8 vhcurveto
            71 hlineto
            14 6 5 13 hvcurveto
            44 vlineto
            12 -6 6 -14 vhcurveto
            return
          </CharString>
          <CharString index="303">
            -108 51 -52 98 vhcurveto
            31 hlineto
            14 6 7 12 hvcurveto
            40 vlineto
            13 -6 6 -14 vhcurveto
            -11 hlineto
            -54 1 -24 19 0 59 rrcurveto
            109 vlineto
            57 29 22 50 vhcurveto
            109 hlineto
            8 3 -4 -8 hvcurveto
            -314 vlineto
            -14 7 -5 13 vhcurveto
            52 hlineto
            13 6 5 14 hvcurveto
            512 vlineto
            7 4 5 7 vhcurveto
            66 hlineto
            15 4 6 13 hvcurveto
            43 vlineto
            12 -4 6 -15 vhcurveto
            return
          </CharString>
          <CharString index="304">
            -100 61 -59 99 vhcurveto
            41 hlineto
            45 0 35 16 15 26 rrcurveto
            4 -99 hlineto
            -14 6 -6 12 vhcurveto
            54 hlineto
            12 7 6 14 hvcurveto
            511 vlineto
            7 3 5 8 vhcurveto
            65 hlineto
            14 6 6 13 hvcurveto
            43 vlineto
            12 -6 6 -14 vhcurveto
            return
          </CharString>
          <CharString index="305">
            -97 63 -90 128 vhcurveto
            52 hlineto
            56 0 40 20 18 33 rrcurveto
            4 -118 hlineto
            -14 7 -5 12 vhcurveto
            53 hlineto
            13 6 5 14 hvcurveto
            512 vlineto
            7 4 5 7 vhcurveto
            66 hlineto
            14 5 6 13 hvcurveto
            43 vlineto
            12 -5 6 -14 vhcurveto
            return
          </CharString>
          <CharString index="306">
            -13 -6 -6 -12 hvcurveto
            -44 vlineto
            -13 6 -5 13 vhcurveto
            304 hlineto
            7 3 -5 -7 hvcurveto
            -43 vlineto
            -8 -4 -4 -7 vhcurveto
            -110 hlineto
            -80 -52 -36 -79 hvcurveto
            -12 vlineto
            -82 43 -31 89 vhcurveto
            104 hlineto
            return
          </CharString>
          <CharString index="307">
            26 20 12 31 hvcurveto
            92 vlineto
            7 3 5 8 vhcurveto
            83 hlineto
            14 6 5 13 hvcurveto
            44 vlineto
            12 -6 6 -14 vhcurveto
            return
          </CharString>
          <CharString index="308">
            101 58 54 103 hvcurveto
            18 vlineto
            15 -6 8 -14 vhcurveto
            -47 hlineto
            -11 -7 -8 -15 hvcurveto
            -18 vlineto
            -56 -29 -20 -53 vhcurveto
            -53 hlineto
            -55 -27 24 54 hvcurveto
            87 vlineto
            54 27 24 55 vhcurveto
            124 hlineto
            return
          </CharString>
          <CharString index="309">
            47 26 27 50 vhcurveto
            27 hlineto
            55 30 -28 -54 hvcurveto
            -57 vlineto
            -54 -27 -29 -55 vhcurveto
            -29 hlineto
            -13 -7 -6 -12 hvcurveto
            -44 vlineto
            -12 7 -7 13 vhcurveto
            42 hlineto
            101 0 57 60 1 99 rrcurveto
            66 vlineto
            101 -59 58 -100 vhcurveto
            -25 hlineto
            -45 0 -32 -17 -13 -25 rrcurveto
            -4 104 hlineto
            7 3 5 8 vhcurveto
            313 hlineto
            14 6 6 13 hvcurveto
            43 vlineto
            12 -6 6 -14 vhcurveto
            return
          </CharString>
          <CharString index="310">
            53 18 23 52 vhcurveto
            10 hlineto
            14 7 5 13 hvcurveto
            42 vlineto
            13 -7 7 -14 vhcurveto
            -18 hlineto
            -100 -50 -59 -86 hvcurveto
            -45 vlineto
            -89 45 -60 94 vhcurveto
            15 hlineto
            37 1 30 14 15 24 rrcurveto
            4 -137 hlineto
            -14 7 -5 12 vhcurveto
            51 hlineto
            13 7 5 14 hvcurveto
            512 vlineto
            7 3 5 8 vhcurveto
            65 hlineto
            15 5 6 13 hvcurveto
            43 vlineto
            12 -5 6 -15 vhcurveto
            return
          </CharString>
          <CharString index="311">
            -46 -24 -34 -59 vhcurveto
            -27 hlineto
            -53 -23 26 52 hvcurveto
            209 vlineto
            7 3 5 8 vhcurveto
            164 hlineto
            8 3 -5 -7 hvcurveto
            return
          </CharString>
          <CharString index="312">
            -68 -35 -45 -81 vhcurveto
            -45 hlineto
            -77 -35 39 67 hvcurveto
            45 12 vlineto
            90 47 40 87 hvcurveto
            21 vlineto
            return
          </CharString>
          <CharString index="313">
            0 39 -15 25 -20 10 rrcurveto
            5 148 vlineto
            7 4 -5 -7 hvcurveto
            return
          </CharString>
          <CharString index="314">
            -14 6 -5 13 vhcurveto
            53 hlineto
            12 7 5 14 hvcurveto
            512 vlineto
            7 3 5 8 vhcurveto
            65 hlineto
            15 5 6 13 hvcurveto
            43 vlineto
            12 -5 6 -15 vhcurveto
            return
          </CharString>
          <CharString index="315">
            -41 -22 -19 -38 vhcurveto
            -55 hlineto
            -55 -24 22 54 hvcurveto
            73 vlineto
            53 24 27 51 vhcurveto
            159 hlineto
            23 17 14 27 hvcurveto
            109 vlineto
            7 3 5 8 vhcurveto
            62 hlineto
            14 6 6 13 hvcurveto
            43 vlineto
            12 -6 6 -14 vhcurveto
            return
          </CharString>
          <CharString index="316">
            23 17 14 27 hvcurveto
            109 vlineto
            7 4 5 7 vhcurveto
            60 hlineto
            13 6 6 13 hvcurveto
            43 vlineto
            12 -6 6 -13 vhcurveto
            return
          </CharString>
          <CharString index="317">
            54 27 24 55 vhcurveto
            124 hlineto
            26 20 13 31 hvcurveto
            129 vlineto
            7 3 5 8 vhcurveto
            77 hlineto
            13 7 6 13 hvcurveto
            43 vlineto
            12 -7 6 -13 vhcurveto
            return
          </CharString>
          <CharString index="318">
            57 29 22 50 vhcurveto
            109 hlineto
            8 3 -4 -8 hvcurveto
            -314 vlineto
            -14 7 -5 13 vhcurveto
            52 hlineto
            13 6 5 14 hvcurveto
            512 vlineto
            7 4 5 7 vhcurveto
            66 hlineto
            15 4 6 13 hvcurveto
            43 vlineto
            12 -4 6 -15 vhcurveto
            return
          </CharString>
          <CharString index="319">
            -13 -6 -6 -12 hvcurveto
            -42 vlineto
            -14 6 -6 13 vhcurveto
            58 hlineto
            6 -1 3 -5 0 -6 rrcurveto
            -216 vlineto
            -93 60 -58 92 vhcurveto
            21 hlineto
            48 0 30 17 15 25 rrcurveto
            4 -187 hlineto
            -14 6 -5 13 vhcurveto
            52 hlineto
            13 6 6 14 hvcurveto
            259 vlineto
            48 26 27 50 vhcurveto
            69 hlineto
            15 5 6 13 hvcurveto
            46 vlineto
            13 -5 6 -15 vhcurveto
            -51 hlineto
            -44 0 -32 -17 -14 -25 rrcurveto
            -4 135 hlineto
            7 4 5 7 vhcurveto
            507 hlineto
            7 -1 3 -4 0 -7 rrcurveto
            -81 vlineto
            -8 -3 -4 -8 vhcurveto
            -271 hlineto
            -12 -7 -6 -11 hvcurveto
            -49 vlineto
            -12 6 -6 14 vhcurveto
            12 hlineto
            45 32 -20 -57 hvcurveto
            -63 vlineto
            -49 -15 -29 -61 vhcurveto
            -96 hlineto
            -13 -7 -6 -13 hvcurveto
            -43 vlineto
            -12 7 -7 13 vhcurveto
            123 hlineto
            88 51 56 96 hvcurveto
            76 vlineto
            0 33 -12 23 -24 11 rrcurveto
            4 127 vlineto
            8 3 -5 -7 hvcurveto
            -323 vlineto
            -14 7 -5 12 vhcurveto
            53 hlineto
            12 7 5 14 hvcurveto
            512 vlineto
            7 3 5 8 vhcurveto
            65 hlineto
            15 5 6 13 hvcurveto
            43 vlineto
            12 -5 6 -15 vhcurveto
            return
          </CharString>
          <CharString index="320">
            -44 0 -32 -17 -14 -25 rrcurveto
            -4 129 hlineto
            7 4 5 7 vhcurveto
            143 hlineto
            6 -1 3 -5 0 -6 rrcurveto
            -87 vlineto
            return
          </CharString>
          <CharString index="321">
            -13 -6 -6 -12 hvcurveto
            -43 vlineto
            -13 6 -6 13 vhcurveto
            729 hlineto
            7 -1 3 -4 0 -7 rrcurveto
            -87 vlineto
            -8 -4 -4 -7 vhcurveto
            -297 hlineto
            -13 -6 -6 -11 hvcurveto
            -49 vlineto
            -12 6 -6 14 vhcurveto
            38 hlineto
            45 32 -20 -57 hvcurveto
            -57 vlineto
            -49 -15 -29 -61 vhcurveto
            -57 0 -234 233 rlineto
            return
          </CharString>
          <CharString index="322">
            11 5 15 3 16 0 rrcurveto
            53 hlineto
            13 6 7 12 hvcurveto
            46 vlineto
            13 -6 6 -13 vhcurveto
            -62 hlineto
            -102 0 -57 -60 -1 -99 rrcurveto
            -88 vlineto
            -101 61 -58 99 vhcurveto
            285 hlineto
            88 51 56 96 hvcurveto
            70 vlineto
            0 33 -13 23 -23 11 rrcurveto
            return
          </CharString>
          <CharString index="323">
            4 127 vlineto
            7 4 -5 -7 hvcurveto
            -317 vlineto
            -14 6 -5 13 vhcurveto
            52 hlineto
            13 7 5 14 hvcurveto
            512 vlineto
            7 3 5 8 vhcurveto
            65 hlineto
            15 5 6 13 hvcurveto
            43 vlineto
            12 -5 6 -15 vhcurveto
            return
          </CharString>
          <CharString index="324">
            0 13 2 11 3 10 rrcurveto
            193 -193 -117 0 rlineto
            -57 -24 29 53 hvcurveto
            return
          </CharString>
          <CharString index="325">
            32 -38 50 -26 68 0 rrcurveto
            52 hlineto
            56 0 40 20 18 33 rrcurveto
            4 -118 hlineto
            -14 7 -5 12 vhcurveto
            53 hlineto
            13 6 5 14 hvcurveto
            512 vlineto
            7 4 5 7 vhcurveto
            66 hlineto
            14 5 6 13 hvcurveto
            43 vlineto
            12 -5 6 -14 vhcurveto
            return
          </CharString>
          <CharString index="326">
            -13 -6 -5 -13 hvcurveto
            -43 vlineto
            -13 6 -6 13 vhcurveto
            138 hlineto
            49 20 -22 -46 hvcurveto
            -14 vlineto
            -50 -19 -16 -50 vhcurveto
            -63 hlineto
            -14 -5 -7 -12 hvcurveto
            return
          </CharString>
          <CharString index="327">
            0 39 -16 25 -20 10 rrcurveto
            5 148 vlineto
            8 3 -5 -7 hvcurveto
            return
          </CharString>
          <CharString index="328">
            -57 0 -31 -25 -12 -35 rrcurveto
            -4 hlineto
            -15 41 -34 20 -62 0 rrcurveto
            -91 -59 -55 -105 hvcurveto
            -94 vlineto
            return
          </CharString>
          <CharString index="329">
            -104 58 -55 101 vhcurveto
            34 hlineto
            14 6 6 13 hvcurveto
            44 vlineto
            12 -6 6 -14 vhcurveto
            -22 hlineto
            -54 -28 25 57 hvcurveto
            85 vlineto
            57 21 25 46 42 23 -19 -54 vhcurveto
            -72 vlineto
            -13 6 -6 13 vhcurveto
            49 hlineto
            13 6 6 13 hvcurveto
            66 vlineto
            59 24 18 44 vhcurveto
            27 hlineto
            14 5 6 14 hvcurveto
            45 vlineto
            13 -5 6 -14 vhcurveto
            return
          </CharString>
          <CharString index="330">
            -77 -55 -44 -71 hvcurveto
            -44 vlineto
            -15 6 -5 12 vhcurveto
            49 hlineto
            11 6 5 15 hvcurveto
            35 vlineto
            29 18 17 33 31 20 -16 -31 vhcurveto
            -82 vlineto
            -40 -19 -24 -58 vhcurveto
            -79 hlineto
            -16 50 -45 36 -70 0 -65 0 -32 -26 -13 -34 rrcurveto
            -4 hlineto
            -15 41 -34 20 -62 0 rrcurveto
            -91 -59 -55 -105 hvcurveto
            -94 vlineto
            -104 58 -55 101 vhcurveto
            34 hlineto
            14 6 6 13 hvcurveto
            44 vlineto
            12 -6 6 -14 vhcurveto
            -22 hlineto
            -54 -28 25 57 hvcurveto
            85 vlineto
            57 21 25 46 42 23 -19 -54 vhcurveto
            -72 vlineto
            -13 6 -6 13 vhcurveto
            49 hlineto
            13 6 6 13 hvcurveto
            66 vlineto
            59 23 18 42 vhcurveto
            return
          </CharString>
          <CharString index="331">
            12 -5 6 -15 vhcurveto
            -446 hlineto
            -13 -6 -6 -12 hvcurveto
            -43 vlineto
            -13 6 -6 13 vhcurveto
            446 hlineto
            15 5 6 13 hvcurveto
            return
          </CharString>
          <CharString index="332">
            -68 -34 -45 -82 vhcurveto
            -44 hlineto
            -77 -35 32 67 hvcurveto
            27 12 vlineto
            89 48 40 88 hvcurveto
            45 vlineto
            return
          </CharString>
          <CharString index="333">
            -53 -21 -29 -52 vhcurveto
            -9 hlineto
            -51 -21 29 53 hvcurveto
            80 vlineto
            53 21 29 51 vhcurveto
            9 hlineto
            52 21 -29 -53 hvcurveto
            return
          </CharString>
          <CharString index="334">
            -68 -34 -45 -82 vhcurveto
            -44 hlineto
            -77 -35 39 67 hvcurveto
            45 12 vlineto
            89 48 40 87 hvcurveto
            21 vlineto
            return
          </CharString>
          <CharString index="335">
            7 4 5 8 vhcurveto
            313 hlineto
            14 6 6 13 hvcurveto
            43 vlineto
            12 -6 6 -14 vhcurveto
            -682 hlineto
            -13 -7 -6 -12 hvcurveto
            -43 vlineto
            -13 7 -6 13 vhcurveto
            258 hlineto
            7 4 -5 -7 hvcurveto
            -290 vlineto
            -48 -27 -27 -49 vhcurveto
            -28 hlineto
            -55 -30 29 54 hvcurveto
            57 vlineto
            54 28 28 54 vhcurveto
            29 hlineto
            14 6 7 12 hvcurveto
            43 vlineto
            13 -6 6 -14 vhcurveto
            -42 hlineto
            -101 0 -57 -60 -1 -99 rrcurveto
            -66 vlineto
            -100 60 -59 99 vhcurveto
            25 hlineto
            45 0 31 16 15 26 rrcurveto
            4 -107 hlineto
            -14 6 -6 12 vhcurveto
            51 hlineto
            13 6 6 14 hvcurveto
            294 vlineto
            47 27 27 49 vhcurveto
            28 hlineto
            55 30 -28 -54 hvcurveto
            -57 vlineto
            -54 -28 -29 -54 vhcurveto
            -29 hlineto
            -13 -7 -6 -12 hvcurveto
            -44 vlineto
            -12 7 -7 13 vhcurveto
            42 hlineto
            101 0 57 60 1 99 rrcurveto
            66 vlineto
            101 -59 58 -100 vhcurveto
            -25 hlineto
            -45 0 -32 -17 -14 -25 rrcurveto
            -4 hlineto
            return
          </CharString>
          <CharString index="336">
            -14 -5 -6 -12 hvcurveto
            -43 vlineto
            -13 5 -6 14 vhcurveto
            59 hlineto
            7 -1 3 -4 0 -7 rrcurveto
            -126 vlineto
            0 -44 17 -29 28 -16 rrcurveto
            -4 vlineto
            return
          </CharString>
          <CharString index="337">
            -38 -23 -22 -45 0 -62 rrcurveto
            -44 vlineto
            -97 55 -65 106 vhcurveto
            91 hlineto
            101 58 55 103 hvcurveto
            17 vlineto
            16 -6 7 -14 vhcurveto
            -47 hlineto
            -11 -7 -7 -16 hvcurveto
            -17 vlineto
            -56 -29 -20 -54 vhcurveto
            -73 hlineto
            -54 -28 24 54 hvcurveto
            46 vlineto
            54 26 25 54 vhcurveto
            127 hlineto
            return
          </CharString>
          <CharString index="338">
            61 30 36 51 hvcurveto
            183 vlineto
            7 3 5 8 vhcurveto
            60 hlineto
            13 6 6 13 hvcurveto
            43 vlineto
            12 -6 6 -13 vhcurveto
            return
          </CharString>
          <CharString index="339">
            7 3 -5 -7 hvcurveto
            0 -131 -188 143 2 0 rlineto
            return
          </CharString>
          <CharString index="340">
            -47 -20 19 52 hvcurveto
            0 74 188 -144 rlineto
            -2 -1 -1 0 -2 0 rrcurveto
            return
          </CharString>
          <CharString index="341">
            22 -17 rlineto
            -7 -4 -5 -7 hvcurveto
            0 -47 -45 35 rlineto
            return
          </CharString>
          <CharString index="342">
            -54 -27 -29 -54 vhcurveto
            -84 hlineto
            -55 -26 29 54 hvcurveto
            36 vlineto
            54 20 27 55 vhcurveto
            96 hlineto
            54 21 -27 -54 hvcurveto
            return
          </CharString>
          <CharString index="343">
            -19 15 rlineto
            11 6 5 13 0 17 rrcurveto
            0 20 35 -27 rlineto
            return
          </CharString>
          <CharString index="344">
            -13 -6 -6 -12 hvcurveto
            -42 vlineto
            -14 6 -6 13 vhcurveto
            58 hlineto
            6 -1 3 -5 0 -6 rrcurveto
            -229 vlineto
            -94 60 -58 92 vhcurveto
            48 hlineto
            58 0 45 30 32 32 rrcurveto
            return
          </CharString>
          <CharString index="345">
            25 -36 43 -18 55 0 rrcurveto
            20 hlineto
            95 56 50 102 hvcurveto
            221 vlineto
            0 7 3 4 7 1 rrcurveto
            106 hlineto
            8 3 -5 -7 hvcurveto
            -512 vlineto
            -14 7 -5 12 vhcurveto
            53 hlineto
            13 6 5 14 hvcurveto
            512 vlineto
            7 4 5 7 vhcurveto
            66 hlineto
            14 5 6 13 hvcurveto
            43 vlineto
            12 -5 6 -14 vhcurveto
            return
          </CharString>
          <CharString index="346">
            208 hlineto
            8 3 -5 -7 hvcurveto
            0 -221 0 -5 rlineto
            return
          </CharString>
          <CharString index="347">
            -54 -28 -29 -54 vhcurveto
            -29 hlineto
            -14 -6 -6 -12 hvcurveto
            -44 vlineto
            -12 6 -7 14 vhcurveto
            41 hlineto
            102 0 57 60 1 99 rrcurveto
            66 vlineto
            101 -60 58 -100 vhcurveto
            -25 hlineto
            -44 0 -32 -17 -14 -25 rrcurveto
            -4 104 hlineto
            7 4 5 7 vhcurveto
            314 hlineto
            13 7 6 13 hvcurveto
            43 vlineto
            12 -7 6 -13 vhcurveto
            return
          </CharString>
          <CharString index="348">
            49 20 -22 -46 hvcurveto
            -14 vlineto
            -50 -19 -16 -50 vhcurveto
            return
          </CharString>
          <CharString index="349">
            -48 -27 -27 -49 vhcurveto
            -28 hlineto
            -54 -31 29 54 hvcurveto
            57 vlineto
            54 28 28 54 vhcurveto
            29 hlineto
            14 6 7 12 hvcurveto
            43 vlineto
            13 -6 6 -14 vhcurveto
            -41 hlineto
            -94 0 -56 -51 -9 -86 rrcurveto
            return
          </CharString>
          <CharString index="350">
            18 15 6 23 0 37 rrcurveto
            120 vlineto
            7 3 5 8 vhcurveto
            134 hlineto
            6 -1 3 -5 0 -6 rrcurveto
            -199 vlineto
            return
          </CharString>
          <CharString index="351">
            -13 -6 -6 -12 hvcurveto
            -44 vlineto
            -13 6 -5 13 vhcurveto
            307 hlineto
            7 -1 3 -4 0 -7 rrcurveto
            -53 vlineto
            -8 -4 -4 -8 vhcurveto
            -104 hlineto
            -86 -50 -33 -89 hvcurveto
            0 -57 20 -29 34 -14 rrcurveto
            -4 vlineto
            -32 -14 -28 -28 0 -71 rrcurveto
            -19 vlineto
            -99 55 -54 127 vhcurveto
            149 hlineto
            13 7 5 14 hvcurveto
            39 vlineto
            13 -7 5 -13 vhcurveto
            -140 hlineto
            -74 -26 22 56 hvcurveto
            15 vlineto
            1 51 17 30 51 0 rrcurveto
            66 hlineto
            return
          </CharString>
          <CharString index="352">
            -12 -5 -5 -13 hvcurveto
            -53 vlineto
            -13 5 -6 12 vhcurveto
            55 hlineto
            12 6 6 13 hvcurveto
            53 vlineto
            13 -6 5 -12 vhcurveto
            return
          </CharString>
          <CharString index="353">
            47 26 27 50 vhcurveto
            28 hlineto
            54 31 -28 -54 hvcurveto
            -57 vlineto
            -54 -28 -29 -54 vhcurveto
            -30 hlineto
            -13 -6 -6 -12 hvcurveto
            -44 vlineto
            -12 6 -7 13 vhcurveto
            42 hlineto
            101 58 60 99 hvcurveto
            66 vlineto
            101 -59 58 -100 vhcurveto
            -25 hlineto
            -45 0 -32 -17 -13 -25 rrcurveto
            -4 104 hlineto
            7 3 5 8 vhcurveto
            314 hlineto
            13 6 6 13 hvcurveto
            43 vlineto
            12 -6 6 -13 vhcurveto
            return
          </CharString>
          <CharString index="354">
            -45 -25 -33 -58 vhcurveto
            -19 hlineto
            -53 -23 26 52 hvcurveto
            206 vlineto
            7 3 5 8 vhcurveto
            156 hlineto
            8 3 -5 -7 hvcurveto
            return
          </CharString>
          <CharString index="355">
            -12 -6 -6 -12 hvcurveto
            -53 vlineto
            -13 6 -6 12 vhcurveto
            55 hlineto
            12 6 6 13 hvcurveto
            53 vlineto
            12 -6 6 -12 vhcurveto
            return
          </CharString>
          <CharString index="356">
            0 39 -15 25 -20 10 rrcurveto
            5 147 vlineto
            8 4 -5 -7 hvcurveto
            return
          </CharString>
          <CharString index="357">
            -12 -6 -5 -13 hvcurveto
            -53 vlineto
            -13 6 -6 12 vhcurveto
            55 hlineto
            12 5 6 13 hvcurveto
            53 vlineto
            13 -6 5 -11 vhcurveto
            return
          </CharString>
          <CharString index="358">
            -13 -7 -6 -12 hvcurveto
            -43 vlineto
            -13 7 -6 13 vhcurveto
            95 hlineto
            13 6 6 13 hvcurveto
            43 vlineto
            12 -6 6 -13 vhcurveto
            return
          </CharString>
          <CharString index="359">
            54 27 23 54 vhcurveto
            33 hlineto
            56 28 -26 -53 hvcurveto
            0 -28 -85 -62 -185 -145 rlineto
            -10 -7 -4 -6 0 -9 rrcurveto
            -9 5 -6 10 vhcurveto
            71 hlineto
            16 0 7 6 8 6 rrcurveto
            170 134 0 -127 rlineto
            -14 6 -5 13 vhcurveto
            52 hlineto
            13 6 5 14 hvcurveto
            512 vlineto
            7 4 5 8 vhcurveto
            65 hlineto
            15 4 6 13 hvcurveto
            43 vlineto
            12 -4 6 -15 vhcurveto
            return
          </CharString>
          <CharString index="360">
            -39 -21 -17 -31 vhcurveto
            -17 hlineto
            -6 89 -52 48 -78 0 rrcurveto
            -17 hlineto
            -46 0 -32 -17 -13 -25 rrcurveto
            -4 104 hlineto
            7 3 5 8 vhcurveto
            295 hlineto
            8 3 -5 -7 hvcurveto
            return
          </CharString>
          <CharString index="361">
            -39 -21 -17 -31 vhcurveto
            -17 hlineto
            -6 88 -52 49 -76 0 rrcurveto
            -19 hlineto
            -46 0 -32 -17 -13 -25 rrcurveto
            -4 104 hlineto
            7 3 5 8 vhcurveto
            295 hlineto
            8 3 -5 -7 hvcurveto
            return
          </CharString>
          <CharString index="362">
            14 1 6 5 0 14 rrcurveto
            45 vlineto
            13 -6 6 -14 vhcurveto
            -268 hlineto
            -12 -6 -6 -11 hvcurveto
            -49 vlineto
            -12 5 -6 14 vhcurveto
            38 hlineto
            45 33 -20 -57 hvcurveto
            -57 vlineto
            -49 -15 -29 -62 vhcurveto
            -79 hlineto
            -13 -6 -6 -13 hvcurveto
            -43 vlineto
            -12 6 -7 13 vhcurveto
            106 hlineto
            88 51 56 96 hvcurveto
            70 vlineto
            0 33 -12 23 -24 11 rrcurveto
            4 vlineto
            return
          </CharString>
          <CharString index="363">
            -48 -25 -38 -60 vhcurveto
            -33 hlineto
            -57 -24 29 53 hvcurveto
            61 vlineto
            return
          </CharString>
          <CharString index="364">
            -77 -55 -44 -71 hvcurveto
            -51 vlineto
            -15 7 -5 11 vhcurveto
            49 hlineto
            11 7 5 15 hvcurveto
            42 vlineto
            29 17 17 33 31 20 -16 -31 vhcurveto
            -55 vlineto
            -40 -18 -25 -58 vhcurveto
            -287 hlineto
            -70 -44 -44 -65 hvcurveto
            0 -25 3 -24 7 -20 7 -15 10 -11 18 0 rrcurveto
            38 hlineto
            12 6 7 11 hvcurveto
            0 4 -1 5 -2 6 -4 13 -4 15 0 16 rrcurveto
            35 20 10 36 vhcurveto
            return
          </CharString>
          <CharString index="365">
            12 -5 6 -14 vhcurveto
            -241 hlineto
            -13 -6 -6 -12 hvcurveto
            -43 vlineto
            -13 6 -6 13 vhcurveto
            241 hlineto
            14 5 6 13 hvcurveto
            return
          </CharString>
          <CharString index="366">
            -78 -173 vlineto
            -70 -44 -43 -65 hvcurveto
            0 -25 3 -25 7 -19 7 -16 10 -11 18 0 rrcurveto
            38 hlineto
            12 6 8 10 hvcurveto
            0 5 -1 4 -2 6 -4 14 -4 14 0 17 rrcurveto
            34 20 11 36 vhcurveto
            141 -141 hlineto
            -14 7 -5 13 vhcurveto
            52 hlineto
            13 6 5 14 hvcurveto
            72 vlineto
            return
          </CharString>
          <CharString index="367">
            -13 45 -34 27 -58 0 rrcurveto
            -117 hlineto
            -70 -44 -45 -65 hvcurveto
            0 -25 3 -24 7 -20 7 -15 10 -11 18 0 rrcurveto
            38 hlineto
            12 6 7 10 hvcurveto
            0 5 -1 5 -2 6 -4 13 -4 14 0 17 rrcurveto
            34 20 11 36 vhcurveto
            76 hlineto
            31 13 -12 -26 hvcurveto
            0 -30 29 -40 121 -201 rlineto
            3 -5 6 -7 10 0 rrcurveto
            59 hlineto
            11 7 7 10 hvcurveto
            0 6 -4 6 -2 4 rrcurveto
            return
          </CharString>
          <CharString index="368">
            18 15 6 23 0 37 rrcurveto
            120 vlineto
            7 3 5 8 vhcurveto
            395 hlineto
            7 4 -5 -7 hvcurveto
            return
          </CharString>
          <CharString index="369">
            -38 23 -21 27 0 46 rrcurveto
            51 20 16 43 43 20 -16 -51 vhcurveto
            0 -39 -11 -32 -46 -31 rrcurveto
            return
          </CharString>
          <CharString index="370">
            0 -73 32 -33 52 -13 rrcurveto
            -48 vlineto
            -58 -28 -21 -50 vhcurveto
            -8 hlineto
            -13 -6 -7 -12 hvcurveto
            -45 vlineto
            -13 6 -6 13 vhcurveto
            22 hlineto
            98 57 53 105 hvcurveto
            46 100 -281 vlineto
            -14 7 -5 12 vhcurveto
            53 hlineto
            12 7 5 14 hvcurveto
            295 vlineto
            return
          </CharString>
          <CharString index="371">
            -39 -15 -33 -62 vhcurveto
            -46 hlineto
            -12 -7 -7 -13 hvcurveto
            -42 vlineto
            -13 6 -6 13 vhcurveto
            43 hlineto
            58 22 -31 -58 hvcurveto
            -19 vlineto
            -58 -27 -30 -53 vhcurveto
            -21 hlineto
            -54 -30 27 56 hvcurveto
            30 vlineto
            15 -7 8 -11 vhcurveto
            -52 hlineto
            -13 -7 -8 -15 hvcurveto
            -30 vlineto
            -103 61 -61 103 vhcurveto
            39 hlineto
            106 55 63 101 hvcurveto
            50 vlineto
            return
          </CharString>
          <CharString index="372">
            12 6 6 13 hvcurveto
            43 vlineto
            13 -7 5 -11 vhcurveto
            -41 hlineto
            -12 -6 -5 -13 hvcurveto
            -43 vlineto
            -13 6 -6 12 vhcurveto
            return
          </CharString>
        <CharString name=".notdef">
          97 0 46 490 46 hstem
          120 50 260 50 vstem
          170 536 rmoveto
          260 -490 -260 hlineto
          -50 -46 rmoveto
          360 582 -360 hlineto
          endchar
        </CharString>
        <CharString name="A">
          45 21 -21 147 80 hstem
          108 hmoveto
          -101 callsubr
          236 547 rmoveto
          -100 callsubr
          endchar
        </CharString>
        <CharString name="AE">
          275 0 85 62 87 50 85 189 85 hstem
          372 98 vstem
          86 hmoveto
          -47 callsubr
          352 548 rmoveto
          4 -314 -160 hlineto
          endchar
        </CharString>
        <CharString name="AEacute">
          275 0 85 62 87 50 85 189 85 hstem
          372 98 vstem
          486 836 rmoveto
          -10 0 -9 -4 -5 -12 rrcurveto
          -52 -96 rlineto
          -6 -12 3 -5 11 0 rrcurveto
          48 hlineto
          9 0 8 4 6 8 rrcurveto
          84 100 rlineto
          7 10 -4 7 -11 0 rrcurveto
          -479 -836 rmoveto
          -47 callsubr
          352 548 rmoveto
          4 -314 -160 hlineto
          endchar
        </CharString>
        <CharString name="Aacute">
          44 21 -21 147 80 hstem
          318 836 rmoveto
          -10 0 -9 -4 -6 -12 rrcurveto
          -52 -96 rlineto
          -5 -12 3 -5 10 0 rrcurveto
          49 hlineto
          8 0 8 4 6 8 rrcurveto
          85 100 rlineto
          7 10 -4 7 -12 0 rrcurveto
          -288 -836 rmoveto
          -101 callsubr
          236 547 rmoveto
          -100 callsubr
          endchar
        </CharString>
        <CharString name="Abreve">
          44 21 -21 147 80 480 51 hstem
          164 62 96 61 vstem
          164 824 rmoveto
          -11 vlineto
          -71 36 -35 61 vhcurveto
          25 hlineto
          61 36 35 71 hvcurveto
          11 vlineto
          8 -4 4 -8 vhcurveto
          -37 hlineto
          -8 -4 -4 -8 hvcurveto
          -10 vlineto
          -40 -13 -16 -32 vhcurveto
          -6 hlineto
          -32 -13 15 41 hvcurveto
          10 vlineto
          9 -4 3 -8 vhcurveto
          -38 hlineto
          -7 -5 -3 -9 hvcurveto
          -56 -824 rmoveto
          -101 callsubr
          236 547 rmoveto
          -100 callsubr
          endchar
        </CharString>
        <CharString name="Acircumflex">
          44 21 -21 147 80 hstem
          319 826 rmoveto
          -5 7 -5 3 -11 0 rrcurveto
          -48 hlineto
          -10 0 -6 -3 -5 -7 rrcurveto
          -63 -107 rlineto
          -4 -6 2 -6 9 0 rrcurveto
          45 hlineto
          8 0 5 2 2 8 rrcurveto
          41 78 40 -78 rlineto
          4 -8 4 -2 8 0 rrcurveto
          46 hlineto
          9 0 2 6 -4 6 rrcurveto
          -275 -719 rmoveto
          -101 callsubr
          236 547 rmoveto
          -100 callsubr
          endchar
        </CharString>
        <CharString name="Adieresis">
          44 21 -21 147 80 480 129 hstem
          138 91 89 91 vstem
          138 724 rmoveto
          -49 callsubr
          180 -95 rmoveto
          -48 callsubr
          -210 -819 rmoveto
          -101 callsubr
          236 547 rmoveto
          -100 callsubr
          endchar
        </CharString>
        <CharString name="Agrave">
          44 21 -21 147 80 hstem
          251 820 rmoveto
          -6 12 -8 4 -11 0 rrcurveto
          -78 hlineto
          -11 0 -5 -7 8 -10 rrcurveto
          84 -100 rlineto
          6 -8 8 -4 9 0 rrcurveto
          48 hlineto
          11 0 3 5 -6 12 rrcurveto
          -195 -724 rmoveto
          -101 callsubr
          236 547 rmoveto
          -100 callsubr
          endchar
        </CharString>
        <CharString name="Amacron">
          44 21 -21 147 80 513 69 hstem
          373 740 rmoveto
          -18 callsubr
          -66 -740 rmoveto
          -101 callsubr
          236 547 rmoveto
          -100 callsubr
          endchar
        </CharString>
        <CharString name="Aogonek">
          44 -116 54 83 -21 147 80 hstem
          348 626 rmoveto
          -3 13 -8 4 -13 0 rrcurveto
          -100 hlineto
          -13 0 -7 -4 -4 -13 rrcurveto
          -174 -609 rlineto
          -3 -12 2 -5 11 0 rrcurveto
          72 hlineto
          11 0 4 4 3 13 rrcurveto
          38 130 220 0 37 -128 -57 -86 rlineto
          -16 -24 9 -25 36 0 rrcurveto
          35 53 12 25 14 -5 3 -19 hvcurveto
          -40 0 42 62 52 0 rlineto
          12 0 2 5 -3 12 rrcurveto
          -338 210 rmoveto
          88 320 4 0 89 -320 rlineto
          endchar
        </CharString>
        <CharString name="Aring">
          44 21 -21 147 80 473 40 93 40 hstem
          191 42 78 45 vstem
          294 700 rmoveto
          38 24 22 40 hvcurveto
          51 vlineto
          38 -24 22 -38 vhcurveto
          -43 hlineto
          -39 -21 -22 -38 hvcurveto
          -51 vlineto
          -40 21 -22 39 vhcurveto
          14 40 rmoveto
          -22 -10 10 24 hvcurveto
          24 vlineto
          25 10 10 23 vhcurveto
          14 hlineto
          23 8 -10 -25 hvcurveto
          -24 vlineto
          -24 -8 -10 -24 vhcurveto
          -171 -740 rmoveto
          -101 callsubr
          236 547 rmoveto
          -100 callsubr
          endchar
        </CharString>
        <CharString name="Atilde">
          44 21 -21 147 80 475 53 24 53 hstem
          159 50 131 49 vstem
          288 746 rmoveto
          16 26 3 7 12 0 rrcurveto
          17 4 -8 -35 hvcurveto
          -19 vlineto
          -9 3 -3 7 vhcurveto
          30 hlineto
          7 2 3 9 hvcurveto
          38 vlineto
          45 -14 32 -53 vhcurveto
          -25 0 -16 -7 -18 -31 -18 -32 -5 -7 -11 0 rrcurveto
          -15 -5 9 34 hvcurveto
          20 vlineto
          8 -3 2 -7 vhcurveto
          -30 hlineto
          -7 -3 -2 -8 hvcurveto
          -39 vlineto
          -45 15 -32 53 vhcurveto
          24 0 17 7 20 37 rrcurveto
          -180 -746 rmoveto
          -101 callsubr
          236 547 rmoveto
          -100 callsubr
          endchar
        </CharString>
        <CharString name="B">
          49 0 83 206 80 191 83 hstemhm
          73 97 217 96 -87 95 hintmask 11110100
          181 83 rmoveto
          -7 -4 3 7 hvcurveto
          186 vlineto
          7 4 3 7 vhcurveto
          136 hlineto
          54 25 -23 -49 hvcurveto
          -62 vlineto
          -50 -25 -22 -50 vhcurveto
          -140 286 rmoveto
          -7 -4 3 7 hvcurveto
          171 vlineto
          7 4 3 7 vhcurveto
          132 hlineto
          hintmask 11111000
          49 25 -22 -50 hvcurveto
          -46 vlineto
          -50 -26 -23 -50 vhcurveto
          -238 -352 rmoveto
          -13 5 -4 12 vhcurveto
          246 hlineto
          hintmask 11110100
          97 58 55 98 hvcurveto
          64 vlineto
          0 69 -42 37 -48 6 rrcurveto
          hintmask 11111000
          49 15 33 36 0 61 rrcurveto
          49 vlineto
          98 -58 55 -98 vhcurveto
          -237 hlineto
          -12 -5 -4 -13 hvcurveto
          endchar
        </CharString>
        <CharString name="C">
          37 0 85 473 85 hstem
          63 97 231 98 vstem
          334 hmoveto
          -99 callsubr
          endchar
        </CharString>
        <CharString name="CR">
          -503 endchar
        </CharString>
        <CharString name="Cacute">
          37 0 85 473 85 hstem
          63 97 231 98 vstem
          334 hmoveto
          -99 callsubr
          90 836 rmoveto
          -16 callsubr
          endchar
        </CharString>
        <CharString name="Ccaron">
          37 0 85 473 85 hstem
          63 97 231 98 vstem
          334 hmoveto
          -99 callsubr
          84 707 rmoveto
          11 0 6 3 5 7 rrcurveto
          63 107 rlineto
          4 6 -2 6 -8 0 rrcurveto
          -47 hlineto
          -7 0 -5 -2 -4 -8 rrcurveto
          -40 -78 -40 78 rlineto
          -3 8 -5 2 -8 0 rrcurveto
          -45 hlineto
          -9 0 -2 -6 4 -6 rrcurveto
          63 -107 rlineto
          5 -7 6 -3 10 0 rrcurveto
          endchar
        </CharString>
        <CharString name="Ccedilla">
          37 -200 49 56 47 48 85 473 85 hstem
          63 97 148 51 32 98 vstem
          471 422 rmoveto
          12 6 6 12 hvcurveto
          48 vlineto
          99 -58 56 -97 vhcurveto
          -116 hlineto
          -98 -57 -56 -99 hvcurveto
          -333 vlineto
          -98 57 -57 98 vhcurveto
          44 0 -40 -46 rlineto
          -18 -20 11 -29 24 0 rrcurveto
          21 hlineto
          37 11 -6 -22 hvcurveto
          -3 vlineto
          -19 -11 -6 -37 vhcurveto
          -29 hlineto
          -12 -3 -4 -13 hvcurveto
          -16 vlineto
          -11 3 -5 12 vhcurveto
          38 hlineto
          54 36 20 47 hvcurveto
          16 vlineto
          51 -29 18 -47 vhcurveto
          0 4 42 44 9 0 rlineto
          97 58 57 98 hvcurveto
          48 vlineto
          12 -6 6 -12 vhcurveto
          -63 hlineto
          -11 -6 -6 -12 hvcurveto
          -44 vlineto
          -49 -22 -25 -50 vhcurveto
          -87 hlineto
          -49 -23 25 49 hvcurveto
          325 vlineto
          49 23 25 49 vhcurveto
          87 hlineto
          50 22 -25 -49 hvcurveto
          -44 vlineto
          -12 6 -6 11 vhcurveto
          endchar
        </CharString>
        <CharString name="Cdotaccent">
          37 0 85 473 85 67 129 hstem
          63 97 67 98 66 98 vstem
          334 hmoveto
          -99 callsubr
          9 727 rmoveto
          -15 callsubr
          endchar
        </CharString>
        <CharString name="D">
          52 0 85 473 85 hstem
          73 97 224 98 vstem
          181 85 rmoveto
          -98 callsubr
          -249 -68 rmoveto
          -97 callsubr
          endchar
        </CharString>
        <CharString name="Dcaron">
          52 0 85 473 85 hstem
          73 97 224 98 vstem
          251 707 rmoveto
          48 hlineto
          10 0 6 3 5 7 rrcurveto
          63 107 rlineto
          4 6 -1 6 -9 0 rrcurveto
          -46 hlineto
          -8 0 -4 -2 -3 -8 rrcurveto
          -41 -78 -40 78 rlineto
          -4 8 -4 2 -8 0 rrcurveto
          -45 hlineto
          -9 0 -3 -6 4 -6 rrcurveto
          64 -107 rlineto
          5 -7 5 -3 11 0 rrcurveto
          -70 -622 rmoveto
          -98 callsubr
          -249 -68 rmoveto
          -97 callsubr
          endchar
        </CharString>
        <CharString name="Dcroat">
          43 0 85 240 73 160 85 hstem
          82 98 224 98 vstem
          191 85 rmoveto
          -7 -4 3 8 hvcurveto
          219 vlineto
          7 4 3 7 vhcurveto
          103 hlineto
          13 4 4 12 hvcurveto
          40 vlineto
          12 -5 5 -12 vhcurveto
          -103 hlineto
          -7 -4 3 8 hvcurveto
          139 vlineto
          7 4 3 7 vhcurveto
          140 hlineto
          51 22 -25 -49 hvcurveto
          -325 vlineto
          -49 -22 -25 -51 vhcurveto
          15 -85 rmoveto
          98 58 57 98 hvcurveto
          333 vlineto
          99 -58 56 -98 vhcurveto
          -247 hlineto
          -11 -6 -4 -13 hvcurveto
          -217 vlineto
          -8 -2 -3 -8 vhcurveto
          -32 hlineto
          -13 -4 -5 -12 hvcurveto
          -40 vlineto
          -12 3 -4 14 vhcurveto
          32 hlineto
          8 2 -3 -7 hvcurveto
          -298 vlineto
          -13 6 -4 11 vhcurveto
          endchar
        </CharString>
        <CharString name="E">
          -23 0 85 199 85 189 85 hstem
          73 97 vstem
          410 hmoveto
          -96 callsubr
          endchar
        </CharString>
        <CharString name="Eacute">
          -23 0 85 199 85 189 85 hstem
          73 97 vstem
          283 836 rmoveto
          -10 0 -9 -4 -6 -12 rrcurveto
          -51 -96 rlineto
          -6 -12 3 -5 11 0 rrcurveto
          47 hlineto
          9 0 8 4 7 8 rrcurveto
          84 100 rlineto
          7 10 -4 7 -11 0 rrcurveto
          48 -836 rmoveto
          -96 callsubr
          endchar
        </CharString>
        <CharString name="Ebreve">
          -23 0 85 199 85 189 85 64 51 hstemhm
          73 97 -32 62 95 62 hintmask 11110110
          138 824 rmoveto
          -11 callsubr
          272 -824 rmoveto
          -42 callsubr
          hintmask 11111010
          -41 callsubr
          endchar
        </CharString>
        <CharString name="Ecaron">
          -23 0 85 199 85 189 85 hstem
          73 97 vstem
          230 707 rmoveto
          48 hlineto
          11 0 5 3 5 7 rrcurveto
          64 107 rlineto
          4 6 -2 6 -9 0 rrcurveto
          -46 hlineto
          -8 0 -4 -2 -4 -8 rrcurveto
          -40 -78 -41 78 rlineto
          -3 8 -4 2 -8 0 rrcurveto
          -45 hlineto
          -9 0 -2 -6 4 -6 rrcurveto
          63 -107 rlineto
          5 -7 6 -3 10 0 rrcurveto
          180 -707 rmoveto
          -96 callsubr
          endchar
        </CharString>
        <CharString name="Ecircumflex">
          -23 0 85 199 85 189 85 hstem
          73 97 vstem
          294 826 rmoveto
          -45 callsubr
          53 -719 rmoveto
          -96 callsubr
          endchar
        </CharString>
        <CharString name="Edieresis">
          -23 0 85 199 85 189 85 64 129 hstemhm
          73 97 -56 92 87 93 hintmask 11110110
          114 724 rmoveto
          -44 callsubr
          179 -95 rmoveto
          -43 callsubr
          117 -819 rmoveto
          -42 callsubr
          hintmask 11111010
          -41 callsubr
          endchar
        </CharString>
        <CharString name="Edotaccent">
          -16 0 85 199 85 189 85 67 129 hstem
          73 97 31 98 vstem
          201 727 rmoveto
          -12 5 -5 11 vhcurveto
          66 hlineto
          11 5 5 12 hvcurveto
          96 vlineto
          12 -6 4 -10 vhcurveto
          -66 hlineto
          -11 -5 -5 -12 hvcurveto
          209 -822 rmoveto
          -96 callsubr
          endchar
        </CharString>
        <CharString name="Egrave">
          -23 0 85 199 85 189 85 hstem
          73 97 vstem
          232 820 rmoveto
          -46 callsubr
          126 -724 rmoveto
          -96 callsubr
          endchar
        </CharString>
        <CharString name="Emacron">
          -23 0 85 199 85 189 85 97 69 hstem
          73 97 vstem
          349 740 rmoveto
          13 4 5 12 hvcurveto
          35 vlineto
          11 -4 6 -13 vhcurveto
          -200 hlineto
          -12 -4 -6 -11 hvcurveto
          -35 vlineto
          -12 4 -5 12 vhcurveto
          261 -740 rmoveto
          -96 callsubr
          endchar
        </CharString>
        <CharString name="Eng">
          59 -160 85 96 -21 hstem
          78 98 242 98 vstem
          360 -160 rmoveto
          97 59 58 97 hvcurveto
          631 vlineto
          13 -6 4 -11 vhcurveto
          -64 hlineto
          -11 -6 -4 -13 hvcurveto
          -429 -4 vlineto
          -240 435 rlineto
          -1 2 -4 9 -16 0 rrcurveto
          -58 hlineto
          -11 -6 -4 -13 hvcurveto
          -609 vlineto
          -13 6 -4 11 vhcurveto
          64 hlineto
          11 6 4 13 hvcurveto
          429 4 vlineto
          47 -78 144 -273 46 -79 rrcurveto
          -4 vlineto
          -63 -23 -24 -62 vhcurveto
          -25 hlineto
          -13 -4 -6 -11 hvcurveto
          -51 vlineto
          -12 4 -5 13 vhcurveto
          endchar
        </CharString>
        <CharString name="Eogonek">
          -23 -116 54 62 85 199 85 189 85 hstem
          73 97 vstem
          410 558 rmoveto
          12 4 5 12 hvcurveto
          51 vlineto
          11 -4 6 -12 vhcurveto
          -320 hlineto
          -12 -5 -4 -13 hvcurveto
          -609 vlineto
          -13 5 -4 12 vhcurveto
          225 0 -45 -67 rlineto
          -17 -24 9 -25 36 0 rrcurveto
          35 53 12 25 14 -5 3 -18 hvcurveto
          -41 0 43 62 45 0 rlineto
          12 4 6 11 hvcurveto
          51 vlineto
          12 -4 5 -12 vhcurveto
          -228 hlineto
          -8 -4 3 8 hvcurveto
          178 vlineto
          7 4 3 8 vhcurveto
          193 hlineto
          13 5 6 11 hvcurveto
          51 vlineto
          12 -5 5 -13 vhcurveto
          -193 hlineto
          -8 -4 3 7 hvcurveto
          169 vlineto
          7 4 3 8 vhcurveto
          endchar
        </CharString>
        <CharString name="Eth">
          43 0 85 201 74 198 85 hstem
          82 98 224 98 vstem
          191 85 rmoveto
          -7 -4 3 8 hvcurveto
          180 vlineto
          7 4 3 7 vhcurveto
          103 hlineto
          13 4 5 12 hvcurveto
          40 vlineto
          12 -5 5 -12 vhcurveto
          -103 hlineto
          -7 -4 3 7 hvcurveto
          178 vlineto
          7 4 3 7 vhcurveto
          140 hlineto
          51 22 -25 -49 hvcurveto
          -325 vlineto
          -49 -22 -25 -51 vhcurveto
          15 -85 rmoveto
          98 58 57 98 hvcurveto
          333 vlineto
          99 -58 56 -98 vhcurveto
          -247 hlineto
          -11 -6 -4 -13 hvcurveto
          -256 vlineto
          -7 -2 -3 -8 vhcurveto
          -32 hlineto
          -13 -4 -5 -12 hvcurveto
          -40 vlineto
          -12 3 -5 14 vhcurveto
          32 hlineto
          8 2 -3 -7 hvcurveto
          -259 vlineto
          -13 6 -4 11 vhcurveto
          endchar
        </CharString>
        <CharString name="Euro">
          35 0 83 138 69 58 68 144 83 hstem
          97 96 183 98 vstem
          318 hmoveto
          97 59 55 98 hvcurveto
          23 vlineto
          13 -6 4 -11 vhcurveto
          -64 hlineto
          -11 -6 -4 -13 hvcurveto
          -21 vlineto
          -50 -23 -22 -50 vhcurveto
          -35 hlineto
          -51 -24 22 50 hvcurveto
          66 117 vlineto
          15 4 7 12 hvcurveto
          31 vlineto
          13 -4 6 -15 vhcurveto
          -117 58 117 hlineto
          15 4 6 13 hvcurveto
          30 vlineto
          13 -4 6 -15 vhcurveto
          -117 72 hlineto
          50 24 22 51 vhcurveto
          35 hlineto
          50 23 -22 -50 hvcurveto
          -21 vlineto
          -13 6 -4 11 vhcurveto
          64 hlineto
          11 6 4 13 hvcurveto
          23 vlineto
          98 -59 55 -97 vhcurveto
          -65 hlineto
          -97 -59 -55 -98 hvcurveto
          -74 -50 vlineto
          -15 -4 -6 -13 hvcurveto
          -30 vlineto
          -13 4 -6 15 vhcurveto
          50 -58 -50 hlineto
          -15 -4 -6 -13 hvcurveto
          -31 vlineto
          -12 4 -7 15 vhcurveto
          50 -68 hlineto
          -98 59 -55 97 vhcurveto
          endchar
        </CharString>
        <CharString name="F">
          -49 21 -21 263 85 210 85 hstem
          73 97 vstem
          153 hmoveto
          12 5 4 13 hvcurveto
          236 vlineto
          7 4 3 8 vhcurveto
          193 hlineto
          13 5 6 12 hvcurveto
          50 vlineto
          12 -5 5 -13 vhcurveto
          -193 hlineto
          -8 -4 3 8 hvcurveto
          189 vlineto
          7 4 3 8 vhcurveto
          222 hlineto
          13 4 5 12 hvcurveto
          51 vlineto
          11 -4 6 -13 vhcurveto
          -314 hlineto
          -12 -5 -4 -13 hvcurveto
          -609 vlineto
          -13 5 -4 12 vhcurveto
          endchar
        </CharString>
        <CharString name="G">
          40 0 85 174 85 214 85 hstem
          63 97 223 97 vstem
          325 hmoveto
          -95 callsubr
          endchar
        </CharString>
        <CharString name="Gbreve">
          40 0 85 174 85 214 85 64 51 hstem
          63 97 2 63 95 61 2 97 vstem
          162 824 rmoveto
          -11 vlineto
          -71 36 -35 61 vhcurveto
          25 hlineto
          62 35 35 71 hvcurveto
          11 vlineto
          8 -4 4 -8 vhcurveto
          -37 hlineto
          -8 -4 -4 -8 hvcurveto
          -10 vlineto
          -40 -12 -16 -33 vhcurveto
          -7 hlineto
          -31 -12 15 41 hvcurveto
          10 vlineto
          9 -5 3 -8 vhcurveto
          -38 hlineto
          -7 -5 -3 -9 hvcurveto
          163 -824 rmoveto
          -95 callsubr
          endchar
        </CharString>
        <CharString name="Gcircumflex">
          40 0 85 174 85 214 85 hstem
          63 97 223 97 vstem
          319 826 rmoveto
          -10 callsubr
          -57 -719 rmoveto
          -95 callsubr
          endchar
        </CharString>
        <CharString name="Gdotaccent">
          40 0 85 174 85 214 85 67 129 hstem
          63 97 62 98 63 97 vstem
          222 727 rmoveto
          -12 5 -5 12 vhcurveto
          65 hlineto
          11 5 5 12 hvcurveto
          96 vlineto
          12 -6 4 -10 vhcurveto
          -65 hlineto
          -12 -5 -5 -12 hvcurveto
          103 -822 rmoveto
          -95 callsubr
          endchar
        </CharString>
        <CharString name="H">
          71 21 -21 280 86 hstem
          73 97 233 98 vstem
          153 hmoveto
          12 5 4 13 hvcurveto
          253 vlineto
          7 4 3 8 vhcurveto
          211 hlineto
          7 3 -3 -7 hvcurveto
          -253 vlineto
          -13 6 -4 11 vhcurveto
          64 hlineto
          11 6 4 13 hvcurveto
          609 vlineto
          13 -6 4 -11 vhcurveto
          -64 hlineto
          -11 -6 -4 -13 hvcurveto
          -250 vlineto
          -7 -3 -3 -7 vhcurveto
          -211 hlineto
          -8 -4 3 7 hvcurveto
          250 vlineto
          13 -5 4 -12 vhcurveto
          -63 hlineto
          -12 -5 -4 -13 hvcurveto
          -609 vlineto
          -13 5 -4 12 vhcurveto
          endchar
        </CharString>
        <CharString name="Hbar">
          74 21 -21 269 85 95 73 hstem
          88 99 232 98 vstem
          169 hmoveto
          11 7 4 13 hvcurveto
          241 vlineto
          8 2 3 8 vhcurveto
          211 hlineto
          8 3 -3 -8 hvcurveto
          -241 vlineto
          -13 6 -4 11 vhcurveto
          63 hlineto
          12 6 4 13 hvcurveto
          421 vlineto
          8 4 3 7 vhcurveto
          38 hlineto
          13 4 4 12 hvcurveto
          40 vlineto
          12 -4 5 -13 vhcurveto
          -38 hlineto
          -7 -4 3 8 hvcurveto
          93 vlineto
          13 -6 4 -12 vhcurveto
          -63 hlineto
          -11 -6 -4 -13 hvcurveto
          -95 vlineto
          -5 -2 -4 -8 vhcurveto
          -212 hlineto
          -8 -2 3 8 hvcurveto
          93 vlineto
          13 -7 4 -11 vhcurveto
          -63 hlineto
          -12 -6 -4 -13 hvcurveto
          -93 vlineto
          -8 -3 -3 -7 vhcurveto
          -38 hlineto
          -13 -4 -5 -12 hvcurveto
          -40 vlineto
          -12 3 -4 14 vhcurveto
          38 hlineto
          7 3 -3 -8 hvcurveto
          -421 vlineto
          -13 6 -4 12 vhcurveto
          91 354 rmoveto
          -7 -3 3 8 hvcurveto
          73 vlineto
          8 3 3 7 vhcurveto
          211 hlineto
          7 4 -4 -7 hvcurveto
          -73 vlineto
          -8 -3 -3 -8 vhcurveto
          endchar
        </CharString>
        <CharString name="I">
          -250 21 -21 hstem
          78 97 vstem
          175 626 rmoveto
          -94 callsubr
          endchar
        </CharString>
        <CharString name="IJ">
          238 0 85 hstem
          80 98 84 98 215 98 vstem
          593 643 rmoveto
          -12 -6 -4 -13 hvcurveto
          -467 vlineto
          -49 -22 -25 -50 vhcurveto
          -71 hlineto
          -50 -22 25 49 hvcurveto
          86 vlineto
          12 -6 5 -11 vhcurveto
          -64 hlineto
          -11 -6 -5 -12 hvcurveto
          -90 vlineto
          -98 58 -57 98 vhcurveto
          100 hlineto
          97 58 57 98 hvcurveto
          472 vlineto
          12 -6 4 -11 vhcurveto
          -478 -17 rmoveto
          13 -6 4 -11 vhcurveto
          -64 hlineto
          -11 -6 -4 -13 hvcurveto
          -609 vlineto
          -13 6 -4 11 vhcurveto
          64 hlineto
          11 6 4 13 hvcurveto
          endchar
        </CharString>
        <CharString name="Iacute">
          -250 21 -21 hstem
          78 97 vstem
          171 836 rmoveto
          -11 0 -8 -4 -7 -12 rrcurveto
          -51 -96 rlineto
          -6 -12 3 -5 11 0 rrcurveto
          48 hlineto
          8 0 9 4 6 8 rrcurveto
          84 100 rlineto
          8 10 -5 7 -11 0 rrcurveto
          -74 -210 rmoveto
          -94 callsubr
          endchar
        </CharString>
        <CharString name="Ibreve">
          -250 21 -21 707 51 hstemhm
          17 63 -2 97 0 61 hintmask 11101000
          17 824 rmoveto
          -11 vlineto
          -71 35 -35 62 vhcurveto
          25 hlineto
          62 35 35 71 hvcurveto
          11 vlineto
          8 -4 4 -8 vhcurveto
          -37 hlineto
          -8 -4 -4 -8 hvcurveto
          -10 vlineto
          -40 -12 -16 -33 vhcurveto
          -7 hlineto
          -31 -12 15 41 hvcurveto
          10 vlineto
          9 -5 3 -8 vhcurveto
          -38 hlineto
          -7 -5 -3 -9 hvcurveto
          hintmask 11010000
          158 -198 rmoveto
          -94 callsubr
          endchar
        </CharString>
        <CharString name="Icircumflex">
          -251 21 -21 hstem
          78 97 vstem
          171 826 rmoveto
          -5 7 -6 3 -10 0 rrcurveto
          -48 hlineto
          -11 0 -6 -3 -5 -7 rrcurveto
          -63 -107 rlineto
          -4 -6 3 -6 9 0 rrcurveto
          44 hlineto
          9 0 4 2 3 8 rrcurveto
          40 78 41 -78 rlineto
          4 -8 4 -2 7 0 rrcurveto
          47 hlineto
          9 0 1 6 -4 6 rrcurveto
          -59 -93 rmoveto
          -94 callsubr
          endchar
        </CharString>
        <CharString name="Idieresis">
          -251 21 -21 707 129 hstemhm
          -10 93 -5 97 -5 93 hintmask 11100000
          -10 724 rmoveto
          -40 callsubr
          hintmask 11001000
          180 -95 rmoveto
          -39 callsubr
          hintmask 11010000
          5 -193 rmoveto
          -94 callsubr
          endchar
        </CharString>
        <CharString name="Idotaccent">
          -250 21 -21 697 124 hstem
          78 97 vstem
          175 626 rmoveto
          -94 callsubr
          -97 697 rmoveto
          -11 5 -6 11 vhcurveto
          65 hlineto
          11 5 6 11 hvcurveto
          91 vlineto
          12 -5 4 -11 vhcurveto
          -65 hlineto
          -11 -5 -5 -12 hvcurveto
          endchar
        </CharString>
        <CharString name="Igrave">
          -250 21 -21 hstem
          78 97 vstem
          107 820 rmoveto
          -46 callsubr
          16 -98 rmoveto
          -94 callsubr
          endchar
        </CharString>
        <CharString name="Imacron">
          -251 21 -21 740 69 hstem
          78 97 vstem
          226 740 rmoveto
          -18 callsubr
          148 -114 rmoveto
          -94 callsubr
          endchar
        </CharString>
        <CharString name="Iogonek">
          -250 -116 54 hstem
          78 97 vstem
          158 hmoveto
          12 5 4 13 hvcurveto
          609 vlineto
          13 -5 4 -12 vhcurveto
          -63 hlineto
          -12 -5 -4 -13 hvcurveto
          -609 vlineto
          -13 5 -4 12 vhcurveto
          6 0 -45 -67 rlineto
          -16 -24 8 -25 37 0 rrcurveto
          34 54 12 25 14 -5 3 -19 hvcurveto
          -41 0 44 62 rlineto
          endchar
        </CharString>
        <CharString name="Itilde">
          -251 21 -21 702 53 24 53 hstem
          12 49 17 97 17 50 vstem
          141 746 rmoveto
          15 26 4 7 12 0 rrcurveto
          16 4 -8 -35 hvcurveto
          -19 vlineto
          -9 2 -3 8 vhcurveto
          30 hlineto
          7 3 3 9 hvcurveto
          38 vlineto
          45 -15 32 -52 vhcurveto
          -27 0 -14 -7 -18 -31 -19 -32 -5 -7 -10 0 rrcurveto
          -17 -4 9 34 hvcurveto
          20 vlineto
          8 -2 2 -8 vhcurveto
          -30 hlineto
          -7 -2 -2 -8 hvcurveto
          -39 vlineto
          -45 14 -32 52 vhcurveto
          25 0 18 7 20 37 rrcurveto
          34 -120 rmoveto
          -94 callsubr
          endchar
        </CharString>
        <CharString name="J">
          10 0 85 hstem
          34 98 215 98 vstem
          365 643 rmoveto
          -93 callsubr
          endchar
        </CharString>
        <CharString name="Jcircumflex">
          -6 0 85 hstem
          34 98 215 98 vstem
          365 643 rmoveto
          -93 callsubr
          12 183 rmoveto
          -45 callsubr
          endchar
        </CharString>
        <CharString name="K">
          45 21 -21 hstem
          73 97 vstem
          153 hmoveto
          -92 callsubr
          endchar
        </CharString>
        <CharString name="L">
          -53 0 87 hstem
          73 97 vstem
          414 hmoveto
          -91 callsubr
          endchar
        </CharString>
        <CharString name="Lacute">
          -53 0 87 hstem
          73 97 vstem
          167 836 rmoveto
          -8 callsubr
          169 -836 rmoveto
          -91 callsubr
          endchar
        </CharString>
        <CharString name="Lcaron">
          -53 0 87 hstemhm
          73 97 123 89 -89 28 hintmask 11100000
          382 627 rmoveto
          -13 callsubr
          hintmask 11010000
          -206 vlineto
          -12 6 -4 7 vhcurveto
          6 0 6 4 3 5 rrcurveto
          43 98 rlineto
          hintmask 11100000
          -12 callsubr
          32 -582 rmoveto
          -91 callsubr
          endchar
        </CharString>
        <CharString name="Ldot">
          -4 0 87 163 137 hstem
          78 98 107 101 vstem
          420 hmoveto
          13 4 6 11 hvcurveto
          52 vlineto
          11 -4 7 -13 vhcurveto
          -233 hlineto
          -8 -3 3 7 hvcurveto
          529 vlineto
          13 -6 4 -11 vhcurveto
          -64 hlineto
          -11 -6 -4 -13 hvcurveto
          -609 vlineto
          -13 6 -4 11 vhcurveto
          289 371 rmoveto
          12 -6 4 -10 vhcurveto
          -68 hlineto
          -12 -5 -5 -12 hvcurveto
          -102 vlineto
          -11 5 -7 12 vhcurveto
          68 hlineto
          11 5 6 11 hvcurveto
          endchar
        </CharString>
        <CharString name="Lslash">
          9 0 87 hstem
          98 98 vstem
          440 hmoveto
          12 4 6 11 hvcurveto
          52 vlineto
          11 -4 7 -12 vhcurveto
          -233 hlineto
          -8 -3 3 7 hvcurveto
          0 276 89 50 rlineto
          11 7 6 7 0 12 rrcurveto
          52 vlineto
          0 10 -7 4 -10 -4 rrcurveto
          -89 -50 0 165 rlineto
          13 -6 4 -11 vhcurveto
          -64 hlineto
          -11 -6 -4 -13 hvcurveto
          0 -222 -67 -37 rlineto
          -12 -7 -5 -8 0 -10 rrcurveto
          -51 vlineto
          0 -10 7 -5 10 5 rrcurveto
          67 38 0 -302 rlineto
          -13 6 -4 11 vhcurveto
          endchar
        </CharString>
        <CharString name="M">
          212 21 -21 hstem
          73 95 378 96 vstem
          360 246 rmoveto
          -5 0 -137 386 rlineto
          -3 7 -4 4 -9 0 rrcurveto
          -112 hlineto
          -10 -7 -4 -13 hvcurveto
          -609 vlineto
          -14 7 -3 10 vhcurveto
          61 hlineto
          14 3 4 13 hvcurveto
          506 4 vlineto
          133 -367 rlineto
          4 -11 5 -5 12 0 rrcurveto
          64 hlineto
          12 0 6 6 4 10 rrcurveto
          130 366 4 0 0 -505 rlineto
          -13 6 -4 11 vhcurveto
          62 hlineto
          11 6 4 13 hvcurveto
          609 vlineto
          13 -6 4 -11 vhcurveto
          -112 hlineto
          -10 0 -4 -4 -1 -7 rrcurveto
          endchar
        </CharString>
        <CharString name="Mu">
          47 0 85 hstem
          77 98 201 98 vstem
          175 18 rmoveto
          18 -22 49 4 29 0 45 0 40 18 16 35 rrcurveto
          4 -36 hlineto
          -13 6 -4 11 vhcurveto
          63 hlineto
          12 6 4 13 hvcurveto
          476 vlineto
          13 -6 4 -12 vhcurveto
          -63 hlineto
          -11 -6 -4 -13 hvcurveto
          -323 vlineto
          -51 -24 -34 -58 vhcurveto
          -48 hlineto
          -49 -22 25 49 hvcurveto
          334 vlineto
          13 -6 4 -12 vhcurveto
          -63 hlineto
          -12 -5 -4 -13 hvcurveto
          -609 vlineto
          -13 5 -4 12 vhcurveto
          63 hlineto
          12 6 4 13 hvcurveto
          endchar
        </CharString>
        <CharString name="N">
          80 21 -21 hstem
          73 96 245 96 vstem
          152 hmoveto
          -90 callsubr
          endchar
        </CharString>
        <CharString name="NULL">
          -503 endchar
        </CharString>
        <CharString name="Nacute">
          80 21 -21 hstem
          73 96 245 96 vstem
          336 836 rmoveto
          -11 0 -9 -4 -6 -12 rrcurveto
          -52 -96 rlineto
          -5 -12 3 -5 10 0 rrcurveto
          49 hlineto
          8 0 9 4 5 8 rrcurveto
          85 100 rlineto
          7 10 -4 7 -12 0 rrcurveto
          -261 -836 rmoveto
          -90 callsubr
          endchar
        </CharString>
        <CharString name="Ncaron">
          80 21 -21 hstem
          73 96 245 96 vstem
          152 hmoveto
          -90 callsubr
          184 707 rmoveto
          48 hlineto
          10 0 6 3 5 7 rrcurveto
          63 107 rlineto
          4 6 -2 6 -8 0 rrcurveto
          -47 hlineto
          -7 0 -5 -2 -3 -8 rrcurveto
          -41 -78 -40 78 rlineto
          -3 8 -4 2 -9 0 rrcurveto
          -45 hlineto
          -8 0 -3 -6 4 -6 rrcurveto
          63 -107 rlineto
          5 -7 6 -3 11 0 rrcurveto
          endchar
        </CharString>
        <CharString name="Ntilde">
          80 21 -21 702 53 24 53 hstem
          73 96 9 49 131 49 7 96 vstem
          306 746 rmoveto
          16 26 3 7 12 0 rrcurveto
          16 5 -8 -35 hvcurveto
          -19 vlineto
          -9 2 -3 8 vhcurveto
          29 hlineto
          7 3 3 9 hvcurveto
          38 vlineto
          45 -14 32 -53 vhcurveto
          -26 0 -15 -7 -18 -31 -18 -32 -5 -7 -11 0 rrcurveto
          -16 -4 9 34 hvcurveto
          20 vlineto
          8 -3 2 -8 vhcurveto
          -29 hlineto
          -7 -2 -2 -8 hvcurveto
          -39 vlineto
          -45 14 -32 52 vhcurveto
          25 0 18 7 19 37 rrcurveto
          -154 -746 rmoveto
          -90 callsubr
          endchar
        </CharString>
        <CharString name="O">
          49 0 85 473 85 hstem
          63 97 232 98 vstem
          232 85 rmoveto
          -89 callsubr
          15 -85 rmoveto
          -88 callsubr
          endchar
        </CharString>
        <CharString name="OE">
          276 0 85 199 85 189 85 hstem
          68 99 202 97 vstem
          68 155 rmoveto
          -98 58 -57 98 vhcurveto
          475 hlineto
          12 5 6 11 hvcurveto
          51 vlineto
          12 -5 5 -12 vhcurveto
          -223 hlineto
          -7 -3 3 8 hvcurveto
          178 vlineto
          7 3 3 7 vhcurveto
          189 hlineto
          13 4 6 11 hvcurveto
          51 vlineto
          12 -4 5 -13 vhcurveto
          -189 hlineto
          -7 -3 3 7 hvcurveto
          169 vlineto
          7 3 3 7 vhcurveto
          223 hlineto
          12 5 5 12 hvcurveto
          51 vlineto
          11 -5 6 -12 vhcurveto
          -475 hlineto
          -98 -58 -56 -99 hvcurveto
          171 -403 rmoveto
          -51 -21 25 49 hvcurveto
          325 vlineto
          49 21 25 51 vhcurveto
          118 hlineto
          8 4 -3 -7 hvcurveto
          -452 vlineto
          -8 -4 -3 -8 vhcurveto
          endchar
        </CharString>
        <CharString name="Oacute">
          49 0 85 473 85 hstem
          63 97 232 98 vstem
          312 836 rmoveto
          -11 0 -9 -4 -5 -12 rrcurveto
          -52 -96 rlineto
          -6 -12 3 -5 11 0 rrcurveto
          48 hlineto
          9 0 8 4 6 8 rrcurveto
          84 100 rlineto
          7 10 -4 7 -11 0 rrcurveto
          -158 -751 rmoveto
          -89 callsubr
          15 -85 rmoveto
          -88 callsubr
          endchar
        </CharString>
        <CharString name="Obreve">
          49 0 85 473 85 64 51 hstem
          63 97 7 62 96 61 6 98 vstem
          167 824 rmoveto
          -11 vlineto
          -71 35 -35 62 vhcurveto
          25 hlineto
          61 36 35 71 hvcurveto
          11 vlineto
          8 -4 4 -8 vhcurveto
          -37 hlineto
          -8 -4 -4 -8 hvcurveto
          -10 vlineto
          -40 -13 -16 -33 vhcurveto
          -6 hlineto
          -31 -13 15 41 hvcurveto
          10 vlineto
          9 -4 3 -8 vhcurveto
          -38 hlineto
          -8 -4 -3 -9 hvcurveto
          65 -739 rmoveto
          -89 callsubr
          15 -85 rmoveto
          -88 callsubr
          endchar
        </CharString>
        <CharString name="Ocircumflex">
          49 0 85 473 85 hstem
          63 97 232 98 vstem
          324 826 rmoveto
          -38 callsubr
          -154 -634 rmoveto
          -89 callsubr
          15 -85 rmoveto
          -88 callsubr
          endchar
        </CharString>
</ttFont>
